<?xml version="1.0" standalone="no"?> <!DOCTYPE svg PUBLIC "-//W3C//DTD SVG 1.0//EN" "http://www.w3.org/TR/2001/REC-SVG-20010904/DTD/svg10.dtd" > <svg xmlns="http://www.w3.org/2000/svg" width="100%" height="100%">
<defs >
<font id="sentinelbookitalic" horiz-adv-x="840" ><font-face
    font-family="Sentinel Book"
    units-per-em="2048"
    panose-1="0 0 0 0 0 0 0 0 0 0"
    ascent="1638"
    descent="-409"
    alphabetic="0" />
<missing-glyph horiz-adv-x="1024" d="M0 -410V1638H1024V-410H0ZM145 1536L512 737L879 1536H145ZM102 -156L455 614L102 1384V-156ZM922 1384L569 614L922 -156V1384ZM512 492L145 -307H879L512 492Z" />
<glyph unicode=" " glyph-name="space" horiz-adv-x="356" />
<glyph unicode="!" glyph-name="exclam" horiz-adv-x="544" d="M221 387Q260 579 307 894T375 1284Q401 1389 485 1389Q532 1389 558 1364T584 1294Q584 1281 582 1265T572 1225T559 1179T538 1117T513 1046T481 957T444 854Q367 636 287 373L221 387ZM176 -31Q132
-31 103 0T74 82Q74 131 106 171T188 211Q234 211 263 180T293 98Q293 49 260 9T176 -31Z" />
<glyph unicode="&quot;" glyph-name="quotedbl" horiz-adv-x="780" d="M270 844L221 870L367 1163Q414 1260 445 1301T514 1343Q551 1343 578 1320T606 1264Q606 1255 604 1246T596 1225T585 1204T569 1180T550 1155T526 1127T500 1097T470 1064T438 1028L270
844ZM596 844L547 870L692 1163Q741 1262 771 1302T840 1343Q877 1343 904 1320T932 1264Q932 1252 929 1240T916 1212T898 1184T872 1150T842 1116T805 1073T764 1028L596 844Z" />
<glyph unicode="#" glyph-name="numbersign" horiz-adv-x="1337" d="M197 848L223 950H524L637 1354L752 1339L643 950H963L1075 1354L1192 1339L1083 950H1356L1329 848H1055L938 432H1237L1212 328H909L795 -88L678 -76L791 328H469L354 -88L238 -76L350 328H80L104
432H379L496 848H197ZM614 848L498 432H819L934 848H614Z" />
<glyph unicode="$" glyph-name="dollar" horiz-adv-x="1077" d="M743 1434L840 1415L805 1278Q938 1251 1019 1176T1100 1020Q1100 955 1065 912T977 868Q931 868 906 894T881 958Q881 999 905 1031T965 1077Q942 1118 894 1148T784 1192L666 715Q816 641 884
569T952 389Q952 316 923 247T839 123T700 34T510 0H487L444 -174L348 -158L389 10Q245 38 149 116T53 289Q53 353 90 398T186 444Q231 444 260 415T289 344Q289 301 262 265T197 215Q216 180 275 146T412 96L535 588Q384 661 314 730T244 905Q244 1062 371 1175T692
1288H707L743 1434ZM803 330Q803 395 759 444T625 543L510 86H518Q646 86 724 156T803 330ZM401 961Q401 899 444 853T575 760L686 1202Q598 1201 531 1164T433 1073T401 961Z" />
<glyph unicode="%" glyph-name="percent" horiz-adv-x="1576" d="M362 547Q246 547 181 615T115 801Q115 918 175 1027T331 1202T530 1268Q661 1268 717 1176Q803 1135 920 1135Q1031 1135 1146 1178T1362 1305L1421 1251L287 -53L203 8L1212 1128L1206 1135Q1150
1100 1062 1075T897 1049Q816 1049 748 1065Q748 1061 749 1054T750 1042Q750 969 721 884T642 723T518 597T362 547ZM1133 -29Q1016 -29 951 39T885 227Q885 344 945 453T1101 628T1300 694Q1400 694 1460 636T1520 469Q1520 395 1491 309T1412 147T1288 21T1133
-29ZM1145 59Q1212 59 1278 123T1384 283T1425 465Q1425 529 1396 564T1313 600Q1243 600 1176 536T1070 378T1030 201Q1030 129 1061 94T1145 59ZM377 633Q443 633 508 697T614 857T655 1040Q655 1072 645 1104Q586 1134 543 1176Q473 1175 407 1110T301 952T262
776Q262 633 377 633Z" />
<glyph unicode="&amp;" glyph-name="ampersand" horiz-adv-x="1376" d="M1214 784Q1275 784 1309 751T1343 666Q1343 606 1311 562T1233 518Q1176 518 1155 565T1163 670Q1127 654 1089 613T1025 534T955 423T885 313Q934 190 966 140T1034 90Q1069 90 1104 125T1190
266L1260 233Q1198 84 1135 28T997 -29Q915 -29 867 17T768 184Q675 77 586 22T383 -33Q234 -33 142 50T49 266Q49 561 481 694Q429 770 408 827T387 948Q387 1099 490 1188T733 1278Q856 1278 935 1209T1014 1028Q1014 803 684 682Q800 508 846 397Q868 430 902
485T958 575T1014 654T1074 723T1139 766T1214 784ZM424 92Q516 92 587 135T729 262Q690 367 644 448T526 631Q229 521 229 293Q229 200 282 146T424 92ZM541 993Q541 946 561 891T641 743Q768 798 820 873T872 1028Q872 1097 832 1142T717 1188Q644 1188 593 1136T541
993Z" />
<glyph unicode="&apos;" glyph-name="quotesingle" horiz-adv-x="458" d="M270 844L221 870L367 1163Q414 1260 445 1301T514 1343Q551 1343 578 1320T606 1264Q606 1255 604 1246T596 1225T585 1204T569 1180T550 1155T526 1127T500 1097T470 1064T438 1028L270 844Z" />
<glyph unicode="(" glyph-name="parenleft" horiz-adv-x="739" d="M508 -322Q147 -51 147 381Q147 556 200 724T352 1038T605 1301T950 1483L981 1403Q818 1335 688 1219T477 962T354 668T311 362Q311 -18 573 -252L508 -322Z" />
<glyph unicode=")" glyph-name="parenright" horiz-adv-x="739" d="M293 1483Q653 1213 653 780Q653 605 601 437T449 123T195 -139T-150 -322L-180 -242Q-17 -174 113 -58T323 199T446 493T489 799Q489 1180 227 1413L293 1483Z" />
<glyph unicode="*" glyph-name="asterisk" horiz-adv-x="835" d="M657 805Q649 827 643 869T632 965T623 1040L598 1044Q589 1032 556 984T497 903T455 856Q396 802 348 856Q303 911 367 963Q383 976 419 994T509 1037T578 1069L575 1094Q557 1100 503 1114T410
1142T352 1167Q286 1215 319 1272Q358 1335 428 1286Q445 1274 473 1246T540 1175T590 1120L614 1128Q615 1153 614 1206T613 1301T618 1364Q629 1406 650 1420T709 1425Q775 1407 752 1329Q747 1309 729 1273T682 1187T645 1122L662 1102Q675 1106 731 1126T826
1158T887 1171Q967 1178 973 1108Q975 1072 957 1054T895 1032Q874 1031 832 1038T738 1057T664 1071L649 1049Q654 1042 693 992T755 910T786 856Q817 782 752 756Q689 727 657 805Z" />
<glyph unicode="+" glyph-name="plus" horiz-adv-x="1073" d="M406 137L500 518H127L152 618H524L618 999H727L633 618H1004L979 518H606L512 137H406Z" />
<glyph unicode="," glyph-name="comma" horiz-adv-x="438" d="M-98 -279L-119 -211Q95 -135 137 -10L131 -4Q118 -14 96 -14Q60 -14 36 10T12 78Q12 126 45 166T131 207Q188 207 219 168T250 70Q250 -33 166 -128T-98 -279Z" />
<glyph unicode="-" glyph-name="hyphen" horiz-adv-x="745" d="M106 430L139 563H659L625 430H106Z" />
<glyph unicode="." glyph-name="period" horiz-adv-x="438" d="M125 -31Q81 -31 52 0T23 82Q23 131 55 171T137 211Q183 211 212 180T242 98Q242 49 209 9T125 -31Z" />
<glyph unicode="/" glyph-name="slash" horiz-adv-x="856" d="M-285 -389L948 1458L1047 1409L-186 -438L-285 -389Z" />
<glyph unicode="0" glyph-name="zero" horiz-adv-x="1130" d="M498 -33Q319 -33 218 99T117 463Q117 682 195 878T412 1196T713 1317Q891 1317 991 1185T1092 821Q1092 658 1046 503T921 229T731 39T498 -33ZM711 1217Q633 1217 564 1162T446 1019T363 823T311
609T293 412Q292 233 344 151T500 68Q578 68 647 123T764 266T847 462T900 676T918 874Q918 1053 866 1135T711 1217Z" />
<glyph unicode="1" glyph-name="one" horiz-adv-x="913" d="M-2 0L23 106H319L559 1067Q486 1034 371 1034Q296 1034 248 1051L270 1137Q392 1135 503 1178T678 1300H784L487 106H776L756 0H-2Z" />
<glyph unicode="2" glyph-name="two" horiz-adv-x="1110" d="M408 1108Q479 1069 479 987Q479 939 448 902T360 862Q305 862 271 899T236 999Q236 1056 268 1113T357 1215T497 1288T674 1317Q857 1317 966 1221T1075 975Q1075 888 1042 817T947 695T814 608T651
541Q547 505 469 467T344 396T264 326T216 260T186 195L190 190Q279 238 365 238Q415 238 465 221T548 182T622 143T694 125Q765 125 820 189T934 410L1008 395Q955 167 869 68T659 -31Q611 -31 567 -13T491 30T428 81T363 125T295 143Q258 143 227 131Q242 108
242 78Q242 28 216 -1T147 -31Q100 -31 73 7T45 111Q45 252 174 379T530 606Q723 694 815 783T907 993Q907 1100 838 1158T657 1217Q571 1217 507 1187T408 1108Z" />
<glyph unicode="3" glyph-name="three" horiz-adv-x="1048" d="M199 180Q220 137 285 103T444 68Q584 68 667 160T750 385Q750 487 678 548T451 610H414L438 711H481Q686 711 780 807Q864 887 864 1020Q864 1115 806 1167T641 1219Q570 1219 512 1197T424 1141Q473
1101 473 1040Q473 990 441 954T358 918Q308 918 278 949T248 1032Q248 1109 307 1175T461 1279T659 1317Q840 1317 940 1231T1040 1018Q1040 874 935 778T645 657V653Q783 625 854 549T926 367Q926 202 793 85T461 -33Q287 -33 165 52T43 264Q43 330 82 376T178
422Q227 422 257 391T287 315Q287 223 199 180Z" />
<glyph unicode="4" glyph-name="four" horiz-adv-x="1122" d="M664 477L825 1122H819L199 477H664ZM733 104H934L907 0H340L367 104H569L635 369H35L61 479L862 1307H1034L825 477H1090L1065 369H799L733 104Z" />
<glyph unicode="5" glyph-name="five" horiz-adv-x="1042" d="M455 1124L338 743Q444 805 582 805Q747 805 843 717T940 479Q940 406 920 334T857 196T755 79T612 -2T432 -33Q274 -33 163 53T51 260Q51 336 93 388T195 440Q244 440 273 409T303 334Q303 283 271
247T188 199Q209 143 273 105T420 66Q505 66 572 103T680 203T742 338T764 489Q764 604 702 657T539 711Q396 711 279 621L203 655L397 1286L428 1307Q580 1233 760 1233Q918 1233 1069 1300L1094 1249Q943 1071 729 1071Q590 1071 455 1124Z" />
<glyph unicode="6" glyph-name="six" horiz-adv-x="1067" d="M506 68Q572 68 627 105T718 200T772 329T791 469Q791 579 731 643T571 707Q445 707 362 601T279 336Q279 217 338 143T506 68ZM1077 1083Q1077 1016 1038 968T940 920Q889 920 860 949T831 1022Q831
1062 854 1096T926 1149Q913 1179 870 1199T770 1219Q609 1219 494 1075T317 662Q374 730 454 769T625 809Q779 809 873 713T967 461Q967 373 936 286T848 128T703 12T512 -33Q329 -33 223 91T117 432Q117 562 146 690T232 930T366 1129T547 1266T766 1317Q903
1317 990 1250T1077 1083Z" />
<glyph unicode="7" glyph-name="seven" horiz-adv-x="1062" d="M440 92Q419 21 395 -8T332 -37Q294 -39 266 -11T238 61Q238 146 325 302T555 632T848 930Q995 1055 1042 1106L1036 1112Q935 1051 840 1051Q778 1051 720 1073T613 1117T526 1139Q457 1139 403
1071T287 821H186L301 1288H410L377 1128H383Q438 1217 490 1257T612 1298Q654 1298 691 1281T755 1240T808 1192T867 1150T936 1133Q981 1133 1014 1155Q1004 1181 1004 1212Q1004 1258 1031 1288T1102 1319Q1145 1319 1170 1291T1196 1227Q1196 1166 1150 1108T981
948Q786 783 658 584T440 92Z" />
<glyph unicode="8" glyph-name="eight" horiz-adv-x="1073" d="M1057 1006Q1057 886 979 796T758 662Q857 604 909 534T961 365Q961 198 829 83T494 -33Q303 -33 190 63T76 303Q76 422 160 518T416 657Q246 773 246 938Q246 1010 276 1077T361 1198T498 1284T678
1317Q848 1317 952 1229T1057 1006ZM512 602Q500 606 494 610Q367 576 297 496T227 305Q227 203 300 135T504 66Q636 66 716 138T797 322Q797 407 730 468T512 602ZM408 985Q408 900 476 834T676 705Q794 748 854 827T915 1004Q915 1100 851 1160T674 1221Q558
1221 483 1152T408 985Z" />
<glyph unicode="9" glyph-name="nine" horiz-adv-x="1069" d="M649 1217Q560 1217 493 1156T393 1003T360 807Q360 691 419 626T578 561Q704 561 789 669T874 940Q874 1065 815 1141T649 1217ZM61 215Q61 280 100 327T199 375Q248 375 277 345T307 272Q307 231
284 197T211 143Q264 68 389 68Q551 68 663 206T834 606Q775 538 696 500T526 461Q371 461 278 559T184 817Q184 908 216 996T305 1157T450 1273T641 1317Q824 1317 930 1193T1036 852Q1036 720 1009 592T927 351T797 153T619 17T399 -33Q244 -33 153 40T61 215Z"
/>
<glyph unicode=":" glyph-name="colon" horiz-adv-x="446" d="M129 -31Q85 -31 56 0T27 82Q27 131 59 171T141 211Q187 211 216 180T246 98Q246 49 213 9T129 -31ZM285 571Q241 571 212 602T182 684Q182 733 214 773T297 813Q342 813 371 782T401 700Q401 651
369 611T285 571Z" />
<glyph unicode=";" glyph-name="semicolon" horiz-adv-x="446" d="M-94 -279L-115 -211Q99 -135 141 -10L135 -4Q122 -14 100 -14Q64 -14 40 10T16 78Q16 126 49 166T135 207Q192 207 223 168T254 70Q254 -33 170 -128T-94 -279ZM285 571Q241 571 212 602T182
684Q182 733 214 773T297 813Q342 813 371 782T401 700Q401 651 369 611T285 571Z" />
<glyph unicode="&lt;" glyph-name="less" horiz-adv-x="1071" d="M807 156L174 530L197 621L999 987L1001 883L299 565L842 256L807 156Z" />
<glyph unicode="=" glyph-name="equal" horiz-adv-x="1077" d="M178 705L203 805H1044L1020 705H178ZM86 334L111 432H952L928 334H86Z" />
<glyph unicode="&gt;" glyph-name="greater" horiz-adv-x="1071" d="M307 987L940 610L920 522L115 156L111 256L815 571L272 883L307 987Z" />
<glyph unicode="?" glyph-name="question" horiz-adv-x="858" d="M696 520Q589 362 430 362Q340 362 283 413T225 549Q225 636 290 697T500 829Q565 861 604 882T683 932T744 986T778 1046T791 1122Q791 1196 741 1247T582 1298Q460 1298 391 1233Q438 1192 438
1135Q438 1081 406 1044T322 1006Q275 1006 243 1039T211 1124Q211 1228 321 1308T594 1389Q686 1389 758 1364T874 1296T940 1202T963 1094Q963 1039 945 992T898 910T819 841T722 781T602 723Q547 698 519 685T456 652T407 616T380 580T369 535Q370 497 395 475T459
453Q506 453 547 477T639 561L696 520ZM317 -31Q272 -31 243 0T213 82Q213 131 246 171T330 211Q375 211 404 180T434 98Q434 49 401 9T317 -31Z" />
<glyph unicode="@" glyph-name="at" horiz-adv-x="1835" d="M1298 -102L1331 -170Q1114 -299 846 -299Q688 -299 554 -251T321 -114T168 107T113 401Q113 603 191 787T400 1102T709 1311T1081 1389Q1223 1389 1345 1346T1558 1224T1699 1028T1751 768Q1751 632
1713 510T1611 302T1460 166T1276 115Q1167 115 1111 176T1069 346L1059 348Q997 249 924 197T774 145Q669 145 601 220T532 428Q532 561 596 686T766 890T987 969Q1060 969 1113 926T1180 801L1229 958H1362L1202 449Q1163 312 1189 256T1303 199Q1365 199 1427
239T1541 351T1624 530T1657 764Q1657 1014 1496 1161T1073 1309Q898 1309 737 1236T461 1039T276 749T207 401Q207 121 384 -48T856 -217Q1091 -217 1298 -102ZM811 246Q895 246 970 326T1085 512T1126 705Q1126 781 1095 834T991 887Q926 887 867 841T769 725T706
572T682 414Q682 334 715 290T811 246Z" />
<glyph unicode="A" glyph-name="A" horiz-adv-x="1359" d="M733 106H944L903 481H422L199 106H379L352 0H-111L-84 106H59L825 1346H975L1118 106H1290L1266 0H707L733 106ZM479 578H893L834 1159H827L479 578Z" />
<glyph unicode="B" glyph-name="B" horiz-adv-x="1265" d="M-45 0L-20 106H205L483 1231H256L283 1335H827Q951 1335 1041 1312T1179 1248T1250 1160T1272 1055Q1272 1013 1262 972T1222 884T1147 802T1026 738T852 702V694Q1014 664 1094 590T1174 406Q1174 255
1075 158Q919 0 526 0H-45ZM539 752H719Q893 752 990 838T1087 1053Q1087 1140 1027 1185T827 1231H657L539 752ZM379 106H551Q674 106 762 131T899 203T969 305T991 430Q991 532 911 592T674 653H516L379 106Z" />
<glyph unicode="C" glyph-name="C" horiz-adv-x="1349" d="M659 -31Q530 -31 430 11T267 129T173 301T141 512Q141 677 199 833T356 1107T593 1296T883 1368Q1131 1368 1247 1202L1325 1362H1434L1311 862H1217Q1206 1073 1118 1165T877 1257Q773 1257 682 1211T527
1090T417 917T348 715T326 510Q326 307 420 196T682 84Q769 84 843 117T976 214T1078 348T1165 514L1264 473Q1062 -31 659 -31Z" />
<glyph unicode="D" glyph-name="D" horiz-adv-x="1413" d="M-45 0L-20 106H205L483 1231H258L283 1335H791Q1090 1335 1245 1196T1401 825Q1401 669 1337 513T1155 242Q915 0 477 0H-45ZM377 106H475Q647 106 770 145T983 272Q1088 377 1149 538T1210 862Q1210
1231 776 1231H657L377 106Z" />
<glyph unicode="E" glyph-name="E" horiz-adv-x="1320" d="M283 1335H1403L1300 918H1219Q1222 994 1223 1037T1220 1120T1208 1178T1183 1210T1143 1227T1085 1231H657L535 733H711Q761 733 787 738T839 767T883 827T932 938H1016L889 428H807Q813 481 815 511T815
568T806 607T785 628T750 639T698 641H512L379 106H801Q841 106 868 110T922 131T967 168T1011 234T1058 327T1118 459H1202L1090 0H-45L-20 106H205L483 1231H256L283 1335Z" />
<glyph unicode="F" glyph-name="F" horiz-adv-x="1273" d="M528 709H690Q784 709 822 745T913 918H997L868 395H784Q791 450 794 482T795 542T787 582T765 603T729 614T676 616H506L379 106H627L602 0H-45L-20 106H205L483 1231H256L283 1335H1405L1296 909H1217Q1221
971 1219 1018T1215 1099T1204 1157T1186 1195T1159 1218T1121 1228T1071 1231H657L528 709Z" />
<glyph unicode="G" glyph-name="G" horiz-adv-x="1427" d="M651 84Q801 84 907 197T1061 494L1075 551H823L852 657H1458L1432 551H1247L1104 -14H1006L1001 174Q847 -33 614 -33Q501 -33 410 10T261 129T172 302T141 512Q141 678 199 834T355 1108T591 1297T883
1368Q1131 1368 1247 1202L1325 1362H1434L1311 862H1217Q1206 1073 1118 1165T877 1257Q772 1257 682 1212T527 1090T417 916T348 712T326 500Q326 298 414 191T651 84Z" />
<glyph unicode="H" glyph-name="H" horiz-adv-x="1558" d="M-45 0L-20 106H205L483 1231H256L283 1335H877L850 1231H657L537 739H1161L1282 1231H1085L1112 1335H1706L1679 1231H1456L1178 106H1405L1380 0H786L811 106H1004L1139 643H514L379 106H573L549 0H-45Z" />
<glyph unicode="I" glyph-name="I" horiz-adv-x="786" d="M-31 0L-6 106H219L498 1231H270L295 1335H922L895 1231H672L391 106H621L596 0H-31Z" />
<glyph unicode="J" glyph-name="J" horiz-adv-x="1077" d="M1028 1231L809 350Q764 167 652 67T365 -33Q202 -33 107 51T12 248Q12 327 57 382T176 438Q231 438 262 404T293 322Q293 271 260 234T164 182Q178 133 234 102T365 70Q474 70 538 143T641 371L854 1231H635L662
1335H1255L1231 1231H1028Z" />
<glyph unicode="K" glyph-name="K" horiz-adv-x="1441" d="M1413 1231L846 772L1163 106H1339L1315 0H754L780 106H967L713 666L467 465L379 106H573L549 0H-45L-20 106H205L483 1231H256L283 1335H877L850 1231H657L506 616L1243 1231H1063L1090 1335H1602L1577
1231H1413Z" />
<glyph unicode="L" glyph-name="L" horiz-adv-x="1212" d="M283 1335H893L868 1231H657L379 106H743Q773 106 795 108T840 121T877 141T911 176T942 221T976 285T1012 363T1055 463H1141L1024 0H-45L-20 106H205L483 1231H256L283 1335Z" />
<glyph unicode="M" glyph-name="M" horiz-adv-x="1869" d="M-39 0L-14 106H195L475 1231H262L287 1335H768L879 289H885L1520 1335H2015L1989 1231H1769L1491 106H1714L1690 0H1120L1145 106H1317L1595 1223H1579L821 -2H748L604 1223H592L313 106H502L477 0H-39Z" />
<glyph unicode="N" glyph-name="N" horiz-adv-x="1538" d="M1069 -33L580 1130H569L313 106H512L487 0H-39L-14 106H195L473 1231H262L287 1335H676L1120 293H1130L1362 1231H1161L1188 1335H1710L1683 1231H1483L1167 -33H1069Z" />
<glyph unicode="O" glyph-name="O" horiz-adv-x="1425" d="M143 539Q143 696 199 846T349 1111T578 1296T862 1366Q1097 1366 1243 1209T1389 797Q1389 640 1334 489T1184 223T954 38T670 -33Q436 -33 290 125T143 539ZM854 1260Q748 1260 658 1208T508 1075T406
890T345 686T326 494Q326 284 421 180T678 76Q784 76 874 127T1024 260T1126 444T1187 647T1206 840Q1206 1051 1111 1155T854 1260Z" />
<glyph unicode="P" glyph-name="P" horiz-adv-x="1224" d="M489 553L379 106H627L602 0H-45L-20 106H205L483 1231H256L283 1335H821Q946 1335 1038 1310T1184 1240T1262 1138T1288 1014Q1288 919 1250 837T1138 691T942 590T664 553H489ZM514 653H684Q790 653
871 682T1000 762T1072 878T1096 1020Q1096 1120 1030 1175T801 1231H657L514 653Z" />
<glyph unicode="Q" glyph-name="Q" horiz-adv-x="1425" d="M670 -33Q436 -33 290 125T143 539Q143 696 199 846T349 1111T578 1296T862 1366Q1097 1366 1243 1209T1389 797Q1389 577 1287 380T1014 72Q1043 -9 1071 -44T1149 -80Q1202 -80 1238 -38T1321 109L1407
78Q1306 -217 1124 -217Q1028 -217 974 -161T883 4Q769 -33 670 -33ZM393 227Q401 338 471 409T657 481Q726 481 780 459T870 393T929 305T973 197Q1083 310 1144 492T1206 840Q1206 1051 1111 1155T854 1260Q748 1260 658 1208T508 1075T406 890T345 686T326 494Q326
317 393 227ZM690 72Q779 72 852 109Q816 239 768 307T633 375Q569 375 526 331T483 223Q483 160 538 116T690 72Z" />
<glyph unicode="R" glyph-name="R" horiz-adv-x="1366" d="M-45 0L-20 106H205L483 1231H256L283 1335H885Q1007 1335 1094 1310T1227 1241T1294 1147T1315 1036Q1315 967 1292 905T1222 790T1094 699T907 651L903 641Q1019 610 1063 556T1108 410Q1108 371 1096
288T1083 172Q1083 126 1104 106T1169 86Q1225 86 1296 119L1323 53Q1212 -23 1087 -23Q1001 -23 950 21T899 152Q899 199 919 310T940 473Q940 537 897 568T741 600H502L379 106H602L578 0H-45ZM524 698H739Q939 698 1032 793Q1076 835 1101 905T1126 1047Q1126
1231 874 1231H657L524 698Z" />
<glyph unicode="S" glyph-name="S" horiz-adv-x="1148" d="M-8 -27L109 451H199Q236 252 338 159T590 66Q715 66 797 140T879 322Q879 361 864 395T827 454T763 506T685 553T588 600Q536 625 503 642T426 687T355 740T302 801T264 876T252 965Q252 1043 285 1116T376
1244T519 1332T700 1366Q812 1366 904 1322T1049 1208L1130 1360H1231L1118 907H1030Q1011 1012 979 1085T901 1197T804 1253T688 1270Q578 1270 500 1199T422 1024Q422 1001 427 980T439 942T461 907T487 877T523 849T560 824T605 799T650 777T700 752Q748 730
778 715T850 677T916 633T970 585T1014 527T1040 461T1051 381Q1051 209 914 88T580 -33Q454 -33 353 12T184 143L92 -27H-8Z" />
<glyph unicode="T" glyph-name="T" horiz-adv-x="1343" d="M236 0L262 106H494L776 1239H606Q567 1239 540 1235T486 1212T440 1173T392 1104T340 1008T274 872H193L309 1335H1464L1348 872H1272Q1274 986 1274 1057T1258 1169T1211 1224T1120 1239H950L666 106H901L877
0H236Z" />
<glyph unicode="U" glyph-name="U" horiz-adv-x="1478" d="M688 -33Q467 -33 347 65T227 319Q227 393 254 510L432 1231H236L262 1335H831L807 1231H606L434 537Q403 412 403 330Q403 212 485 149T717 86Q886 86 991 190Q1080 279 1124 451L1317 1231H1114L1139
1335H1649L1622 1231H1438L1231 401Q1186 224 1077 115Q934 -33 688 -33Z" />
<glyph unicode="V" glyph-name="V" horiz-adv-x="1361" d="M520 1231L639 193H645L1274 1231H1094L1120 1335H1581L1556 1231H1413L637 -8H502L346 1231H172L199 1335H756L731 1231H520Z" />
<glyph unicode="W" glyph-name="W" horiz-adv-x="1964" d="M1163 -8L1110 938L569 -8H428L340 1231H172L199 1335H750L723 1231H514L571 207H578L1100 1122L1094 1231H924L950 1335H1503L1477 1231H1262L1309 207H1315L1878 1231H1698L1724 1335H2183L2157 1231H2015L1305
-8H1163Z" />
<glyph unicode="X" glyph-name="X" horiz-adv-x="1343" d="M784 1231H596L770 780L1186 1231H1008L1032 1335H1520L1493 1231H1335L823 686L1061 106H1239L1212 0H662L688 106H879L690 586L244 106H420L393 0H-90L-66 106H94L639 682L412 1231H233L260 1335H811L784
1231Z" />
<glyph unicode="Y" glyph-name="Y" horiz-adv-x="1306" d="M745 670L1198 1231H1032L1057 1335H1509L1485 1231H1331L766 551L651 106H862L836 0H250L274 106H477L598 578L401 1231H236L262 1335H801L774 1231H588L745 670Z" />
<glyph unicode="Z" glyph-name="Z" horiz-adv-x="1200" d="M-35 0L-16 76L1075 1231H608Q558 1231 532 1224T470 1178T399 1075T303 879H227L340 1335H1331L1313 1262L227 106H735Q774 106 798 113T848 138T900 201T959 306T1040 473H1116L999 0H-35Z" />
<glyph unicode="[" glyph-name="bracketleft" horiz-adv-x="692" d="M-8 -311L436 1475H946L922 1374H571L176 -211H526L502 -311H-8Z" />
<glyph unicode="\" glyph-name="backslash" horiz-adv-x="856" d="M721 -406L616 -424L287 1421L393 1440L721 -406Z" />
<glyph unicode="]" glyph-name="bracketright" horiz-adv-x="692" d="M760 1473L315 -313H-195L-170 -213H180L575 1372H225L250 1473H760Z" />
<glyph unicode="^" glyph-name="asciicircum" horiz-adv-x="681" d="M205 1049L543 1452H625L764 1049H686L555 1286L293 1049H205Z" />
<glyph unicode="_" glyph-name="underscore" horiz-adv-x="901" d="M-113 0L-86 111H823L797 0H-113Z" />
<glyph unicode="`" glyph-name="grave" horiz-adv-x="487" d="M473 1313L510 1079H438L356 1245Q331 1296 323 1314T306 1358T297 1403Q297 1436 318 1458T371 1481Q419 1481 439 1441T473 1313Z" />
<glyph unicode="a" glyph-name="a" horiz-adv-x="1064" d="M952 926L791 332Q760 219 760 164Q760 102 809 102Q848 102 884 158T965 330L1034 307Q973 126 908 54T766 -18Q704 -18 665 24T625 147Q625 169 629 199L614 205Q551 97 474 40T311 -18Q203 -18 136
66T68 291Q68 437 123 569T268 793Q413 938 561 938Q637 938 686 892T752 760L797 926H952ZM369 100Q453 100 534 197T662 420T709 643Q709 725 674 785T567 846Q500 846 436 792T328 656T256 479T229 303Q229 205 266 153T369 100Z" />
<glyph unicode="b" glyph-name="b" horiz-adv-x="972" d="M612 823Q526 823 442 730T309 511T260 283Q260 188 297 133T414 78Q484 78 548 135T654 276T720 455T745 627Q745 723 711 773T612 823ZM541 1407L344 719L358 713Q423 821 501 879T662 938Q773 938 841
851T909 623Q909 497 863 377T743 172T576 34T391 -18Q258 -18 180 61T102 276Q102 384 160 590L356 1296H166L195 1407H541Z" />
<glyph unicode="c" glyph-name="c" horiz-adv-x="886" d="M588 938Q698 938 772 881T846 735Q846 679 816 636T735 592Q695 592 668 617T641 682Q641 751 709 807Q666 856 584 856Q504 856 435 804T321 672T252 507T227 346Q227 218 282 151T426 84Q579 84 700
299L766 260Q696 127 607 55T395 -18Q246 -18 155 84T63 348Q63 492 135 628T330 851T588 938Z" />
<glyph unicode="d" glyph-name="d" horiz-adv-x="1064" d="M369 100Q433 100 498 159T609 303T684 485T713 657Q713 744 678 795T567 846Q496 846 431 792T323 655T255 478T229 303Q229 205 266 153T369 100ZM965 330L1034 307Q973 126 908 54T766 -18Q704 -18
665 24T625 147Q625 169 629 199L614 205Q551 97 474 40T311 -18Q203 -18 136 66T68 291Q68 438 122 570T266 793Q411 938 561 938Q636 938 687 897T756 776L897 1296H705L733 1407H1081L791 332Q760 219 760 164Q760 102 809 102Q848 102 884 158T965 330Z" />
<glyph unicode="e" glyph-name="e" horiz-adv-x="890" d="M848 750Q848 609 693 510T231 377Q227 356 227 317Q227 198 279 138T420 78Q581 78 723 285L786 244Q704 119 607 51T377 -18Q237 -18 150 75T63 326Q63 440 112 553T240 750T419 886T621 938Q728 938
788 885T848 750ZM590 856Q531 856 474 820T374 726T297 597T246 453Q700 514 700 745Q700 795 671 825T590 856Z" />
<glyph unicode="f" glyph-name="f" horiz-adv-x="661" d="M-49 -334Q-117 -334 -152 -302T-188 -221Q-188 -175 -159 -141T-84 -106Q-45 -106 -24 -130T-2 -186Q-2 -235 -29 -264Q8 -264 32 -239T81 -136T139 96L291 815H90L115 905H309Q361 1160 472 1287T733
1417Q830 1418 884 1374T938 1266Q938 1206 905 1163T823 1120Q784 1120 761 1144T737 1210Q737 1277 786 1321Q767 1337 727 1337Q628 1337 575 1250T481 975L465 905H725L700 815H446L307 154Q205 -334 -49 -334Z" />
<glyph unicode="g" glyph-name="g" horiz-adv-x="985" d="M135 -217Q178 -248 272 -248Q391 -248 471 -168Q563 -71 621 188L606 195Q489 43 334 43Q217 43 146 127T74 340Q74 470 125 594T266 809Q392 938 543 938Q621 938 677 893T754 764L795 926H950L772 182Q711
-84 590 -209T272 -334Q220 -334 172 -326T78 -298T5 -243T-23 -158Q-23 -106 9 -66T92 -25Q135 -25 159 -51T184 -117Q184 -145 171 -173T135 -217ZM395 154Q479 154 554 227T672 413T715 643Q715 726 669 786T551 846Q465 846 391 766T277 574T238 358Q238 257
278 206T395 154Z" />
<glyph unicode="h" glyph-name="h" horiz-adv-x="1079" d="M772 -18Q706 -18 665 29T625 162Q625 226 647 307T697 453T747 595T770 727Q770 811 698 811Q662 811 618 785T521 696T415 543T307 312T205 0H39L383 1296H190L219 1407H567L317 518L330 512Q429 715
542 826T760 938Q835 938 882 882T930 733Q930 660 892 545T815 322T776 154Q776 102 817 102Q886 102 971 330L1040 307Q980 128 914 55T772 -18Z" />
<glyph unicode="i" glyph-name="i" horiz-adv-x="651" d="M600 1247Q600 1195 564 1151T471 1106Q432 1106 406 1132T379 1204Q379 1258 414 1303T504 1348Q547 1348 573 1321T600 1247ZM492 741Q492 684 465 597T406 436T346 281T319 156Q319 133 331 118T367
102Q404 102 442 158T524 330L594 307Q533 129 466 56T319 -18Q249 -18 207 28T166 158Q167 222 195 312T256 478T316 637T344 776Q344 834 305 834Q261 834 218 776T115 602L45 633Q115 783 184 860T338 938Q408 938 450 886T492 741Z" />
<glyph unicode="j" glyph-name="j" horiz-adv-x="569" d="M600 1247Q600 1196 563 1151T471 1106Q432 1106 406 1132T379 1204Q379 1258 414 1303T504 1348Q547 1348 573 1321T600 1247ZM489 760Q489 698 463 592L338 121Q218 -334 -29 -334Q-105 -334 -141 -302T-178
-221Q-178 -174 -149 -140T-74 -106Q-33 -106 -13 -129T8 -186Q8 -232 -18 -268Q8 -268 27 -258T69 -216T116 -115T168 63L319 641Q342 724 342 772Q342 834 301 834T216 774T115 602L45 633Q115 784 184 861T340 938Q406 938 447 889T489 760Z" />
<glyph unicode="k" glyph-name="k" horiz-adv-x="995" d="M672 170Q672 102 717 102Q786 102 868 330L938 307Q879 127 814 55T674 -18Q608 -18 565 31T522 172Q522 205 531 272T541 358Q541 418 505 441T362 465H315L190 0H39L383 1296H190L219 1407H567L334
535H362Q437 535 488 579T606 733Q668 840 720 889T848 938Q910 938 942 906T975 817T944 720T866 680Q814 680 792 724T797 825Q765 822 736 788T664 682Q622 611 585 573T500 512Q688 499 688 348Q688 315 680 255T672 170Z" />
<glyph unicode="l" glyph-name="l" horiz-adv-x="548" d="M80 156Q80 226 131 416L371 1296H178L207 1407H555L264 332Q233 214 233 164Q233 138 245 120T281 102Q323 102 359 158T438 330L508 307Q447 125 382 54T238 -18Q163 -18 122 28T80 156Z" />
<glyph unicode="m" glyph-name="m" horiz-adv-x="1683" d="M1376 -18Q1310 -18 1269 29T1229 162Q1229 226 1251 307T1301 453T1351 595T1374 727Q1374 811 1303 811Q1266 811 1224 785T1132 696T1031 543T928 312T827 0H664L754 334Q762 364 780 429T805 522T822
591T836 660T840 709Q840 811 762 811Q725 811 684 785T592 696T492 543T389 312T289 0H123L295 645Q316 720 318 763T310 820T279 834Q240 834 200 777T102 602L33 633Q100 783 166 858T313 934Q375 934 408 891T442 766Q442 663 397 526L412 520Q511 725 615
831T823 938Q899 938 942 888T985 750Q985 661 936 526L950 520Q1048 725 1154 831T1364 938Q1439 938 1486 882T1534 733Q1534 660 1496 545T1419 322T1380 154Q1380 102 1421 102Q1490 102 1575 330L1645 307Q1582 127 1516 55T1376 -18Z" />
<glyph unicode="n" glyph-name="n" horiz-adv-x="1144" d="M840 154Q840 102 883 102Q952 102 1034 330L1106 307Q1044 127 978 55T838 -18Q772 -18 730 29T688 162Q689 242 725 348T798 556T834 727Q834 764 817 787T762 811T684 785T592 696T492 543T389 312T289
0H123L295 645Q316 720 318 763T310 820T279 834Q240 834 200 777T102 602L33 633Q100 783 166 858T313 934Q375 934 408 891T442 766Q442 663 397 526L412 520Q511 725 615 831T823 938Q900 938 946 882T993 733Q993 675 969 590T917 432T864 281T840 154Z" />
<glyph unicode="o" glyph-name="o" horiz-adv-x="968" d="M561 938Q719 938 810 833T901 559Q901 408 834 275T653 62T410 -18Q251 -18 161 87T70 360Q70 473 110 579T216 764T373 890T561 938ZM739 627Q739 742 691 799T561 856Q486 856 422 801T316 660T252
478T229 295Q229 180 278 123T408 66Q482 66 546 121T652 262T716 443T739 627Z" />
<glyph unicode="p" glyph-name="p" horiz-adv-x="1071" d="M709 823Q623 823 539 727T405 505T356 281Q356 199 397 145T518 90Q587 90 650 145T753 283T818 458T842 629Q842 725 808 774T709 823ZM293 637Q342 815 272 815Q233 815 198 769T102 602L33 633Q102
791 169 862T315 934Q378 934 411 891T444 774Q444 743 440 719L455 713Q520 821 598 879T758 938Q869 938 937 853T1006 625Q1006 464 937 318T758 85T532 -2Q456 -2 396 36T315 141L223 -201H428L397 -307H-111L-82 -201H70L293 637Z" />
<glyph unicode="q" glyph-name="q" horiz-adv-x="980" d="M956 926L653 -201H836L807 -307H299L328 -201H500L608 188L594 195Q537 104 465 52T313 0Q202 0 135 86T68 315Q68 452 121 577T264 793Q331 860 410 899T563 938Q640 938 692 894T758 768L801 926H956ZM365
115Q429 115 495 171T608 309T685 485T715 651Q715 739 678 792T567 846Q474 846 394 754T271 541T229 313Q229 217 264 166T365 115Z" />
<glyph unicode="r" glyph-name="r" horiz-adv-x="866" d="M123 0L295 645Q316 720 318 763T310 820T279 834Q240 834 200 777T102 602L33 633Q100 783 166 858T313 934Q375 934 408 891T442 766Q442 663 397 526L414 520Q516 734 595 836T762 938Q813 938 846
905T879 819Q879 759 846 717T766 674Q724 674 700 705T680 791Q605 756 493 548T289 0H123Z" />
<glyph unicode="s" glyph-name="s" horiz-adv-x="847" d="M723 281Q723 187 674 118T546 15T375 -18Q294 -18 219 5T89 80T35 199Q35 250 65 289T145 328Q185 328 209 302T233 236Q233 169 182 129Q209 99 262 80T375 61Q465 61 519 106T573 229Q573 285 532 321T379
408Q339 426 316 438T259 472T208 517T176 572T162 645Q162 715 191 772T270 864T379 919T504 938Q631 938 720 885T809 745Q809 695 782 658T707 621Q666 621 641 645T616 709Q616 738 631 765T668 809Q650 829 603 844T504 860Q417 860 364 817T311 700Q311 646
353 608T498 524Q541 505 570 490T630 453T680 408T711 353T723 281Z" />
<glyph unicode="t" glyph-name="t" horiz-adv-x="720" d="M719 815H440L307 332Q281 228 281 186Q281 145 301 126T356 106Q414 106 464 169T567 346L639 324Q510 -18 311 -18Q220 -18 171 30T121 160Q121 219 158 360L283 815H96L119 905H305L375 1161L539 1182L463
905H743L719 815Z" />
<glyph unicode="u" glyph-name="u" horiz-adv-x="1136" d="M848 -18Q782 -18 744 24T705 156Q705 251 750 391L735 397Q537 -18 328 -18Q251 -18 205 37T158 186Q158 244 181 330T232 489T283 642T307 766Q307 819 268 819Q233 819 199 771T104 604L35 635Q107
790 170 864T317 938Q382 938 422 891T461 758Q461 681 425 574T353 366T317 199Q317 111 389 111Q435 111 489 155T606 290T734 545T860 926H1026L868 332Q838 215 838 164Q838 102 887 102Q927 102 963 158T1042 330L1112 307Q1052 127 987 55T848 -18Z" />
<glyph unicode="v" glyph-name="v" horiz-adv-x="960" d="M322 938Q391 938 430 891T469 762Q469 685 429 575T349 364T309 213Q309 156 346 128T440 100Q517 100 589 162T709 318T787 518T819 717Q795 705 776 705Q731 705 705 732T678 807Q678 862 711 903T795
944Q915 944 915 756Q915 670 892 567T821 359T712 169T565 29T389 -25Q279 -25 215 36T150 193Q150 260 191 375T273 601T315 764T274 817Q236 817 202 769T109 602L39 635Q111 790 174 864T322 938Z" />
<glyph unicode="w" glyph-name="w" horiz-adv-x="1419" d="M326 938Q395 938 434 892T473 762Q472 697 445 614T386 463T328 321T301 197T323 124T385 100Q601 100 805 926H954L850 492Q811 337 811 244Q811 100 918 100Q1008 100 1090 202T1220 446T1272 715Q1242
705 1229 705Q1184 705 1159 732T1133 807Q1133 862 1165 903T1247 944Q1304 944 1336 898T1368 766Q1368 656 1332 521T1233 264T1076 58T874 -25Q770 -25 721 42T674 221Q674 273 680 315L666 319Q603 147 524 61T340 -25Q249 -25 194 32T139 184Q139 244 167
329T229 486T291 637T319 766Q319 817 276 817Q239 817 206 769T113 602L43 635Q115 790 178 864T326 938Z" />
<glyph unicode="x" glyph-name="x" horiz-adv-x="1054" d="M594 303Q594 94 696 94Q749 94 792 150T881 324L952 293Q844 -20 664 -20Q463 -20 469 297H457Q391 137 308 56T137 -25Q77 -25 44 9T10 98T39 192T113 231T180 196T195 96Q264 117 325 208T421 411T455
616Q455 823 352 823Q300 823 257 766T168 594L96 625Q206 938 385 938Q485 938 534 856T580 621H592Q658 780 741 861T911 942Q971 942 1005 908T1040 819Q1040 765 1010 726T936 686T869 721T854 821Q785 800 724 709T628 507T594 303Z" />
<glyph unicode="y" glyph-name="y" horiz-adv-x="1064" d="M319 938Q384 938 424 891T463 762Q463 701 443 627T399 494T354 371T334 260Q334 172 416 172Q455 172 496 193T588 268T686 405T782 622T870 926H1026L860 221Q790 -72 661 -203T336 -334Q287 -334
243 -326T159 -299T96 -247T72 -168Q72 -121 104 -81T186 -41Q231 -41 256 -68T279 -137Q273 -193 233 -223Q273 -248 340 -248Q480 -248 574 -124T729 279L745 356L733 362Q548 43 358 43Q275 43 225 97T174 244Q174 309 208 411T275 612T309 766Q309 817 272
817Q234 817 197 764T106 602L37 635Q108 788 172 863T319 938Z" />
<glyph unicode="z" glyph-name="z" horiz-adv-x="876" d="M207 231Q267 222 369 180T522 137Q596 137 636 182T739 369L811 338Q744 153 671 68T477 -18Q406 -18 346 18T225 129L172 195L154 190Q135 -18 35 -18Q2 -18 -21 2T-45 55Q-45 103 -5 145T111 215Q214
349 371 479T666 688Q606 698 505 740T354 782Q282 782 243 737T139 549L68 582Q102 674 132 734T201 844T288 915T399 938Q529 938 647 788L700 725L719 729Q739 938 838 938Q872 938 895 918T918 864Q918 816 879 774T762 705Q660 571 503 441T207 231Z" />
<glyph unicode="{" glyph-name="braceleft" horiz-adv-x="794" d="M592 -313Q418 -283 332 -215T246 -31Q246 34 272 122T324 288T350 408Q350 532 125 532H53L78 631H139Q312 631 395 713Q436 754 457 820T484 957T498 1100T532 1243T608 1364Q738 1494 1024
1477L999 1384Q819 1384 745 1311Q707 1273 686 1210T656 1076T637 935T601 797T532 686Q448 602 293 584L291 578Q391 559 442 510T494 385Q494 326 448 177T401 -33Q401 -100 448 -147T616 -219L592 -313Z" />
<glyph unicode="|" glyph-name="bar" horiz-adv-x="567" d="M10 -408L473 1440L582 1423L119 -422L10 -408Z" />
<glyph unicode="}" glyph-name="braceright" horiz-adv-x="794" d="M227 1477Q402 1447 487 1379T573 1194Q573 1129 547 1041T495 875T469 756Q469 631 694 631H766L741 532H680Q508 532 424 451Q383 409 362 343T335 206T321 63T287 -80T211 -201Q80 -332 -205
-313L-180 -221Q1 -221 74 -147Q112 -109 133 -46T163 88T182 228T218 366T287 477Q369 560 526 580L528 586Q428 604 377 653T326 778Q326 837 372 986T418 1196Q418 1263 371 1310T203 1382L227 1477Z" />
<glyph unicode="~" glyph-name="asciitilde" horiz-adv-x="759" d="M295 649Q261 649 235 618T174 516H92Q142 648 195 708T319 768Q353 768 384 756T438 725T481 688T523 658T563 645Q599 645 625 676T686 778H766Q716 645 663 586T537 526Q497 526 459 545T398
587T346 630T295 649Z" />
</font>
</defs>
</svg>
