<?xml version="1.0" standalone="no"?> <!DOCTYPE svg PUBLIC "-//W3C//DTD SVG 1.0//EN" "http://www.w3.org/TR/2001/REC-SVG-20010904/DTD/svg10.dtd" > <svg xmlns="http://www.w3.org/2000/svg" width="100%" height="100%">
<defs >
<font id="sentinelbook" horiz-adv-x="860" ><font-face
    font-family="Sentinel Book"
    units-per-em="2048"
    panose-1="0 0 0 0 0 0 0 0 0 0"
    ascent="1638"
    descent="-410"
    alphabetic="0" />
<missing-glyph horiz-adv-x="1024" d="M0 -410V1638H1024V-410H0ZM145 1536L512 737L879 1536H145ZM102 -156L455 614L102 1384V-156ZM922 1384L569 614L922 -156V1384ZM512 492L145 -307H879L512 492Z" />
<glyph unicode=" " glyph-name="space" horiz-adv-x="364" />
<glyph unicode="!" glyph-name="exclam" horiz-adv-x="544" d="M223 1389T272 1389T349 1358T377 1264Q377 1226 350 915Q319 619 307 381H240Q231 548 197 915Q168 1182 168 1264Q168 1326 195 1357ZM321 -31T272 -31T190 2T156 84Q156 133 189 167T272 201Q322
201 355 168T389 84Q389 36 355 3Z" />
<glyph unicode="&quot;" glyph-name="quotedbl" horiz-adv-x="774" d="M494 844L438 868L489 1067Q531 1241 551 1290Q577 1343 625 1343Q662 1343 689 1323T717 1268T702 1206Q658 1117 596 1014L494 844ZM174 844L119 868L170 1067Q213 1246 231 1290Q258 1343
305 1343Q342 1343 369 1323T397 1268Q397 1246 383 1206Q327 1096 276 1014L174 844Z" />
<glyph unicode="#" glyph-name="numbersign" horiz-adv-x="1357" d="M428 848H145V950H449L526 1346H647L569 950H907L987 1346H1108L1028 950H1294V848H1010L928 432H1210V328H907L827 -82H705L786 328H449L369 -82H246L326 328H63V432H346L428 848ZM887 848H549L469
432H805L887 848Z" />
<glyph unicode="$" glyph-name="dollar" horiz-adv-x="1093" d="M608 -162H512V0Q330 10 211 90T92 270Q92 324 126 362T213 401Q264 401 296 367T328 287Q328 217 262 178Q291 147 358 121T512 88V582Q414 612 351 639T235 707T159 801T135 930Q135 1064 236
1164T512 1284V1427H608V1286Q767 1280 876 1204T985 1032Q985 975 956 941T879 907Q827 907 797 937T766 1012Q766 1045 784 1072T829 1112Q800 1145 744 1169T608 1198V727Q817 664 904 586T991 369Q991 306 968 245T899 131T779 43T608 0V-162ZM850 317Q850
401 796 454T608 553V90Q720 100 785 163T850 317ZM283 977Q283 896 333 847T512 756V1196Q402 1182 343 1119T283 977Z" />
<glyph unicode="%" glyph-name="percent" horiz-adv-x="1595" d="M338 545Q221 545 154 619T86 817Q86 932 140 1037T286 1206T481 1270Q607 1270 666 1178Q744 1137 852 1137Q1048 1137 1186 1298H1288L412 -53H276L1079 1130L1073 1137Q964 1051 823 1051Q755
1051 702 1067Q702 1060 703 1047T705 1026Q705 968 690 903T644 775T570 660T467 577T338 545ZM1145 -29Q1027 -29 959 45T891 244Q891 359 945 463T1091 632T1286 696T1449 633T1509 451Q1509 378 1485 296T1417 141T1301 19T1145 -29ZM1161 57Q1231 57 1291
120T1384 273T1417 451Q1417 525 1386 564T1296 602Q1227 601 1166 539T1072 390T1038 219Q1038 142 1071 100T1161 57ZM356 633Q426 633 486 695T579 847T612 1024Q612 1061 602 1096Q550 1121 489 1176Q420 1174 360 1112T266 962T233 793Q233 716 266 675T356
633Z" />
<glyph unicode="&amp;" glyph-name="ampersand" horiz-adv-x="1472" d="M983 772H1417V672H1260Q1157 436 1010 258Q1070 161 1107 127T1190 92Q1229 92 1258 121T1319 219L1393 186Q1314 -33 1141 -33Q1062 -33 1005 7T887 150Q713 -33 496 -33Q403 -33 328 -5T205
71T132 178T106 301Q106 431 188 524T444 690Q311 829 311 969Q311 1102 407 1190T643 1278Q775 1278 855 1203T936 1026Q936 923 872 846T666 694Q842 524 952 338Q1071 485 1145 672H983V772ZM543 88Q693 88 836 229Q776 333 702 425T510 631Q393 575 338 505T283
334T354 161T543 88ZM459 1014Q459 951 491 891T606 750Q791 855 791 1012Q791 1087 749 1137T633 1188Q553 1188 506 1138T459 1014Z" />
<glyph unicode="&apos;" glyph-name="quotesingle" horiz-adv-x="458" d="M174 844L119 868L170 1067Q213 1246 231 1290Q258 1343 305 1343Q342 1343 369 1323T397 1268Q397 1246 383 1206Q327 1096 276 1014L174 844Z" />
<glyph unicode="(" glyph-name="parenleft" horiz-adv-x="739" d="M700 -322Q576 -258 478 -173T303 22T185 274T143 582Q143 746 184 887T302 1139T477 1334T700 1483L750 1407Q534 1273 423 1071T311 582Q311 26 750 -246L700 -322Z" />
<glyph unicode=")" glyph-name="parenright" horiz-adv-x="739" d="M39 1483Q163 1419 261 1334T436 1139T554 887T596 580T555 274T437 22T262 -173T39 -322L-10 -246Q206 -112 317 90T428 580Q428 1135 -10 1407L39 1483Z" />
<glyph unicode="*" glyph-name="asterisk" horiz-adv-x="835" d="M438 805Q431 827 428 867T423 965T420 1038L393 1047Q382 1033 348 989T286 912T242 866Q178 821 135 874Q91 933 158 979Q176 992 215 1009T306 1045T377 1073V1098Q193 1163 158 1188Q90 1235
133 1292Q175 1352 242 1300Q259 1288 286 1256T347 1180T393 1122L418 1130Q420 1153 421 1206T426 1301T436 1364Q464 1443 530 1419Q595 1401 569 1321Q563 1301 541 1265T489 1186T449 1122L463 1100Q655 1155 692 1155Q734 1155 753 1139T772 1085Q772 1049
753 1033T690 1016Q670 1016 629 1026T536 1050T463 1069L449 1049Q459 1033 490 987T542 905T569 848Q597 771 530 750Q466 728 438 805Z" />
<glyph unicode="+" glyph-name="plus" horiz-adv-x="1073" d="M483 137V518H111V618H483V999H592V618H963V518H592V137H483Z" />
<glyph unicode="," glyph-name="comma" horiz-adv-x="438" d="M66 -289L35 -225Q141 -175 191 -123T252 -6L244 -2Q222 -14 197 -14Q158 -14 131 14T104 86Q104 133 135 167T215 201Q274 201 309 159T344 49Q344 -57 278 -140T66 -289Z" />
<glyph unicode="-" glyph-name="hyphen" horiz-adv-x="749" d="M113 430V563H637V430H113Z" />
<glyph unicode="." glyph-name="period" horiz-adv-x="438" d="M268 -31T219 -31T136 2T102 84Q102 133 136 167T219 201T302 168T336 84Q336 36 302 3Z" />
<glyph unicode="/" glyph-name="slash" horiz-adv-x="856" d="M-98 -416L692 1430H817L27 -416H-98Z" />
<glyph unicode="0" glyph-name="zero" horiz-adv-x="1142" d="M571 -33Q421 -33 311 56T145 296T90 639Q90 830 147 983T315 1227T569 1317Q720 1317 831 1228T997 989T1053 647T995 302T826 58T571 -33ZM575 68Q676 68 742 140T837 338T866 641Q866 910 791 1063T565
1217Q465 1217 399 1145T304 947T274 643Q274 377 351 223T575 68Z" />
<glyph unicode="1" glyph-name="one" horiz-adv-x="917" d="M115 0V106H412V1067Q341 1034 233 1034Q155 1034 109 1051V1137Q229 1135 328 1178T471 1300H580V106H866V0H115Z" />
<glyph unicode="2" glyph-name="two" horiz-adv-x="1116" d="M98 113Q98 221 195 332T500 571Q667 672 736 754T805 956Q805 1071 734 1145T541 1219Q447 1219 377 1178T274 1075Q319 1063 345 1031T371 954Q371 902 338 867T252 831Q196 831 160 872T123 981Q123
1064 178 1141T337 1267T563 1317Q664 1317 745 1287T878 1205T956 1088T983 948Q983 811 889 709T594 506Q287 353 236 195L240 188Q319 233 416 233Q476 233 540 206T661 152T758 125Q832 125 874 188T952 410L1032 403Q1010 172 935 70T737 -33Q690 -33 644
-15T560 28T488 79T415 123T342 141Q311 141 291 133Q309 104 309 70Q309 26 283 -3T215 -33Q160 -33 129 8T98 113Z" />
<glyph unicode="3" glyph-name="three" horiz-adv-x="1071" d="M504 -33Q324 -33 201 50T78 250Q78 307 114 347T207 387Q258 387 290 354T322 272Q322 200 256 156Q290 118 352 92T500 66Q636 66 712 141T788 336Q788 466 700 539T426 612H367V713H416Q595 713
679 784T764 985Q764 1092 697 1155T512 1219Q345 1219 264 1116Q301 1102 324 1072T348 1001Q348 955 318 919T236 883Q183 883 147 921T111 1020Q111 1136 229 1226T528 1317Q719 1317 831 1224T944 991Q944 871 854 787T600 668V664Q776 642 872 560T969 352Q969
189 841 78T504 -33Z" />
<glyph unicode="4" glyph-name="four" horiz-adv-x="1134" d="M659 477V1124H653L186 477H659ZM821 104H1022V0H455V104H657V369H55V479L662 1307H821V477H1090V369H821V104Z" />
<glyph unicode="5" glyph-name="five" horiz-adv-x="1052" d="M313 1126L287 727Q336 767 410 792T565 817Q750 817 858 706T967 426Q967 340 938 260T853 113T707 7T504 -33Q398 -33 303 6T150 115T92 266Q92 328 129 371T221 414Q275 414 304 381T334 301Q334
261 310 227T250 178Q284 131 348 99T498 66Q636 66 713 159T791 410Q791 561 724 639T530 717Q376 717 252 596L168 621L213 1286L240 1307Q429 1231 606 1231Q771 1231 909 1305L936 1247Q809 1071 588 1071Q453 1071 313 1126Z" />
<glyph unicode="6" glyph-name="six" horiz-adv-x="1089" d="M272 616Q402 809 606 809Q787 809 890 698T993 416Q993 327 965 248T885 105T748 5T557 -33Q344 -33 221 134T98 571Q98 790 166 959T361 1222T655 1317Q800 1317 885 1250T971 1085Q971 1021 937
981T846 940Q793 940 762 971T731 1051Q731 1087 753 1119T813 1165Q762 1219 655 1219Q478 1219 376 1064T272 616ZM285 391Q285 258 363 163T563 68Q687 68 752 158T817 406Q817 533 752 620T563 707Q442 707 364 618T285 391Z" />
<glyph unicode="7" glyph-name="seven" horiz-adv-x="1067" d="M547 92Q542 28 518 -2T444 -33Q402 -33 375 -5T348 76Q346 236 456 481T745 922Q846 1031 901 1104L893 1112Q782 1049 688 1049Q638 1049 590 1063T511 1094T442 1125T371 1139Q298 1139 259 1070T203
817H102V1288H209L217 1122H225Q256 1214 302 1256T422 1298Q467 1298 506 1281T575 1240T633 1192T694 1150T764 1133Q812 1133 856 1153Q827 1191 827 1223Q827 1263 855 1291T926 1319Q973 1319 1001 1288T1030 1210Q1030 1153 995 1098T862 930Q712 756 638
564T547 92Z" />
<glyph unicode="8" glyph-name="eight" horiz-adv-x="1089" d="M133 952Q133 1105 250 1211T557 1317Q736 1317 846 1222T956 993Q956 773 721 682Q997 576 997 360Q997 195 866 81T535 -33Q338 -33 217 67T96 313Q96 414 156 501T350 641Q237 693 185 769T133
952ZM457 602Q455 602 451 603T444 604Q348 566 299 496T250 332Q250 218 333 141T553 63Q678 63 759 138T840 313Q840 415 755 477T457 602ZM293 991Q293 886 370 823T623 713Q723 758 769 828T815 981Q815 1082 744 1150T549 1219Q431 1219 362 1152T293 991Z"
/>
<glyph unicode="9" glyph-name="nine" horiz-adv-x="1089" d="M817 651Q688 461 483 461Q302 461 199 572T96 858Q96 950 124 1032T205 1178T342 1279T532 1317Q745 1317 868 1151T991 715Q991 492 926 323T736 61T442 -33Q283 -33 193 37T102 211Q102 273 137
312T227 352Q279 352 310 321T342 244Q342 207 320 175T260 127Q324 66 440 66Q617 66 715 215T817 651ZM805 887Q805 1025 727 1121T526 1217Q401 1217 337 1125T272 870Q272 737 336 649T526 561Q648 561 726 652T805 887Z" />
<glyph unicode=":" glyph-name="colon" horiz-adv-x="446" d="M272 582T223 582T140 615T106 696Q106 745 140 779T223 813T306 780T340 696Q340 649 306 616ZM272 -31T223 -31T140 2T106 84Q106 133 140 167T223 201T306 168T340 84Q340 36 306 3Z" />
<glyph unicode=";" glyph-name="semicolon" horiz-adv-x="446" d="M227 582Q178 582 145 615T111 696Q111 745 144 779T227 813Q275 813 309 779T344 696Q344 649 310 616T227 582ZM66 -289L35 -225Q141 -175 191 -123T252 -6L244 -2Q222 -14 197 -14Q158 -14
131 14T104 86Q104 133 135 167T215 201Q274 201 309 159T344 49Q344 -57 278 -140T66 -289Z" />
<glyph unicode="&lt;" glyph-name="less" horiz-adv-x="1056" d="M895 147L164 524V614L895 989V879L281 569L895 262V147Z" />
<glyph unicode="=" glyph-name="equal" horiz-adv-x="1077" d="M117 705V805H958V705H117ZM117 334V432H958V334H117Z" />
<glyph unicode="&gt;" glyph-name="greater" horiz-adv-x="1056" d="M162 989L893 612V522L162 147V258L776 567L162 874V989Z" />
<glyph unicode="?" glyph-name="question" horiz-adv-x="880" d="M360 393Q362 501 392 587T489 756Q499 768 529 804T567 851T597 890T624 933T640 973T654 1021T657 1073Q657 1170 595 1234T432 1298Q353 1298 292 1264T207 1176Q247 1165 273 1132T299 1057Q299
1006 267 970T180 934Q125 934 88 974T51 1073Q51 1197 163 1293T434 1389Q623 1389 728 1294T834 1059Q834 958 783 878T606 692Q532 628 497 559T451 393H360ZM461 -31T412 -31T329 2T295 84Q295 134 328 167T412 201Q461 201 494 167T528 84Q528 36 495 3Z"
/>
<glyph unicode="@" glyph-name="at" horiz-adv-x="1857" d="M940 -299Q767 -299 618 -246T359 -93T186 159T123 498Q123 688 192 854T378 1137T658 1321T1001 1389Q1150 1389 1283 1339T1517 1200T1676 976T1735 682Q1735 551 1696 443T1592 266T1447 160T1280
123Q1168 123 1112 180T1071 346L1061 348Q1000 250 926 198T774 145Q669 145 601 220T532 428Q532 544 581 655T713 844Q845 969 989 969Q1061 969 1114 926T1180 801L1229 958H1362L1206 457Q1182 381 1180 330T1195 253T1239 217T1305 207Q1368 207 1428 240T1535
333T1611 482T1640 676Q1640 863 1556 1008T1325 1231T991 1309Q826 1309 682 1245T436 1072T276 813T217 496Q217 170 416 -23T948 -217Q1242 -217 1483 -43L1524 -106Q1405 -197 1254 -248T940 -299ZM750 246T813 246T936 294T1037 412T1103 562T1128 705Q1128
780 1096 833T991 887Q907 887 834 810T721 624T682 414Q682 334 716 290Z" />
<glyph unicode="A" glyph-name="A" horiz-adv-x="1376" d="M1030 106L897 481H401L260 106H440V0H-8V106H135L623 1346H766L1221 106H1393V0H819V106H1030ZM655 1145L438 578H862L662 1145H655Z" />
<glyph unicode="B" glyph-name="B" horiz-adv-x="1286" d="M66 0V106H293V1231H66V1335H657Q773 1335 861 1318T1003 1271T1092 1200T1140 1113T1153 1014Q1153 969 1137 926T1085 838T980 759T817 707V700Q1011 686 1114 597T1217 379Q1217 317 1202 265T1148
163T1048 78T888 22T659 0H66ZM465 752H668Q969 752 969 1010Q969 1120 903 1175T676 1231H465V752ZM465 106H670Q863 106 946 173T1030 391Q1030 513 938 583T662 653H465V106Z" />
<glyph unicode="C" glyph-name="C" horiz-adv-x="1382" d="M715 -33Q533 -33 392 57T173 307T96 670Q96 863 179 1023T405 1276T719 1368Q961 1368 1102 1206L1141 1362H1247V856H1153Q1088 1051 983 1153T721 1255Q528 1255 411 1105T293 682Q293 398 415 241T743
84Q918 84 1030 204T1171 522H1286Q1257 259 1105 113T715 -33Z" />
<glyph unicode="D" glyph-name="D" horiz-adv-x="1441" d="M66 0V106H293V1231H66V1335H618Q976 1335 1163 1161T1350 688Q1350 542 1307 420T1179 202T953 54T631 0H66ZM465 106H635Q904 106 1028 247T1153 688Q1153 957 1024 1094T621 1231H465V106Z" />
<glyph unicode="E" glyph-name="E" horiz-adv-x="1345" d="M66 0V106H293V1231H66V1335H1208V918H1128Q1112 992 1103 1033T1080 1115T1055 1174T1024 1207T982 1227T926 1231H465V733H668Q701 733 721 735T759 746T786 766T806 803T821 858T836 938H920V428H836Q825
505 816 543T788 606T743 635T668 641H465V106H922Q951 106 972 108T1012 119T1043 138T1069 170T1090 215T1108 277T1127 357T1147 459H1227V0H66Z" />
<glyph unicode="F" glyph-name="F" horiz-adv-x="1298" d="M66 0V106H293V1231H66V1335H1210V909H1130Q1098 1053 1072 1118T1011 1207T907 1231H465V709H653Q701 709 726 714T770 744T799 806T819 918H903V395H819Q810 471 801 512T772 578T727 609T653 616H465V106H715V0H66Z"
/>
<glyph unicode="G" glyph-name="G" horiz-adv-x="1456" d="M1090 178Q1030 77 931 22T711 -33Q528 -33 387 61T171 315T96 672Q96 812 143 940T271 1162T467 1312T711 1368Q824 1368 922 1325T1087 1206L1126 1362H1233V862H1139Q1076 1050 971 1152T719 1255Q520
1255 407 1106T293 684Q293 403 409 245T733 86Q899 86 993 211Q1075 310 1075 498V551H825V657H1432V551H1249V-14H1149L1090 178Z" />
<glyph unicode="H" glyph-name="H" horiz-adv-x="1581" d="M66 0V106H293V1231H66V1335H666V1231H465V739H1114V1231H915V1335H1516V1231H1288V106H1516V0H915V106H1114V643H465V106H666V0H66Z" />
<glyph unicode="I" glyph-name="I" horiz-adv-x="786" d="M80 0V106H305V1231H80V1335H707V1231H479V106H707V0H80Z" />
<glyph unicode="J" glyph-name="J" horiz-adv-x="1085" d="M446 -33Q275 -33 168 56T61 274Q61 344 101 389T201 434Q256 434 292 398T328 303Q328 259 303 227T231 180Q257 133 313 104T442 74Q550 74 610 144T670 340V1231H451V1335H1047V1231H842V371Q842 182
735 75T446 -33Z" />
<glyph unicode="K" glyph-name="K" horiz-adv-x="1468" d="M465 469V106H666V0H66V106H293V1231H66V1335H666V1231H465V606L1075 1231H891V1335H1405V1231H1233L780 782L1284 106H1448V0H887V106H1071L664 666L465 469Z" />
<glyph unicode="L" glyph-name="L" horiz-adv-x="1241" d="M66 1335H705V1231H465V106H868Q892 106 909 109T942 122T970 143T993 180T1015 230T1036 301T1059 389T1085 502H1165V0H66V106H293V1231H66V1335Z" />
<glyph unicode="M" glyph-name="M" horiz-adv-x="1902" d="M70 0V106H283V1231H70V1335H569L948 293H954L1341 1335H1831V1231H1610V106H1831V0H1255V106H1436V1223H1423L954 -2H881L414 1223H401V106H594V0H70Z" />
<glyph unicode="N" glyph-name="N" horiz-adv-x="1570" d="M1206 -33L412 1118H401V106H606V0H70V106H283V1231H70V1335H471L1188 299H1198V1231H991V1335H1522V1231H1319V-33H1206Z" />
<glyph unicode="O" glyph-name="O" horiz-adv-x="1456" d="M729 -33Q598 -33 481 19T280 162T146 385T96 668Q96 815 147 945T283 1168T485 1313T729 1366Q861 1366 977 1315T1177 1173T1311 951T1360 668Q1360 520 1310 389T1174 166T973 21T729 -33ZM729 76Q932
76 1048 234T1165 668Q1165 939 1049 1098T729 1257Q525 1257 409 1099T293 668Q293 395 409 236T729 76Z" />
<glyph unicode="P" glyph-name="P" horiz-adv-x="1247" d="M66 0V106H293V1231H66V1335H647Q766 1335 859 1315T1012 1259T1111 1175T1166 1071T1182 954Q1182 873 1152 803T1060 676T895 586T655 553H465V106H715V0H66ZM465 653H651Q989 653 989 954Q989 1231
653 1231H465V653Z" />
<glyph unicode="Q" glyph-name="Q" horiz-adv-x="1456" d="M729 -33Q598 -33 481 19T280 162T146 385T96 668Q96 815 147 945T283 1168T485 1313T729 1366Q861 1366 977 1315T1177 1173T1311 951T1360 668Q1360 490 1291 341T1100 98Q1159 -1 1200 -38T1288 -76Q1344
-76 1376 -28T1423 121H1520Q1508 -37 1447 -127T1266 -217Q1168 -217 1101 -159T973 20Q855 -33 729 -33ZM434 209Q434 323 505 402T702 481Q806 481 882 414T1034 217Q1165 380 1165 668Q1165 939 1049 1098T729 1257Q525 1257 409 1099T293 668Q293 369 434
209ZM743 76Q843 76 928 123Q900 182 875 223T819 301T753 356T676 375Q607 375 566 331T524 221Q524 76 743 76Z" />
<glyph unicode="R" glyph-name="R" horiz-adv-x="1386" d="M465 600V106H690V0H66V106H293V1231H66V1335H719Q967 1335 1086 1240T1206 989Q1206 915 1177 852T1073 735T885 662V649Q1023 616 1082 547T1151 358L1163 190Q1172 96 1235 96Q1263 96 1285 119T1331
193L1401 160Q1367 71 1316 24T1186 -23Q980 -23 975 217L971 379Q968 500 916 550T719 600H465ZM465 698H707Q867 698 938 773T1010 987Q1010 1109 944 1170T733 1231H465V698Z" />
<glyph unicode="S" glyph-name="S" horiz-adv-x="1171" d="M113 -27V438H205Q302 239 407 153T659 66Q780 66 853 130T926 311Q926 349 916 381T892 436T849 481T795 517T726 546T649 571T561 596Q513 609 480 618T404 643T330 675T266 713T210 762T169 821T140
895T131 985Q131 1147 244 1256T541 1366Q640 1366 732 1327T883 1219L924 1360H1024V920H932Q791 1270 530 1270Q425 1270 358 1208T291 1036Q291 905 406 839Q467 803 628 760H629H630L631 759H632H633L634 758H636H637L638 757H639H640H641L642 756H643Q691
743 719 736T791 714T861 689T922 659T977 622T1021 577T1056 522T1077 456T1085 375Q1085 199 964 83T655 -33Q414 -33 258 133L213 -27H113Z" />
<glyph unicode="T" glyph-name="T" horiz-adv-x="1372" d="M365 0V106H600V1239H418Q388 1239 366 1237T324 1225T291 1205T263 1171T240 1124T218 1059T197 977T172 872H94V1335H1278V872H1200Q1185 939 1176 977T1154 1058T1133 1124T1109 1170T1082 1205T1048
1224T1005 1236T952 1239H772V106H1008V0H365Z" />
<glyph unicode="U" glyph-name="U" horiz-adv-x="1503" d="M748 -33Q501 -33 372 85T242 403V1231H45V1335H621V1231H414V449Q414 259 510 174T799 88Q961 88 1059 184Q1110 236 1131 308T1153 498V1231H946V1335H1460V1231H1272V422Q1272 326 1239 244T1141 100T976
3T748 -33Z" />
<glyph unicode="V" glyph-name="V" horiz-adv-x="1388" d="M629 -8L164 1231H-8V1335H565V1231H354L723 207H735L1128 1231H948V1335H1397V1231H1253L762 -8H629Z" />
<glyph unicode="W" glyph-name="W" horiz-adv-x="2015" d="M1335 1231H1120L1413 223H1423L1749 1231H1569V1335H2015V1231H1872L1454 -8H1309L1026 942L700 -8H557L168 1231H-6V1335H561V1231H354L662 223H672L971 1114L938 1231H766V1335H1335V1231Z" />
<glyph unicode="X" glyph-name="X" horiz-adv-x="1376" d="M831 1231V1335H1331V1231H1165L782 698L1180 106H1358V0H793V106H977L664 588L324 106H518V0H20V106H186L594 670L217 1231H37V1335H604V1231H422L711 780L1024 1231H831Z" />
<glyph unicode="Y" glyph-name="Y" horiz-adv-x="1304" d="M692 672L1022 1231H850V1335H1303V1231H1145L737 563V106H944V0H358V106H563V561L180 1231H12V1335H569V1231H385L692 672Z" />
<glyph unicode="Z" glyph-name="Z" horiz-adv-x="1247" d="M80 0V76L934 1231H422Q388 1231 369 1229T328 1213T295 1180T266 1117T236 1021T203 879H121V1335H1157V1262L309 106H862Q895 106 915 109T955 128T988 164T1017 231T1046 330T1079 473H1159V0H80Z" />
<glyph unicode="[" glyph-name="bracketleft" horiz-adv-x="692" d="M182 -311V1475H692V1374H342V-211H692V-311H182Z" />
<glyph unicode="\" glyph-name="backslash" horiz-adv-x="856" d="M829 -416L39 1430H164L954 -416H829Z" />
<glyph unicode="]" glyph-name="bracketright" horiz-adv-x="692" d="M510 1475V-311H0V-211H350V1374H0V1475H510Z" />
<glyph unicode="^" glyph-name="asciicircum" horiz-adv-x="681" d="M61 1049L303 1452H385L618 1049H537L340 1286L141 1049H61Z" />
<glyph unicode="_" glyph-name="underscore" horiz-adv-x="901" d="M-4 0V111H905V0H-4Z" />
<glyph unicode="`" glyph-name="grave" horiz-adv-x="487" d="M348 1079H270L137 1249Q87 1314 68 1345T49 1405Q49 1438 71 1459T123 1481Q161 1481 188 1448T246 1337L348 1079Z" />
<glyph unicode="a" glyph-name="a" horiz-adv-x="989" d="M358 -14Q234 -14 164 51T94 225Q94 322 158 389Q208 440 285 466T508 516Q606 532 629 541T653 575V666Q653 764 606 807T463 850Q354 850 287 797Q342 767 342 702Q342 657 313 628T236 598Q187 598
157 629T127 709Q127 806 235 871T489 936Q813 936 813 659V178Q813 132 828 114T874 96Q922 96 956 178L1018 143Q982 62 939 26T827 -10T716 32T672 160H666Q619 81 536 34T358 -14ZM428 94Q512 94 582 153T653 291V473Q631 466 553 453Q392 428 330 386T268
254Q268 177 308 136T428 94Z" />
<glyph unicode="b" glyph-name="b" horiz-adv-x="1077" d="M584 90Q690 90 753 189T817 465Q817 638 755 734T588 831Q474 831 397 720T319 438Q319 275 396 183T584 90ZM166 -10V1296H12V1407H324V723Q377 826 459 882T637 938Q774 938 862 850Q991 724 991 469Q991
351 956 250T854 82Q758 -16 616 -16Q515 -16 435 40T309 193L250 -10H166Z" />
<glyph unicode="c" glyph-name="c" horiz-adv-x="966" d="M508 -18Q317 -18 199 111T80 442Q80 661 209 799T545 938Q688 938 790 856T893 678Q893 617 861 577T774 537Q724 537 694 569T664 647Q664 684 685 714T741 758Q714 799 663 825T539 852Q411 852 332
746T252 463Q252 287 330 188T547 88Q738 88 817 299H905Q866 145 763 64T508 -18Z" />
<glyph unicode="d" glyph-name="d" horiz-adv-x="1095" d="M446 -16Q307 -16 219 74Q86 204 86 449Q86 565 123 669T227 840Q327 938 465 938Q559 938 633 891T752 760V1296H596V1407H909V106H1057V0H756V201Q703 94 623 39T446 -16ZM498 90Q607 90 682 197T758
475Q758 634 687 732T504 831Q391 831 326 732T260 459Q260 287 327 189T498 90Z" />
<glyph unicode="e" glyph-name="e" horiz-adv-x="974" d="M899 453H252Q255 277 334 184T547 90Q737 90 809 270H895Q854 129 755 56T512 -18Q314 -18 197 112T80 451T206 799T518 938Q596 938 661 911T770 838T844 729T888 597T899 453ZM508 850Q404 850 337
771T254 541H735Q724 689 668 769T508 850Z" />
<glyph unicode="f" glyph-name="f" horiz-adv-x="684" d="M72 0V106H223V815H37V915H223V975Q223 1093 255 1182T341 1321T461 1395T600 1419Q712 1419 785 1370T858 1241Q858 1193 829 1159T756 1124Q705 1124 676 1152T647 1231Q647 1271 682 1309Q649 1335
584 1335Q482 1335 433 1256T383 983V915H655V815H383V106H598V0H72Z" />
<glyph unicode="g" glyph-name="g" horiz-adv-x="960" d="M827 639Q827 497 728 418T467 338Q444 338 403 341T342 344Q294 344 264 319T233 260Q233 220 275 199T395 178H639Q909 178 909 -29Q909 -157 785 -243T446 -330Q264 -330 157 -271T49 -117Q49 -51 103
0T246 68V74Q94 118 94 223Q94 274 143 319T268 381Q106 464 106 633Q106 773 208 854T467 936Q546 936 618 907Q725 1090 866 1090Q919 1090 952 1061T985 983Q985 944 960 917T895 889Q857 889 835 911T813 971Q813 983 815 991Q786 993 749 961T684 877Q827
788 827 639ZM475 416Q563 416 611 473T659 637Q659 733 606 795T461 858Q371 858 322 802T272 635Q272 526 326 471T475 416ZM455 -244Q596 -244 682 -196T768 -70Q768 45 623 45H393Q300 45 251 8T201 -100Q201 -166 262 -205T455 -244Z" />
<glyph unicode="h" glyph-name="h" horiz-adv-x="1138" d="M45 0V106H199V1296H45V1407H358V688Q501 936 702 936Q820 936 886 861T952 645V106H1106V0H653V106H795V573Q795 710 741 764Q702 807 625 807Q523 807 441 714T358 508V106H498V0H45Z" />
<glyph unicode="i" glyph-name="i" horiz-adv-x="614" d="M315 1130Q264 1130 232 1161T199 1245Q199 1296 231 1330T315 1364Q364 1364 396 1332T428 1247Q428 1196 396 1163T315 1130ZM74 0V106H248V815H74V922H406V106H580V0H74Z" />
<glyph unicode="j" glyph-name="j" horiz-adv-x="575" d="M319 1130Q268 1130 237 1161T205 1245Q205 1297 236 1330T319 1364Q368 1364 400 1332T432 1247T401 1163T319 1130ZM111 -334Q21 -334 -41 -288T-104 -174Q-104 -126 -72 -91T6 -55Q54 -55 82 -83T111
-154Q111 -199 76 -236Q96 -250 129 -250Q252 -250 252 -45V815H80V922H412V37Q412 -144 335 -239T111 -334Z" />
<glyph unicode="k" glyph-name="k" horiz-adv-x="1069" d="M864 815L612 559L932 106H1049V0H629V104H752L508 459L358 307V106H485V0H45V106H199V1296H45V1407H358V422L731 817H578V922H1004V815H864Z" />
<glyph unicode="l" glyph-name="l" horiz-adv-x="581" d="M37 0V106H211V1296H37V1407H371V106H543V0H37Z" />
<glyph unicode="m" glyph-name="m" horiz-adv-x="1718" d="M954 692Q1103 936 1294 936Q1410 936 1472 861T1534 643V106H1688V0H1245V106H1376V573Q1376 714 1325 768Q1288 805 1214 805Q1118 805 1038 712T958 508V106H1090V0H670V106H799V573Q799 715 750 768Q710
805 639 805Q541 805 462 712T383 508V106H512V0H70V106H223V815H70V922H379V684Q524 936 717 936Q936 936 954 692Z" />
<glyph unicode="n" glyph-name="n" horiz-adv-x="1163" d="M70 0V106H223V815H70V922H379V684Q524 936 727 936Q845 936 911 861T977 645V106H1130V0H678V106H819V573Q819 711 766 764Q726 807 649 807Q548 807 466 714T383 508V106H522V0H70Z" />
<glyph unicode="o" glyph-name="o" horiz-adv-x="1048" d="M524 -18Q327 -18 204 112T80 453Q80 666 206 802T524 938Q721 938 845 808T969 467Q969 254 842 118T524 -18ZM532 72Q651 72 723 170T795 461T717 750T516 848Q397 848 325 750T252 459Q252 269 331
171T532 72Z" />
<glyph unicode="p" glyph-name="p" horiz-adv-x="1103" d="M606 109Q715 109 779 205T844 481Q844 659 780 745T614 831Q509 831 431 722T352 453Q352 302 422 206T606 109ZM45 -307V-201H199V815H45V922H352V707Q404 824 486 881T668 938Q799 938 893 846Q1018
721 1018 477Q1018 362 982 263T881 98Q781 0 647 0Q548 0 474 52T356 188V-201H557V-307H45Z" />
<glyph unicode="q" glyph-name="q" horiz-adv-x="1069" d="M502 831Q390 831 325 735T260 463Q260 281 326 195T496 109Q603 109 678 213T754 479Q754 633 683 732T502 831ZM752 217Q702 110 622 55T444 0Q307 0 211 96Q149 158 118 253T86 463Q86 571 123 672T223
836Q327 938 463 938Q562 938 641 882T766 729L825 930H909V-201H1063V-307H553V-201H752V217Z" />
<glyph unicode="r" glyph-name="r" horiz-adv-x="829" d="M70 0V106H223V815H70V922H379V705Q421 816 497 875T657 934Q726 934 766 894T807 793Q807 743 776 709T696 674Q649 674 618 703T586 780Q586 803 594 819Q524 826 466 757T383 604V106H563V0H70Z" />
<glyph unicode="s" glyph-name="s" horiz-adv-x="886" d="M92 -18V330H186Q224 207 304 137T492 66Q576 66 624 105T672 209Q672 277 618 315T422 393Q251 442 180 504T109 672Q109 781 196 859T418 938Q497 938 559 910T657 827L680 938H770V623H680Q628 744
571 799T416 854Q348 854 300 818T252 721Q252 658 308 618T494 541Q669 493 740 434T811 262Q811 151 723 67T492 -18Q306 -18 205 111L182 -18H92Z" />
<glyph unicode="t" glyph-name="t" horiz-adv-x="716" d="M201 1161L360 1182V915H662V815H360V236Q360 92 475 92Q527 92 563 131T629 256L702 227Q633 -18 434 -18Q320 -18 261 47T201 231V815H14V915H201V1161Z" />
<glyph unicode="u" glyph-name="u" horiz-adv-x="1128" d="M434 -16Q318 -16 253 60T188 276V815H37V922H346V348Q346 206 399 156Q435 115 512 115Q613 115 694 207T776 412V815H618V922H936V106H1087V0H780V236Q634 -16 434 -16Z" />
<glyph unicode="v" glyph-name="v" horiz-adv-x="1011" d="M442 -12L127 815H0V922H461V815H301L532 164H539L786 815H643V922H1012V815H901L569 -12H442Z" />
<glyph unicode="w" glyph-name="w" horiz-adv-x="1540" d="M1030 815H864L1085 164H1092L1315 815H1171V922H1536V815H1425L1126 -12H995L786 582L545 -12H416L131 815H4V922H453V815H297L508 164H512L737 725L707 815H580V922H1030V815Z" />
<glyph unicode="x" glyph-name="x" horiz-adv-x="997" d="M459 819H317L522 539L748 819H616V922H975V815H870L584 475L864 106H975V0H549V102H688L481 383L252 102H379V0H25V106H133L420 444L135 815H25V922H459V819Z" />
<glyph unicode="y" glyph-name="y" horiz-adv-x="1001" d="M143 -68Q190 -68 219 -98T248 -172Q248 -213 229 -242Q292 -239 344 -188T453 2L127 815H0V922H459V815H299L537 182L782 815H641V922H1010V815H897L580 37Q497 -170 408 -252T207 -334Q124 -334 77
-294T29 -190Q29 -140 61 -104T143 -68Z" />
<glyph unicode="z" glyph-name="z" horiz-adv-x="935" d="M72 0V88L672 831H346Q268 831 240 792T178 600H102V922H868V834L264 90H639Q714 90 740 134T795 344H872V0H72Z" />
<glyph unicode="{" glyph-name="braceleft" horiz-adv-x="794" d="M33 631H94Q235 631 305 682T375 819Q375 869 360 969T344 1114Q344 1280 452 1374T774 1477V1382Q622 1369 564 1309T506 1130Q506 1101 514 1010T522 870Q522 621 244 586V580Q522 543 522 293Q522
245 514 154T506 33Q506 -85 564 -145T774 -219V-313Q560 -306 452 -212T344 49Q344 94 359 194T375 346Q375 433 305 482T94 532H33V631Z" />
<glyph unicode="|" glyph-name="bar" horiz-adv-x="571" d="M229 -416V1430H342V-416H229Z" />
<glyph unicode="}" glyph-name="braceright" horiz-adv-x="794" d="M762 532H700Q560 532 490 482T420 344Q420 294 435 194T451 49Q451 -117 343 -211T20 -313V-219Q172 -206 230 -146T289 33Q289 62 281 153T272 293Q272 541 551 578V584Q272 619 272 870Q272
919 280 1010T289 1130Q289 1248 231 1308T20 1382V1477Q234 1469 342 1375T451 1114Q451 1069 436 969T420 817Q420 731 490 681T700 631H762V532Z" />
<glyph unicode="~" glyph-name="asciitilde" horiz-adv-x="759" d="M84 514Q102 651 144 707T266 764Q302 764 342 746T410 706T470 666T524 647Q559 647 579 680T610 778H684Q666 641 624 585T502 528Q466 528 426 546T358 586T298 626T244 645Q209 645 189 612T158
514H84Z" />
</font>
</defs>
</svg>
