<?xml version="1.0" standalone="no"?>
<!DOCTYPE svg PUBLIC "-//W3C//DTD SVG 1.1//EN" "http://www.w3.org/Graphics/SVG/1.1/DTD/svg11.dtd" >
<svg xmlns="http://www.w3.org/2000/svg">
<defs>
<font id="Sentinel-SemiboldItalic" horiz-adv-x="1378" >
<font-face  font-family="Sentinel Semibold" font-weight="375" font-style="italic" font-stretch="normal" units-per-em="2048" panose-1="0 0 0 0 0 0 0 0 0 0" ascent="1638" descent="-410" x-height="965" cap-height="1348" bbox="-285 -690 2343 2267" underline-thickness="102" underline-position="-102" slope="-12" unicode-range="U+0020-U+FB04"/>
<missing-glyph horiz-adv-x="356" />
<glyph glyph-name="ff" unicode="&#xfb00;" horiz-adv-x="1318" d="M530 -348q-90 0 -138 42t-48 103q0 59 38 102.5t97 43.5q49 0 77 -31t28 -74q0 -61 -29 -90q55 -2 87 53.5t71 239.5l155 756h-356l-137 -652q-55 -260 -172 -376.5t-260 -116.5q-90 0 -138.5 42t-48.5 103q0 59 38 102.5t97 43.5q49 0 77 -31t28 -74q0 -61 -29 -90 q55 -2 84 52.5t68 240.5l155 756h-188l33 125h182q53 242 186.5 369.5t317.5 127.5q209 0 270 -125q127 127 303 127q127 0 192.5 -54t65.5 -132q0 -72 -42 -122t-105 -50q-51 0 -84 29.5t-33 83.5q0 80 58 127q-18 12 -56 12q-102 0 -147 -77t-84 -265l-13 -51h273 l-35 -125h-264l-137 -652q-53 -260 -173.5 -376.5t-263.5 -116.5zM549 971l-10 -49h356q18 80 39 139q-47 4 -75 33.5t-28 79.5q0 70 50 118q-25 20 -82 21q-106 0 -159.5 -79t-90.5 -263z" />
<glyph glyph-name="fi" unicode="&#xfb01;" horiz-adv-x="1216" d="M823 797h-311l-137 -652q-55 -260 -172 -376.5t-260 -116.5q-90 0 -138.5 42t-48.5 103q0 59 38 102.5t97 43.5q49 0 77 -31t28 -74q0 -61 -29 -90q55 -2 84 52.5t68 240.5l155 756h-188l33 125h182q49 227 182 363t342 136q154 0 236 -60.5t82 -146.5q0 -68 -43 -116.5 t-115 -48.5q-59 0 -94 30.5t-35 85.5q0 78 53 127q-29 23 -98 23q-111 0 -167 -79t-95 -263l-10 -51h551l-160 -580q-31 -113 -31 -147q0 -49 43 -50q35 0 67.5 46.5t75.5 160.5l99 -30q-113 -342 -320 -342q-90 0 -140 51t-50 141q0 74 55 279z" />
<glyph glyph-name="fl" unicode="&#xfb02;" horiz-adv-x="1222" d="M803 1421q98 0 172 -35l258 35l-293 -1077q-33 -109 -33 -147q0 -51 43 -52q35 0 68 46.5t76 160.5l98 -30q-113 -342 -320 -342q-90 0 -140 51t-50 141q0 76 55 281l90 344h-317l-135 -652q-55 -260 -172 -376.5t-260 -116.5q-90 0 -138.5 42t-48.5 103q0 59 38 102.5 t97 43.5q49 0 77 -31t28 -74q0 -61 -29 -90q55 -2 84 52.5t68 240.5l155 756h-188l33 125h182q45 221 174 360t328 139zM549 975l-12 -53h323l39 147q-74 23 -74 107q0 68 52 118q-25 20 -80 21q-104 0 -156.5 -78t-91.5 -262z" />
<glyph glyph-name="ffi" unicode="&#xfb03;" horiz-adv-x="1808" d="M805 1419q104 0 175 -38t97 -95q139 135 340 135q154 0 236 -60.5t82 -146.5q0 -68 -43 -116.5t-115 -48.5q-59 0 -94 30.5t-35 85.5q0 78 53 127q-29 23 -98 23q-111 0 -167 -79t-95 -263l-11 -51h551l-159 -580q-31 -113 -31 -147q0 -49 43 -50q35 0 67.5 46.5 t75.5 160.5l99 -30q-113 -342 -320 -342q-90 0 -140 51t-50 141q0 74 55 279l94 346h-311l-137 -652q-55 -260 -174 -376.5t-265 -116.5q-88 0 -137 42t-49 103q0 59 38 102.5t97 43.5q49 0 77 -31t28 -74q0 -61 -29 -90q55 -2 87 53.5t71 239.5l155 756h-354l-137 -652 q-55 -260 -172 -376.5t-260 -116.5q-90 0 -138.5 42t-48.5 103q0 59 38 102.5t97 43.5q49 0 77 -31t28 -74q0 -61 -29 -90q55 -2 84 52.5t68 240.5l155 756h-188l33 125h182q53 242 186.5 369.5t317.5 127.5zM549 971l-10 -49h354q12 61 41 139q-47 4 -75 33.5t-28 79.5 q0 70 50 118q-25 20 -82 21q-106 0 -159.5 -79t-90.5 -263z" />
<glyph glyph-name="ffl" unicode="&#xfb04;" horiz-adv-x="1816" d="M530 -348q-90 0 -138 42t-48 103q0 59 38 102.5t97 43.5q49 0 77 -31t28 -74q0 -61 -29 -90q55 -2 87 53.5t71 239.5l155 756h-356l-137 -652q-55 -260 -172 -376.5t-260 -116.5q-90 0 -138.5 42t-48.5 103q0 59 38 102.5t97 43.5q49 0 77 -31t28 -74q0 -61 -29 -90 q55 -2 84 52.5t68 240.5l155 756h-188l33 125h182q53 242 186.5 369.5t317.5 127.5q209 0 272 -129q131 131 320 131q98 0 172 -35l256 35l-293 -1077q-31 -119 -31 -147q0 -51 43 -52q63 0 144 207l96 -30q-113 -342 -318 -342q-90 0 -140 51t-50 141q0 72 53 281l92 344 h-317l-137 -652q-53 -260 -173.5 -376.5t-263.5 -116.5zM549 971l-10 -49h356q18 80 39 139q-47 4 -75 33.5t-28 79.5q0 70 50 118q-25 20 -82 21q-106 0 -159.5 -79t-90.5 -263zM1143 975l-13 -53h324l39 147q-74 23 -74 107q0 72 51 118q-25 20 -79 21q-104 0 -157.5 -79 t-90.5 -261z" />
<glyph glyph-name="f_b" unicode="fb" horiz-adv-x="1675" d="M1223 1421l-207 -694l14 -6q63 119 147.5 181.5t172.5 62.5q127 0 197.5 -94.5t70.5 -241.5q0 -256 -173 -452.5t-396 -196.5q-164 0 -250 89t-86 236q0 102 63 334l43 158h-309l-135 -652q-55 -260 -172 -376.5t-260 -116.5q-90 0 -138.5 42t-48.5 103q0 59 38 102.5 t97 43.5q49 0 77 -31t28 -74q0 -61 -29 -90q55 -2 84 52.5t68 240.5l155 756h-188l33 125h182q45 221 174 360t328 139q98 0 172 -35zM1260 805q-78 0 -152 -89t-117 -209t-43 -218q0 -176 127 -176q88 0 160 97t104.5 213t32.5 206q1 176 -112 176zM549 975l-12 -53h317 l41 147q-70 27 -70 107q0 68 52 118q-25 20 -80 21q-104 0 -156.5 -78t-91.5 -262z" />
<glyph glyph-name="f_h" unicode="fh" horiz-adv-x="1775" d="M1249 1421l-264 -882l14 -7q96 213 213 323t232 110q84 0 134 -59.5t50 -153.5q0 -92 -75.5 -299t-75.5 -263q0 -45 36 -45q61 0 140 207l96 -30q-113 -342 -313 -342q-82 0 -132.5 51t-50.5 139q0 111 68 298t68 249q0 68 -56 67q-39 0 -87 -35.5t-108.5 -117.5 t-129 -245t-127.5 -386h-246l211 797h-336l-135 -652q-55 -260 -172 -376.5t-260 -116.5q-90 0 -138.5 42t-48.5 103q0 59 38 102.5t97 43.5q49 0 77 -31t28 -74q0 -61 -29 -90q55 -2 84 52.5t68 240.5l155 756h-188l33 125h182q45 221 174 360t328 139q106 0 176 -37z M549 975l-12 -53h342l39 143q-92 14 -93 111q0 68 52 118q-25 20 -80 21q-104 0 -156.5 -78t-91.5 -262z" />
<glyph glyph-name="f_j" unicode="fj" horiz-adv-x="1136" d="M856 797h-344l-137 -652q-55 -260 -172 -376.5t-260 -116.5q-90 0 -138.5 42t-48.5 103q0 59 38 102.5t97 43.5q49 0 77 -31t28 -74q0 -61 -29 -90q55 -2 84 52.5t68 240.5l155 756h-188l33 125h182q49 227 182 363t342 136q154 0 236 -60.5t82 -146.5q0 -68 -43 -116.5 t-115 -48.5q-59 0 -94 30.5t-35 85.5q0 78 53 127q-29 23 -98 23q-111 0 -167 -79t-95 -263l-10 -51h579l-219 -826q-121 -444 -420 -444q-90 0 -139 42t-49 103q0 57 35.5 99.5t93.5 42.5q49 0 77.5 -31t28.5 -74q0 -59 -39 -94q59 -2 94 55.5t89 265.5z" />
<glyph glyph-name="f_k" unicode="fk" horiz-adv-x="1695" d="M1200 528q106 -8 150.5 -52t44.5 -120q0 -33 -9.5 -86t-9.5 -69q0 -55 39 -56q59 0 137 207l97 -30q-106 -342 -303 -342q-86 0 -138.5 55t-52.5 153q0 31 11.5 97.5t11.5 87.5q0 57 -35 75.5t-146 18.5h-4l-125 -467h-233l211 797h-336l-135 -652q-55 -260 -172 -376.5 t-260 -116.5q-90 0 -138.5 42t-48.5 103q0 59 38 102.5t97 43.5q49 0 77 -31t28 -74q0 -61 -29 -90q55 -2 84 52.5t68 240.5l155 756h-188l33 125h182q45 221 174 360t328 139q106 0 176 -37l270 37l-231 -862h8q76 0 123 44t121 167q59 96 115.5 145.5t140.5 49.5 q72 0 111.5 -41t39.5 -108.5t-39 -120t-98 -52.5q-61 0 -90 46t-6 110q-43 -8 -107 -119q-63 -113 -137 -152zM549 975l-12 -53h342l39 143q-92 14 -93 111q0 68 52 118q-25 20 -80 21q-104 0 -156.5 -78t-91.5 -262z" />
<glyph glyph-name="f_f_b" unicode="ffb" horiz-adv-x="2269" d="M530 -348q-90 0 -138 42t-48 103q0 59 38 102.5t97 43.5q49 0 77 -31t28 -74q0 -61 -29 -90q55 -2 87 53.5t71 239.5l155 756h-356l-137 -652q-55 -260 -172 -376.5t-260 -116.5q-90 0 -138.5 42t-48.5 103q0 59 38 102.5t97 43.5q49 0 77 -31t28 -74q0 -61 -29 -90 q55 -2 84 52.5t68 240.5l155 756h-188l33 125h182q53 242 186.5 369.5t317.5 127.5q209 0 272 -129q131 131 320 131q96 0 170 -35l250 35l-207 -694l14 -6q61 119 145 181.5t175 62.5q127 0 197.5 -94.5t70.5 -241.5q0 -256 -173 -452.5t-397 -196.5q-164 0 -249.5 89 t-85.5 236q0 111 61 334l43 158h-307l-137 -652q-53 -260 -173.5 -376.5t-263.5 -116.5zM1851 805q-115 0 -212 -178t-97 -338q0 -176 127 -176q86 0 157.5 97t104.5 213t33 206q0 176 -113 176zM549 971l-10 -49h356q18 80 39 139q-47 4 -75 33.5t-28 79.5q0 70 50 118 q-25 20 -82 21q-106 0 -159.5 -79t-90.5 -263zM1143 975l-13 -53h316l41 149q-68 25 -68 105q0 72 51 118q-25 20 -79 21q-104 0 -157.5 -79t-90.5 -261z" />
<glyph glyph-name="f_f_h" unicode="ffh" horiz-adv-x="2369" d="M530 -348q-90 0 -138 42t-48 103q0 59 38 102.5t97 43.5q49 0 77 -31t28 -74q0 -61 -29 -90q55 -2 87 53.5t71 239.5l155 756h-356l-137 -652q-55 -260 -172 -376.5t-260 -116.5q-90 0 -138.5 42t-48.5 103q0 59 38 102.5t97 43.5q49 0 77 -31t28 -74q0 -61 -29 -90 q55 -2 84 52.5t68 240.5l155 756h-188l33 125h182q53 242 186.5 369.5t317.5 127.5q209 0 272 -129q131 131 320 131q102 0 176 -37l270 37l-264 -882l14 -7q96 213 213 323t230 110q84 0 135 -59.5t51 -153.5q0 -92 -75.5 -299t-75.5 -263q0 -45 34 -45q59 0 142 207 l96 -30q-113 -342 -313 -342q-84 0 -133.5 51t-49.5 139q0 111 67.5 298t67.5 249q0 68 -55 67q-39 0 -88 -35.5t-109.5 -117.5t-128 -245t-126.5 -386h-246l211 797h-336l-137 -652q-53 -260 -173.5 -376.5t-263.5 -116.5zM549 971l-10 -49h356q18 80 39 139 q-47 4 -75 33.5t-28 79.5q0 70 50 118q-25 20 -82 21q-106 0 -159.5 -79t-90.5 -263zM1143 975l-13 -53h343l38 143q-92 14 -92 111q0 72 51 118q-25 20 -79 21q-104 0 -157.5 -79t-90.5 -261z" />
<glyph glyph-name="f_f_j" unicode="ffj" horiz-adv-x="1728" d="M805 1419q104 0 175 -38t97 -95q139 135 340 135q154 0 236 -60.5t82 -146.5q0 -68 -43 -116.5t-115 -48.5q-59 0 -94 30.5t-35 85.5q0 78 53 127q-29 23 -98 23q-111 0 -167 -79t-95 -263l-11 -51h580l-219 -826q-121 -444 -420 -444q-90 0 -139 42t-49 103 q0 57 35.5 99.5t93.5 42.5q49 0 77.5 -31t28.5 -74q0 -59 -39 -94q59 -2 94 55.5t89 265.5l186 736h-344l-137 -652q-55 -260 -174 -376.5t-265 -116.5q-88 0 -137 42t-49 103q0 59 38 102.5t97 43.5q49 0 77 -31t28 -74q0 -61 -29 -90q55 -2 87 53.5t71 239.5l155 756h-354 l-137 -652q-55 -260 -172 -376.5t-260 -116.5q-90 0 -138.5 42t-48.5 103q0 59 38 102.5t97 43.5q49 0 77 -31t28 -74q0 -61 -29 -90q55 -2 84 52.5t68 240.5l155 756h-188l33 125h182q53 242 186.5 369.5t317.5 127.5zM549 971l-10 -49h354q12 61 41 139q-47 4 -75 33.5 t-28 79.5q0 70 50 118q-25 20 -82 21q-106 0 -159.5 -79t-90.5 -263z" />
<glyph glyph-name="f_f_k" unicode="ffk" horiz-adv-x="2289" d="M530 -348q-90 0 -138 42t-48 103q0 59 38 102.5t97 43.5q49 0 77 -31t28 -74q0 -61 -29 -90q55 -2 87 53.5t71 239.5l155 756h-356l-137 -652q-55 -260 -172 -376.5t-260 -116.5q-90 0 -138.5 42t-48.5 103q0 59 38 102.5t97 43.5q49 0 77 -31t28 -74q0 -61 -29 -90 q55 -2 84 52.5t68 240.5l155 756h-188l33 125h182q53 242 186.5 369.5t317.5 127.5q209 0 272 -129q131 131 320 131q102 0 176 -37l268 37l-231 -862h10q76 0 123 44t121 167q59 96 115.5 145.5t140.5 49.5q72 0 111.5 -41t39.5 -108.5t-40 -120t-99 -52.5q-61 0 -90 46 t-6 110q-39 -8 -107 -119q-66 -115 -135 -152q104 -8 148.5 -52t44.5 -120q0 -33 -8.5 -86t-8.5 -69q0 -55 39 -56q59 0 137 207l97 -30q-106 -342 -304 -342q-88 0 -139 55t-51 153q0 31 10 97.5t10 87.5q0 57 -34.5 75.5t-145.5 18.5h-4l-125 -467h-231l211 797h-336 l-137 -652q-53 -260 -173.5 -376.5t-263.5 -116.5zM549 971l-10 -49h356q18 80 39 139q-47 4 -75 33.5t-28 79.5q0 70 50 118q-25 20 -82 21q-106 0 -159.5 -79t-90.5 -263zM1143 975l-13 -53h343l38 143q-92 14 -92 111q0 72 51 118q-25 20 -79 21q-104 0 -157.5 -79 t-90.5 -261z" />
<glyph glyph-name=".notdef" horiz-adv-x="356" />
<glyph glyph-name=".null" horiz-adv-x="0" />
<glyph glyph-name="nonmarkingreturn" horiz-adv-x="682" />
<glyph glyph-name="space" unicode=" "  horiz-adv-x="356" />
<glyph glyph-bame="tab" unicode="&#x09;" horiz-adv-x="356" />
<glyph glyph-bame="uni00A0" unicode="&#xa0;" horiz-adv-x="356" />
<glyph glyph-name="exclam" unicode="!" horiz-adv-x="589" d="M219 399q29 168 62.5 440.5t48.5 356.5q14 100 52 152.5t114 52.5q66 0 106.5 -37t40.5 -98q0 -14 -2 -28.5t-7 -36t-10.5 -39t-17.5 -50.5l-21.5 -58.5l-28.5 -75.5l-34 -89q-113 -287 -192 -512zM207 -33q-59 0 -99 38t-40 101q0 59 43 109.5t110 50.5q59 0 99 -38 t40 -99t-42.5 -111.5t-110.5 -50.5z" />
<glyph glyph-name="quotedbl" unicode="&#x22;" horiz-adv-x="862" d="M279 819l-74 43l139 314q45 104 78 146t84 42q49 0 86 -34t37 -81q0 -41 -36 -89t-136 -152zM659 819l-73 43l139 314q45 104 78 146t84 42q49 0 86 -34t37 -81q0 -41 -36 -89t-136 -152z" />
<glyph glyph-name="numbersign" unicode="#" horiz-adv-x="1349" d="M174 838l31 139h291l106 389l154 -16l-103 -373h291l109 389l153 -16l-102 -373h254l-31 -139h-262l-107 -385h285l-31 -140h-290l-111 -403l-154 16l107 387h-291l-111 -403l-153 16l104 387h-254l31 140h262l105 385h-283zM616 838l-106 -385h291l106 385h-291z" />
<glyph glyph-name="dollar" unicode="$" horiz-adv-x="1128" d="M745 1454l134 -20l-35 -144q145 -27 229 -103.5t84 -160.5q0 -74 -40 -123t-105 -49q-55 0 -89 32t-34 81q0 86 69 127q-33 59 -143 86l-106 -426q154 -70 232.5 -144.5t78.5 -199.5q0 -170 -125 -290t-350 -120h-23l-43 -180l-135 20l43 174q-152 31 -247 109t-95 176 q0 72 45 123t113 51q55 0 92 -36t37 -85q0 -41 -24.5 -78.5t-61.5 -54.5q35 -59 172 -94l108 442q-72 33 -118 60.5t-92 66.5t-68.5 89.5t-22.5 111.5q0 178 140.5 291.5t341.5 116.5zM805 319q0 109 -158 191l-100 -399q129 2 193.5 59t64.5 149zM453 983q0 -98 135 -172 l94 379q-106 -10 -167.5 -69.5t-61.5 -137.5z" />
<glyph glyph-name="percent" unicode="%" horiz-adv-x="1626" d="M367 545q-131 0 -204 71.5t-73 200.5q0 174 135 322.5t305 148.5q135 0 203 -92q90 -31 197 -31q246 0 461 172l86 -77l-1155 -1319l-115 84l999 1099l-6 6q-135 -84 -299 -83q-74 0 -125 8v-6q0 -102 -50 -217t-147 -201t-212 -86zM1184 -29q-131 0 -204 72t-73 199 q0 174 135.5 322.5t305.5 148.5q111 0 178 -62.5t67 -175.5q0 -102 -50 -217t-147 -201t-212 -86zM1202.5 80q100.5 0 187.5 134t87 261q0 121 -101 121q-98 0 -186 -138.5t-88 -262.5q0 -115 100.5 -115zM385 653q100 0 187 134.5t87 261.5q0 14 -4 38q-74 31 -125 78 q-92 -23 -168.5 -152.5t-76.5 -244.5t100 -115z" />
<glyph glyph-name="ampersand" unicode="&#x26;" horiz-adv-x="1425" d="M1251 801q66 0 110 -40t44 -106q0 -70 -40 -124t-99 -54q-61 0 -91 43t-12 103q-25 -14 -46 -35t-49 -58.5t-40 -55l-50 -75t-44 -67.5q86 -195 147 -195q37 0 69 32t83 128l90 -51q-68 -152 -137.5 -214.5t-159.5 -62.5q-96 0 -151.5 44t-110.5 149q-82 -96 -170 -145.5 t-203 -49.5q-160 0 -258 85t-98 227q0 303 430 428q-94 139 -94 249q0 154 112.5 247t270.5 93q145 0 232 -74.5t87 -189.5q0 -219 -332 -338q94 -143 142 -262l54 87.5l56.5 90t53 71.5t62.5 65.5t63.5 37t78.5 17.5zM467 133q137 0 244 123q-66 176 -191 367 q-229 -102 -229 -304q0 -86 47 -136t129 -50zM598 1006q0 -86 90 -228q190 94 191 258q0 59 -35 99.5t-99 40.5q-61 0 -104 -47t-43 -123z" />
<glyph glyph-name="quotesingle" unicode="'" horiz-adv-x="479" d="M279 819l-74 43l139 314q45 104 78 146t84 42q49 0 86 -34t37 -81q0 -41 -36 -89t-136 -152z" />
<glyph glyph-name="parenleft" unicode="(" horiz-adv-x="763" d="M535 -324q-186 123 -295 308.5t-109 418.5q0 375 230.5 669t601.5 409l43 -113q-287 -125 -462 -399.5t-175 -589.5q0 -385 254 -606z" />
<glyph glyph-name="parenright" unicode=")" horiz-adv-x="763" d="M283 1479q186 -123 294.5 -308.5t108.5 -418.5q0 -375 -230.5 -669t-600.5 -409l-43 113q287 125 462 399.5t175 589.5q0 385 -254 606z" />
<glyph glyph-name="asterisk" unicode="*" horiz-adv-x="888" d="M651 737q-20 59 -20 248l-27 8q-102 -168 -145 -205q-78 -63 -135 7q-61 74 22 135q45 37 229 96l-2 29q-201 47 -237 73q-82 55 -33 134q51 76 133 18q47 -33 160 -190l27 10q-10 215 0 250q27 96 114 73q86 -25 60 -123q-16 -55 -129 -210l16 -23q176 74 238 80 q100 6 104 -86q6 -90 -98 -94q-57 -2 -240 55l-18 -21q133 -158 151 -202q37 -94 -51 -125q-86 -35 -119 63z" />
<glyph glyph-name="plus" unicode="+" horiz-adv-x="1075" d="M379 139l90 369h-358l34 143h361l92 367h156l-92 -367h358l-35 -143h-360l-90 -369h-156z" />
<glyph glyph-name="comma" unicode="," horiz-adv-x="495" d="M-102 -313l-25 92q240 68 299 213l-12 8q-18 -12 -43 -12q-49 0 -80 32.5t-31 88.5q0 68 44 120t112 52q78 0 122 -52.5t44 -132.5q0 -139 -110.5 -248.5t-319.5 -160.5z" />
<glyph glyph-name="hyphen" unicode="-" horiz-adv-x="733" d="M94 426l45 176h520l-45 -176h-520z" />
<glyph glyph-name="period" unicode="." horiz-adv-x="495" d="M158 -33q-59 0 -98.5 40t-39.5 105.5t44.5 119t113.5 53.5q59 0 98 -40t39 -105.5t-43.5 -119t-113.5 -53.5z" />
<glyph glyph-name="slash" unicode="/" horiz-adv-x="878" d="M-285 -381l1229 1864l137 -66l-1231 -1863z" />
<glyph glyph-name="zero" unicode="0" horiz-adv-x="1179" d="M524 -33q-199 0 -312.5 139.5t-113.5 380.5q0 209 78 401.5t225.5 317.5t327.5 125q197 0 310.5 -139t113.5 -381q0 -209 -78 -401.5t-225.5 -317.5t-325.5 -125zM727 1192q-86 0 -159.5 -89t-117.5 -220t-69 -263.5t-25 -234.5q0 -279 168 -279q86 0 160 89.5t118 220.5 t68.5 263t24.5 234q0 279 -168 279z" />
<glyph glyph-name="one" unicode="1" horiz-adv-x="972" d="M4 0l35 152h283l219 876q-61 -23 -150 -22q-100 0 -149 20l28 127q123 -6 240 37t182 125h166l-289 -1163h283l-29 -152h-819z" />
<glyph glyph-name="two" unicode="2" horiz-adv-x="1163" d="M451 1116q74 -45 73 -139q0 -61 -39 -108.5t-110 -49.5q-72 0 -116 45t-44 121q0 135 136 240.5t347 105.5q205 0 323 -102.5t118 -249.5q0 -174 -114 -268.5t-314 -155.5q-236 -74 -335.5 -142.5t-152.5 -166.5l6 -6q98 57 207 57q84 0 182.5 -48t139.5 -48q61 0 108 48 t103 167l102 -21q-61 -229 -149 -328.5t-217 -99.5q-70 0 -129.5 31t-93 68.5t-74.5 68.5t-80 31q-29 0 -58 -10q10 -31 11 -56q0 -61 -34 -97t-89 -36q-53 0 -90 41t-37 119q0 88 45 168t126 144.5t148.5 105.5t157.5 84q195 94 286 172t91 200q0 90 -59.5 142.5 t-159.5 52.5q-139 0 -215 -80z" />
<glyph glyph-name="three" unicode="3" horiz-adv-x="1089" d="M244 180q20 -35 77.5 -58.5t135.5 -23.5q135 0 202.5 90.5t67.5 217.5q0 190 -276 190h-50l37 137h47q182 0 258 76q88 88 88 219q0 172 -194 172q-113 0 -168 -45q41 -45 41 -108q0 -66 -40 -110t-108 -44q-63 0 -102 38t-39 99q0 131 137.5 216t309.5 85 q203 0 314.5 -89t111.5 -218q0 -143 -103.5 -243.5t-322.5 -116.5l-2 -7q324 -55 323 -284q0 -166 -140 -286t-360 -120q-207 0 -332.5 90t-125.5 226q0 76 48 131t122 55q61 0 97 -39t36 -94q0 -105 -90 -156z" />
<glyph glyph-name="four" unicode="4" horiz-adv-x="1161" d="M662 524l145 580h-10l-553 -580h418zM803 150h194l-36 -150h-633l37 150h202l58 223h-594l35 153l774 795h254l-199 -797h260l-37 -151h-260z" />
<glyph glyph-name="five" unicode="5" horiz-adv-x="1087" d="M459 1077l-105 -327q106 72 262 71q184 0 287 -94t103 -246q0 -127 -58.5 -240.5t-187.5 -193.5t-303 -80q-168 0 -289 88t-121 215q0 84 49 143.5t125 59.5q57 0 93 -36t36 -89q0 -104 -104 -151q20 -41 71.5 -69t120.5 -28q147 0 227 116t80 265q0 104 -60 153.5 t-155 49.5q-129 0 -251 -80l-101 43l201 639l47 35q164 -72 365 -72q168 0 323 66l37 -78q-162 -213 -408 -213q-153 0 -284 53z" />
<glyph glyph-name="six" unicode="6" horiz-adv-x="1126" d="M539 100q111 0 177 121t66 264q0 98 -47 150.5t-127 52.5q-117 0 -186.5 -106.5t-69.5 -249.5q0 -109 49.5 -170.5t137.5 -61.5zM1147 1077q0 -76 -45 -130t-115 -54q-61 0 -97 36t-36 85q0 86 76 139q-31 47 -127 47q-152 0 -256.5 -136t-153.5 -384q125 139 297 139 q156 0 255 -95t99 -251q0 -193 -132 -349.5t-359 -156.5q-205 0 -322.5 130t-117.5 364q0 215 79.5 411.5t239.5 327.5t363 131q156 0 254 -70.5t98 -183.5z" />
<glyph glyph-name="seven" unicode="7" horiz-adv-x="1095" d="M506 119q-29 -82 -66 -120t-94 -38t-97 39t-40 94q0 139 201.5 382t453.5 444q141 117 162 133l-8 10q-119 -63 -230 -64q-82 0 -164.5 40t-113.5 40q-55 0 -96 -54t-105 -212h-143l121 492h157l-26 -156h12q98 168 223 168q53 0 96.5 -30t67 -64.5t60 -64.5t81.5 -30 q20 0 41 5q-10 29 -10 61q0 59 35 98t94 39q53 0 88 -33.5t35 -80.5q0 -61 -36 -111.5t-124 -120.5q-186 -147 -325 -350t-250 -516z" />
<glyph glyph-name="eight" unicode="8" horiz-adv-x="1116" d="M1112 1012q0 -117 -81 -202t-220 -120q199 -117 199 -305q0 -172 -135.5 -295t-364.5 -123q-213 0 -334 95.5t-121 238.5q0 123 90.5 212t245.5 122q-170 109 -170 287q0 162 129 285.5t346 123.5q193 0 304.5 -93t111.5 -226zM494 580q-12 4 -17 8q-98 -41 -153.5 -114 t-55.5 -161q0 -94 64.5 -155.5t187.5 -61.5q119 0 186.5 61.5t67.5 151.5q0 47 -18.5 83t-67.5 71t-83 53.5t-113 56.5zM727 743l-2 -6q90 45 138 119t48 154q0 86 -55 140t-161.5 54t-170 -58.5t-63.5 -139.5q0 -90 63.5 -143.5t202.5 -119.5z" />
<glyph glyph-name="nine" unicode="9" horiz-adv-x="1126" d="M670 1198q-113 0 -180.5 -122t-67.5 -271q0 -102 47 -156.5t127 -54.5q117 0 187.5 107.5t70.5 254.5q0 115 -49 178.5t-135 63.5zM43 233q0 74 45 126.5t117 52.5q61 0 97 -36t36 -85q0 -84 -76 -139q47 -53 146 -54q152 0 254 132t147 372q-119 -139 -297 -139 q-156 0 -253 96t-97 258q0 197 132 355.5t359 158.5q207 0 325 -130t118 -365q0 -219 -77 -414t-233.5 -325t-361.5 -130q-172 0 -276.5 76.5t-104.5 189.5z" />
<glyph glyph-name="colon" unicode=":" horiz-adv-x="520" d="M168 -33q-59 0 -98 40t-39 105.5t44 119t113 53.5q59 0 98.5 -40t39.5 -105.5t-44 -119t-114 -53.5zM324 553q-59 0 -98.5 40t-39.5 105.5t44 118.5t114 53q59 0 98 -39.5t39 -105.5t-43.5 -119t-113.5 -53z" />
<glyph glyph-name="semicolon" unicode=";" horiz-adv-x="520" d="M-92 -313l-25 92q240 68 299 213l-12 8q-18 -12 -43 -12q-49 0 -80 32.5t-31 88.5q0 68 44 120t112 52q78 0 122 -52.5t44 -132.5q0 -139 -110.5 -248.5t-319.5 -160.5zM324 553q-59 0 -98.5 40t-39.5 105.5t44 118.5t114 53q59 0 98 -39.5t39 -105.5t-43.5 -119 t-113.5 -53z" />
<glyph glyph-name="less" unicode="&#x3c;" horiz-adv-x="1073" d="M815 141l-661 377l34 148l807 356l45 -135l-718 -309l555 -297z" />
<glyph glyph-name="equal" unicode="=" horiz-adv-x="1075" d="M166 702l39 148h854l-39 -148h-854zM68 307l38 148h855l-39 -148h-854z" />
<glyph glyph-name="greater" unicode="&#x3e;" horiz-adv-x="1073" d="M313 1022l662 -377l-35 -147l-805 -357l-47 133l721 310l-557 297z" />
<glyph glyph-name="question" unicode="?" horiz-adv-x="950" d="M756 524q-113 -152 -295 -151q-100 0 -170 55t-70 156q0 106 77 170.5t230 124.5q96 37 147.5 61.5t93.5 71.5t42 108q0 72 -49 114t-141 42q-98 0 -158 -43q39 -53 39 -107q0 -61 -42 -108t-112 -47q-59 0 -98 40t-39 101q0 119 119 204t303 85q199 0 305 -93.5 t106 -230.5q0 -143 -97 -219t-283 -135q-129 -43 -184.5 -76t-55.5 -88q0 -66 80 -65q86 0 184 96zM342 -33q-61 0 -100 39t-39 103q0 59 43 108t110 49q61 0 100.5 -38t39.5 -103q0 -59 -43 -108.5t-111 -49.5z" />
<glyph glyph-name="at" unicode="@" horiz-adv-x="1814" d="M1294 -98l43 -82q-217 -125 -489 -125q-330 0 -542 196.5t-212 524.5q0 412 291 700.5t696 288.5q299 0 495 -170t196 -459q0 -268 -138.5 -465.5t-349.5 -197.5q-111 0 -176.5 59t-52.5 174l-8 2q-53 -104 -129 -159.5t-154 -55.5q-121 0 -194.5 84t-73.5 227 q0 211 139 374t321 163q78 0 132.5 -47t62.5 -123l49 156h195l-158 -500q-76 -240 90 -240q117 0 220.5 158t103.5 387q0 246 -159 390.5t-419 144.5q-172 0 -330.5 -72t-274.5 -190.5t-185.5 -282.5t-69.5 -342q0 -279 178 -453t469 -174q235 0 434 109zM825 270 q117 0 194 150.5t77 286.5q0 160 -115 159q-63 0 -116.5 -48t-85 -119.5t-49 -145.5t-17.5 -133q-1 -150 112 -150z" />
<glyph glyph-name="A" unicode="A" d="M707 154h194l-24 301h-453l-176 -301h170l-37 -154h-502l39 154h141l727 1202h252l123 -1202h180l-38 -154h-633zM502 592h364l-43 541h-8z" />
<glyph glyph-name="B" unicode="B" horiz-adv-x="1314" d="M-53 0l35 154h206l258 1040h-208l38 154h592q250 0 356.5 -82t106.5 -205q0 -131 -103.5 -232.5t-324.5 -119.5l-2 -11q162 -27 245 -103.5t83 -188.5q0 -145 -101 -246q-160 -160 -546 -160h-635zM600 776h154q158 0 235.5 78t77.5 176q0 82 -52 123t-177 41h-133z M446 154h160q190 0 277.5 78.5t87.5 205.5q0 195 -283 195h-123z" />
<glyph glyph-name="C" unicode="C" horiz-adv-x="1386" d="M690 -33q-274 0 -418.5 157t-144.5 415q0 154 55.5 305t151.5 270t239.5 192.5t307.5 73.5q256 0 366 -166l84 160h158l-131 -532h-154q-27 389 -315 389q-127 0 -227.5 -78t-153.5 -195.5t-80 -231.5t-27 -208q0 -195 87 -291t231 -96q154 0 258 104.5t188 301.5 l146 -52q-84 -236 -237 -377t-384 -141z" />
<glyph glyph-name="D" unicode="D" horiz-adv-x="1470" d="M-53 0l35 154h206l258 1040h-208l38 154h543q311 0 481 -145.5t170 -381.5q0 -152 -61 -305.5t-176 -265.5q-246 -250 -694 -250h-592zM446 152h115q272 0 418 145q90 90 149.5 255t59.5 314q0 330 -371 330h-110z" />
<glyph glyph-name="E" unicode="E" d="M276 1348h1197l-113 -457h-123q-4 195 -37 250t-156 55h-337l-109 -438h94q102 0 141 32.5t99 165.5h133l-135 -540h-129q14 133 -8.5 167.5t-120.5 34.5h-109l-117 -466h342q133 0 190.5 60t166.5 290h135l-125 -502h-1208l35 154h206l258 1040h-208z" />
<glyph glyph-name="F" unicode="F" horiz-adv-x="1308" d="M590 733h76q100 0 142 37t93 164h131l-137 -549h-129q16 141 -5.5 176t-125.5 35h-80l-109 -442h238l-37 -154h-700l35 154h206l258 1040h-208l38 154h1168l-117 -467h-123q-8 201 -48 258t-165 57h-286z" />
<glyph glyph-name="G" unicode="G" horiz-adv-x="1464" d="M678 129q131 0 223 97.5t133 256.5l13 49h-242l39 154h663l-37 -154h-167l-142 -546h-151l-17 180q-139 -199 -375 -199q-229 0 -360 159t-131 404q0 213 92 405.5t268.5 318.5t393.5 126q256 0 366 -166l84 160h158l-129 -524h-164q-29 381 -307 381q-127 0 -227.5 -79 t-153.5 -196.5t-80 -231.5t-27 -208q0 -201 80 -294t197 -93z" />
<glyph glyph-name="H" unicode="H" horiz-adv-x="1605" d="M-53 0l35 154h206l258 1040h-208l38 154h648l-37 -154h-180l-107 -424h553l104 424h-182l37 154h647l-37 -154h-206l-259 -1040h209l-36 -154h-648l37 154h180l119 473h-553l-119 -473h185l-37 -154h-647z" />
<glyph glyph-name="I" unicode="I" horiz-adv-x="823" d="M-39 0l35 154h207l258 1040h-209l39 154h674l-39 -154h-205l-260 -1040h209l-37 -154h-672z" />
<glyph glyph-name="J" unicode="J" horiz-adv-x="1148" d="M1104 1194l-201 -811q-106 -416 -495 -416q-188 0 -297 91.5t-109 217.5q0 98 55.5 165t145.5 67q68 0 107.5 -42t39.5 -104q0 -123 -135 -165q16 -35 64.5 -60.5t113.5 -25.5q96 0 156.5 68.5t97.5 217.5l199 797h-213l37 154h667l-37 -154h-196z" />
<glyph glyph-name="K" unicode="K" horiz-adv-x="1464" d="M1430 1194l-506 -410l297 -630h176l-37 -154h-623l37 152h162l-209 475l-203 -166l-78 -309h179l-37 -152h-641l35 154h206l258 1040h-208l38 154h646l-39 -152h-176l-134 -532l629 532h-166l39 152h549l-37 -154h-157z" />
<glyph glyph-name="L" unicode="L" horiz-adv-x="1234" d="M276 1348h682l-36 -152h-215l-261 -1044h242q137 0 198.5 64.5t170.5 293.5h127l-127 -510h-1110l35 154h206l258 1040h-208z" />
<glyph glyph-name="M" unicode="M" horiz-adv-x="1906" d="M-47 0l37 154h188l258 1040h-190l37 154h563l80 -938h6l538 938h588l-39 -154h-196l-260 -1040h200l-37 -154h-622l37 154h164l251 1013h-20l-692 -1167h-117l-115 1167h-18l-252 -1013h176l-35 -154h-530z" />
<glyph glyph-name="N" unicode="N" horiz-adv-x="1585" d="M1026 -27l-430 1092h-18l-228 -911h199l-37 -154h-553l37 154h190l258 1040h-192l37 154h469l385 -971h18l203 817h-197l37 154h555l-39 -154h-190l-305 -1221h-199z" />
<glyph glyph-name="O" unicode="O" horiz-adv-x="1474" d="M127 559q0 201 91 387.5t267.5 310t395.5 123.5q252 0 411.5 -163.5t159.5 -428.5q0 -201 -91 -387t-267 -310t-394 -124q-252 0 -412.5 164t-160.5 428zM870 1231q-119 0 -214 -81t-147 -203t-80 -247t-28 -231q0 -174 81 -263t229 -89q119 0 213 81t147 202.5t81 246.5 t28 232q0 174 -82.5 263t-227.5 89z" />
<glyph glyph-name="P" unicode="P" horiz-adv-x="1271" d="M543 539l-97 -385h224l-35 -154h-688l35 154h206l258 1040h-208l38 154h568q264 0 388 -94.5t124 -249.5q0 -84 -32 -161t-101.5 -147.5t-202.5 -113.5t-313 -43h-164zM580 684h135q182 0 268 93t86 229q0 190 -274 190h-88z" />
<glyph glyph-name="Q" unicode="Q" horiz-adv-x="1474" d="M705 -29q-258 0 -418 162t-160 426q0 201 91 387.5t267.5 310t395.5 123.5q252 0 411.5 -163.5t159.5 -428.5q0 -211 -104.5 -408.5t-282.5 -307.5q41 -111 115 -111q49 0 82.5 33t74.5 133l109 -37q-98 -315 -311 -315q-109 0 -169.5 57t-95.5 160q-75 -21 -165 -21z M426 315q76 207 281 207q125 0 190.5 -65.5t106.5 -182.5q88 119 132 290t44 315q0 174 -82 263t-228 89q-119 0 -214 -81t-147 -203t-80 -247t-28 -231q0 -109 25 -154zM713 113q61 0 116 20q-27 115 -65.5 173.5t-114.5 58.5q-55 0 -93 -37t-38 -86q0 -57 56.5 -93 t138.5 -36z" />
<glyph glyph-name="R" unicode="R" horiz-adv-x="1409" d="M-53 0l35 154h206l258 1040h-208l38 154h660q238 0 343 -87t105 -217q0 -152 -111.5 -256t-338.5 -124l-6 -17q131 -27 185 -83t54 -152q0 -35 -10 -104.5t-10 -98.5q0 -41 17.5 -56.5t54.5 -15.5q51 0 110 58l55 -80q-113 -139 -274 -140q-111 0 -172 48.5t-61 142.5 q0 43 20.5 147.5t20.5 155.5q0 59 -42 90t-143 31h-178l-109 -436h205l-37 -154h-667zM592 733h168q176 0 258 82q82 78 82 221q-4 160 -213 160h-180z" />
<glyph glyph-name="S" unicode="S" horiz-adv-x="1202" d="M-18 -27l122 506h146q29 -180 126 -273t236 -93q117 0 186.5 62.5t69.5 146.5q0 97 -139 173q-32 18 -141 68q-82 37 -130 63.5t-108.5 72.5t-89.5 107.5t-29 139.5q0 174 139.5 304t340.5 130q109 0 203 -42t145 -113l84 149h153l-120 -485h-144q-31 186 -108.5 267 t-212.5 81q-98 0 -163 -60.5t-65 -142.5t66.5 -132t199.5 -109q14 -7 21 -9q80 -35 128 -60.5t106.5 -70.5t86 -105.5t27.5 -135.5q0 -188 -146.5 -316.5t-357.5 -128.5q-260 0 -389 164l-90 -158h-153z" />
<glyph glyph-name="T" unicode="T" horiz-adv-x="1384" d="M217 0l37 154h221l264 1063h-71q-121 0 -184.5 -65t-196.5 -310h-127l129 506h1229l-127 -506h-117q-8 240 -42 307.5t-157 67.5h-71l-265 -1063h226l-37 -154h-711z" />
<glyph glyph-name="U" unicode="U" horiz-adv-x="1505" d="M719 -35q-242 0 -374 105.5t-132 271.5q0 84 25 182l168 670h-189l39 154h633l-39 -154h-186l-170 -682q-18 -80 -19 -145q0 -113 79 -172.5t208 -59.5q147 0 235 88q78 78 119 236l182 735h-192l39 154h538l-36 -154h-181l-196 -788q-47 -190 -154 -297 q-143 -144 -397 -144z" />
<glyph glyph-name="V" unicode="V" horiz-adv-x="1384" d="M592 1194l90 -956h8l565 956h-172l39 154h500l-37 -154h-141l-742 -1202h-235l-137 1202h-178l36 154h633l-37 -154h-192z" />
<glyph glyph-name="W" unicode="W" horiz-adv-x="2013" d="M1159 -8l-39 817l-473 -817h-235l-80 1202h-180l36 154h617l-37 -152h-176l43 -938h10l461 793l-6 145h-178l36 152h617l-37 -152h-188l30 -938h11l495 938h-174l37 152h502l-39 -154h-139l-674 -1202h-240z" />
<glyph glyph-name="X" unicode="X" horiz-adv-x="1390" d="M827 1196h-168l160 -379l359 379h-160l39 152h520l-37 -154h-158l-489 -498l244 -542h176l-37 -154h-621l37 152h172l-170 405l-389 -405h162l-37 -152h-522l39 154h155l519 524l-238 516h-174l37 154h618z" />
<glyph glyph-name="Y" unicode="Y" horiz-adv-x="1306" d="M780 702l400 494h-164l37 152h485l-39 -154h-143l-543 -643l-98 -397h198l-36 -154h-652l37 154h195l104 413l-207 627h-161l38 154h617l-39 -152h-176z" />
<glyph glyph-name="Z" unicode="Z" horiz-adv-x="1267" d="M-41 0l33 129l1038 1067h-323q-88 0 -135.5 -21.5t-100.5 -93t-145 -243.5h-119l127 510h1065l-33 -129l-1036 -1067h366q123 0 186.5 61t196.5 311h121l-131 -524h-1110z" />
<glyph glyph-name="bracketleft" unicode="[" horiz-adv-x="722" d="M-23 -324l449 1805h569l-37 -142h-335l-377 -1521h334l-35 -142h-568z" />
<glyph glyph-name="backslash" unicode="\" horiz-adv-x="878" d="M748 -401l-152 -29l-326 1864l150 28z" />
<glyph glyph-name="bracketright" unicode="]" horiz-adv-x="722" d="M799 1481l-449 -1805h-569l37 142h336l376 1521h-333l34 142h568z" />
<glyph glyph-name="asciicircum" unicode="^" horiz-adv-x="716" d="M176 1036l363 432h125l145 -432h-129l-117 224l-248 -224h-139z" />
<glyph glyph-name="underscore" unicode="_" horiz-adv-x="907" d="M-113 0l37 154h916l-39 -154h-914z" />
<glyph glyph-name="grave" unicode="`" horiz-adv-x="514" d="M535 1319l40 -225h-108l-100 153q-70 104 -70 164q0 39 29.5 70.5t72.5 31.5q45 0 73 -27.5t38.5 -62t24.5 -104.5z" />
<glyph glyph-name="a" unicode="a" horiz-adv-x="1155" d="M1047 950l-168 -635q-23 -74 -23 -116q0 -53 47 -54q66 0 137 207l99 -30q-109 -342 -316 -342q-76 0 -122 47t-46 133q0 25 2 45l-14 6q-57 -113 -139 -172t-172 -59q-127 0 -200 92t-73 233q0 152 54.5 286t140.5 218q152 156 319 156q82 0 133.5 -49.5t65.5 -122.5 l41 157h234zM426 143q113 0 204 188.5t91 336.5q0 164 -111 163q-84 0 -157.5 -93t-109.5 -207.5t-36 -204.5q0 -183 119 -183z" />
<glyph glyph-name="b" unicode="b" horiz-adv-x="1058" d="M641 805q-115 0 -212 -178t-97 -338q0 -176 125 -176q88 0 159.5 97t104.5 213t33 206q0 176 -113 176zM604 1411l-207 -684l17 -6q61 117 145 180.5t172 63.5q129 0 199.5 -94.5t70.5 -241.5q0 -256 -173 -452.5t-396 -196.5q-166 0 -251 89t-85 236q0 111 62 334 l168 612h-170l41 160h407z" />
<glyph glyph-name="c" unicode="c" horiz-adv-x="960" d="M625 965q131 0 214 -67t83 -175q0 -70 -40 -123t-104 -53q-53 0 -87 31.5t-34 78.5q0 80 84 140q-29 51 -112 51q-96 0 -174 -87t-115 -197.5t-37 -207.5q0 -121 53.5 -176t132.5 -55q141 0 267 194l88 -59q-162 -281 -410 -280q-168 0 -272.5 104t-104.5 272 q0 240 173.5 424.5t394.5 184.5z" />
<glyph glyph-name="d" unicode="d" horiz-adv-x="1155" d="M426 143q78 0 149.5 97.5t110.5 222.5t39 221q0 147 -111 147q-90 0 -163.5 -94t-108.5 -207.5t-35 -203.5q0 -183 119 -183zM1040 352l99 -30q-109 -342 -316 -342q-74 0 -121 47t-47 133q0 25 2 45l-14 6q-57 -113 -139 -172t-172 -59q-127 0 -200 92t-73 233 q0 152 54.5 286t140.5 218q152 156 319 156q156 0 203 -154l117 440h-170l41 160h405l-290 -1096q-23 -74 -23 -116q0 -53 47 -54q65 0 137 207z" />
<glyph glyph-name="e" unicode="e" horiz-adv-x="964" d="M926 752q0 -147 -158 -248t-465 -119q-2 -16 -2 -47q0 -223 191 -223q154 0 286 188l86 -61q-88 -125 -192.5 -193.5t-255.5 -68.5q-160 0 -259.5 102t-99.5 270q0 240 178.5 426.5t415.5 186.5q129 0 202 -58.5t73 -154.5zM616 852q-100 0 -179 -111.5t-115 -259.5 q203 23 296 94.5t93 174.5q0 45 -25 73.5t-70 28.5z" />
<glyph glyph-name="f" unicode="f" horiz-adv-x="724" d="M-57 -348q-90 0 -138.5 42t-48.5 103q0 59 38 102.5t97 43.5q49 0 77 -31t28 -74q0 -61 -29 -90q55 -2 84 52.5t68 240.5l157 756h-190l33 125h182q53 244 180 371.5t305 127.5q125 0 191.5 -54t66.5 -132q0 -70 -41.5 -121t-105.5 -51q-53 0 -86 29.5t-33 83.5 q0 80 58 127q-18 12 -56 12q-100 0 -146 -78t-85 -264l-10 -51h270l-33 -125h-264l-137 -652q-55 -260 -172 -376.5t-260 -116.5z" />
<glyph glyph-name="g" unicode="g" horiz-adv-x="1062" d="M188 -217q45 -20 119 -21q111 0 182 74q84 84 146 346l-14 6q-106 -143 -275 -143q-131 0 -205.5 90t-74.5 223q0 283 188 471q135 135 297 136q84 0 143.5 -47.5t77.5 -120.5l39 153h233l-186 -792q-63 -268 -200.5 -387t-346.5 -119q-59 0 -113.5 9t-107.5 29.5 t-86 62.5t-33 99.5t38 104.5t102 47q59 0 89.5 -33.5t30.5 -85.5q0 -59 -43 -102zM438 197q113 0 199 147.5t86 312.5q0 78 -38 126t-95 48q-80 0 -145.5 -77.5t-98.5 -183t-33 -203.5q0 -170 125 -170z" />
<glyph glyph-name="h" unicode="h" horiz-adv-x="1163" d="M823 -20q-84 0 -133 51t-49 139q0 111 67.5 298t67.5 249q0 68 -55 67q-39 0 -88 -35.5t-109.5 -117.5t-128 -245t-127.5 -386h-245l331 1251h-170l41 160h408l-260 -872l14 -7q96 213 213 323t229 110q84 0 135.5 -59.5t51.5 -153.5q0 -92 -76 -299t-76 -263 q0 -45 35 -45q59 0 141 207l97 -30q-113 -342 -314 -342z" />
<glyph glyph-name="i" unicode="i" horiz-adv-x="706" d="M666 1288q0 -68 -50.5 -124t-126.5 -56q-55 0 -91 36t-36 95q0 68 48.5 124t124.5 56q59 0 95 -35t36 -96zM557 758q0 -86 -83 -297t-83 -266q0 -49 41 -50q61 0 146 207l96 -30q-113 -342 -326 -342q-82 0 -133 51t-51 141q0 106 85 323.5t85 272.5q0 45 -31 45 q-70 0 -166 -215l-98 41q139 326 336 326q82 0 132 -55.5t50 -151.5z" />
<glyph glyph-name="j" unicode="j" horiz-adv-x="632" d="M666 1288q0 -68 -50.5 -124t-126.5 -56q-55 0 -91 36t-36 95q0 68 48.5 124t124.5 56q59 0 95 -35t36 -96zM557 770q0 -66 -29 -174l-129 -490q-121 -455 -434 -454q-102 0 -153.5 41t-51.5 104q0 59 39 102.5t97 43.5q49 0 77.5 -31t28.5 -74q0 -57 -33 -98 q68 -2 106 62.5t93 281.5l135 518q31 123 31 164q0 47 -35 47q-61 0 -162 -215l-96 41q139 326 338 326q78 0 128 -54.5t50 -140.5z" />
<glyph glyph-name="k" unicode="k" horiz-adv-x="1083" d="M764 201q0 -55 39 -56q59 0 137 207l96 -30q-106 -342 -303 -342q-88 0 -139 55t-51 153q0 31 11 97.5t11 87.5q0 57 -35.5 75.5t-146.5 18.5h-4l-125 -467h-231l331 1251h-170l41 160h408l-230 -852h11q76 0 123 44t120 167q59 96 115.5 145.5t140.5 49.5q72 0 112 -41 t40 -108.5t-39 -120t-100.5 -52.5t-90 46t-6.5 110q-39 -8 -106 -119q-59 -113 -135 -152q104 -8 148 -52t44 -120q0 -33 -8 -86t-8 -69z" />
<glyph glyph-name="l" unicode="l" horiz-adv-x="624" d="M82 172q0 76 55 281l217 798h-172l41 160h408l-291 -1067q-31 -111 -31 -149q0 -49 41 -50q68 0 146 207l96 -30q-113 -342 -320 -342q-90 0 -140 51t-50 141z" />
<glyph glyph-name="m" unicode="m" horiz-adv-x="1796" d="M1456 -20q-84 0 -133 51t-49 139q0 111 67.5 298t67.5 249q0 68 -55 67q-37 0 -83 -35.5t-104.5 -117.5t-123 -245t-121.5 -386h-242l143 541q29 104 29 155q0 88 -61 88q-39 0 -86.5 -35.5t-104.5 -117.5t-121.5 -245t-122.5 -386h-245l176 664q23 88 19.5 118.5 t-32.5 30.5q-59 0 -159 -215l-97 41q139 324 328 324q68 0 109 -49.5t41 -141.5q0 -96 -43 -227l14 -6q98 211 208.5 318.5t217.5 107.5q84 0 128 -52.5t44 -146.5q0 -76 -47 -221l14 -6q199 426 432 426q84 0 134.5 -59.5t50.5 -153.5q0 -92 -76 -299t-76 -263 q0 -45 35 -45q59 0 141 207l96 -30q-112 -342 -313 -342z" />
<glyph glyph-name="n" unicode="n" horiz-adv-x="1232" d="M934 190q0 -45 35 -45q59 0 141 207l96 -30q-113 -342 -313 -342q-84 0 -133 51t-49 139q0 111 67.5 298t67.5 249q0 68 -55 67q-39 0 -86.5 -35.5t-104.5 -117.5t-121.5 -245t-122.5 -386h-245l176 664q23 88 19.5 118.5t-32.5 30.5q-59 0 -159 -215l-97 41 q139 324 328 324q68 0 109 -49.5t41 -141.5q0 -96 -43 -227l14 -6q199 426 432 426q84 0 135 -59.5t51 -153.5q0 -92 -75.5 -299.5t-75.5 -262.5z" />
<glyph glyph-name="o" unicode="o" horiz-adv-x="1044" d="M598 965q176 0 282.5 -111t106.5 -285q0 -238 -162.5 -413.5t-378.5 -175.5q-174 0 -281.5 110.5t-107.5 286.5q0 238 163 413t378 175zM743 666q0 186 -143 186q-88 0 -159.5 -103.5t-105.5 -231.5t-34 -236q0 -186 143 -187q88 0 160 103.5t105.5 231.5t33.5 237z" />
<glyph glyph-name="p" unicode="p" horiz-adv-x="1153" d="M735 805q-78 0 -150.5 -90t-113.5 -209t-41 -211q0 -78 34 -124t99 -46q63 0 119.5 55.5t91.5 137t54.5 165.5t19.5 148q0 174 -113 174zM281 641q41 154 -17 154q-33 0 -65.5 -44t-83.5 -153l-97 41q74 170 151 247t173 77q70 0 112 -49.5t42 -135.5q0 -14 -4 -51l16 -6 q57 117 142 180.5t173 63.5q127 0 199 -92.5t72 -239.5q0 -248 -145.5 -441.5t-334.5 -193.5q-80 0 -141 37t-92 100l-82 -305h193l-41 -152h-568l41 152h139z" />
<glyph glyph-name="q" unicode="q" horiz-adv-x="1067" d="M1053 950l-295 -1120h149l-41 -152h-567l41 152h184l101 356l-15 7q-49 -88 -123.5 -140.5t-156.5 -52.5q-127 0 -198 96.5t-71 241.5q0 281 189 469q158 158 325 158q84 0 136.5 -49.5t64.5 -122.5l43 157h234zM420 160q80 0 153.5 91t113.5 207.5t40 209.5 q0 164 -115 163q-88 0 -160.5 -91t-107.5 -203.5t-35 -200.5q0 -176 111 -176z" />
<glyph glyph-name="r" unicode="r" horiz-adv-x="962" d="M111 0l176 664q23 88 19.5 118.5t-32.5 30.5q-59 0 -159 -215l-97 41q139 324 328 324q68 0 109 -49.5t41 -141.5t-41 -221l16 -6q96 217 177 318.5t183 101.5q66 0 108 -42t42 -114q0 -76 -43 -130t-104 -54q-55 0 -90 35.5t-33 97.5q-27 -10 -62 -52t-82 -124 t-103 -233.5t-108 -348.5h-245z" />
<glyph glyph-name="s" unicode="s" horiz-adv-x="905" d="M797 301q0 -152 -113 -236.5t-274 -84.5q-156 0 -274 63t-118 174q0 61 38 104.5t98 43.5q57 0 88.5 -34t31.5 -79q0 -72 -49 -113q59 -53 176 -53q80 0 125 38t45 107q0 37 -28.5 68t-61 48.5t-98.5 47.5q-57 27 -90 45.5t-73 49t-58.5 70.5t-18.5 89q0 150 118 233 t267 83q156 0 254.5 -61.5t98.5 -153.5q0 -61 -37 -104.5t-94 -43.5q-55 0 -88 33t-33 80q0 66 49 108q-43 39 -141 39q-76 0 -123 -37t-47 -100q0 -55 46 -90t158 -86q51 -23 83 -40t69 -48t55.5 -70t18.5 -90z" />
<glyph glyph-name="t" unicode="t" horiz-adv-x="794" d="M797 797h-291l-123 -449q-25 -88 -25 -123q0 -74 72 -73q96 0 193 221l98 -33q-68 -197 -168 -278.5t-201 -81.5q-104 0 -167.5 53t-63.5 153q0 55 37 203l110 408h-180l33 125h180l68 245l243 27l-73 -272h290z" />
<glyph glyph-name="u" unicode="u" horiz-adv-x="1228" d="M911 -20q-174 0 -174 192q0 90 45 234l-14 6q-197 -432 -426 -432q-84 0 -135 59t-51 156q0 92 72.5 301t72.5 260q0 43 -31 43q-33 0 -64.5 -42t-86.5 -157l-96 41q133 324 333 324q82 0 127 -49.5t45 -137.5q0 -102 -67.5 -291.5t-67.5 -246.5q0 -80 58 -80 q39 0 84 35.5t101 117.5t120.5 246t124.5 391h245l-168 -635q-23 -76 -22 -116q0 -53 47 -54q66 0 137 207l99 -30q-109 -342 -308 -342z" />
<glyph glyph-name="v" unicode="v" horiz-adv-x="1032" d="M365 965q82 0 126 -48.5t44 -130.5q0 -100 -74 -286.5t-74 -239.5t36 -81.5t93 -28.5q133 0 237.5 180t112.5 360q-23 -14 -59 -14q-51 0 -86 34.5t-35 94.5q0 66 44 116t108 50q162 0 161 -223q0 -147 -68.5 -323.5t-203.5 -313t-293 -136.5q-123 0 -200.5 72t-77.5 178 q0 94 77.5 291t77.5 238q0 45 -32 45q-37 0 -68 -42t-90 -159l-96 41q143 326 340 326z" />
<glyph glyph-name="w" unicode="w" horiz-adv-x="1527" d="M371 965q84 0 127 -48.5t43 -132.5q0 -111 -84 -302t-84 -253q0 -80 73 -79q57 0 117 68.5t134.5 254.5t140.5 477h221l-101 -420q-35 -145 -34 -243q0 -137 102 -137q86 0 162 89t120 210.5t50 238.5q-25 -12 -55 -12q-53 0 -87 34.5t-34 94.5q0 66 44 116t105 50 q76 0 120 -53.5t44 -155.5q0 -113 -37 -245t-102.5 -255t-172 -205t-227.5 -82q-109 0 -171 68t-60 203q0 35 4 61l-14 4q-129 -336 -346 -336q-100 0 -165 62.5t-65 171.5q0 100 88 295.5t88 251.5q0 43 -30 43q-37 0 -70 -44t-88 -157l-96 41q143 326 340 326z" />
<glyph glyph-name="x" unicode="x" horiz-adv-x="1144" d="M680 332q0 -188 96 -189q47 0 87 53.5t83 165.5l98 -40q-109 -342 -331 -342q-211 0 -224 305h-12q-59 -154 -143 -232t-174 -78q-74 0 -118 44t-44 114q0 63 37 111.5t92 48.5q59 0 90 -42t21 -110q92 29 157.5 183.5t65.5 287.5q0 188 -92 189q-49 0 -89 -53.5 t-81 -165.5l-101 41q111 342 334 342q211 0 219 -306h13q59 152 143 231t176 79q74 0 117 -43t43 -115q0 -66 -37 -113t-92 -47q-59 0 -89 42t-22 112q-92 -31 -157.5 -186.5t-65.5 -286.5z" />
<glyph glyph-name="y" unicode="y" horiz-adv-x="1132" d="M360 965q78 0 123 -48.5t45 -130.5q0 -102 -59 -271t-59 -220q0 -72 67 -72q223 0 410 727h229l-188 -790q-119 -508 -551 -508q-129 0 -222.5 44t-93.5 146q0 55 39 101.5t103 46.5q59 0 91 -36t27.5 -89t-40.5 -88q43 -14 94 -15q238 0 338 414l41 162l-13 6 q-162 -297 -364 -297q-98 0 -150.5 59.5t-52.5 153.5q0 84 65.5 263t65.5 233q0 43 -31 43q-61 0 -155 -201l-96 41q142 326 337 326z" />
<glyph glyph-name="z" unicode="z" horiz-adv-x="952" d="M289 281q57 -6 160.5 -42t150.5 -36q72 0 108.5 38t96.5 162l90 -36q-70 -207 -145.5 -297t-208.5 -90q-160 0 -267 165l-45 68l-18 -4q-31 -229 -148 -229q-47 0 -77.5 30.5t-30.5 73.5q0 125 203 184q102 125 239.5 232.5t257.5 163.5q-57 6 -156.5 41.5t-142.5 35.5 q-70 0 -106.5 -37.5t-95.5 -160.5l-93 35q70 207 146 297t209 90q150 0 256 -166l43 -68l18 4q31 229 148 230q47 0 77.5 -30t30.5 -73q0 -129 -203 -186q-102 -125 -238 -231.5t-259 -163.5z" />
<glyph glyph-name="braceleft" unicode="{" horiz-adv-x="802" d="M629 -324q-215 20 -311.5 90t-96.5 199q0 80 55.5 231.5t55.5 198.5q0 111 -219 111h-66l37 145h57q170 0 240 68q49 49 71.5 138t26.5 173t34 179.5t87 152.5q135 137 473 119l-33 -135q-176 -2 -237 -64q-47 -49 -69.5 -166t-53.5 -241.5t-98 -192.5q-80 -84 -275 -102 l-4 -13q244 -33 244 -192q0 -61 -46 -205.5t-46 -196.5q0 -66 46 -102.5t163 -56.5z" />
<glyph glyph-name="bar" unicode="|" horiz-adv-x="589" d="M-4 -406l465 1866l153 -22l-467 -1866z" />
<glyph glyph-name="braceright" unicode="}" horiz-adv-x="802" d="M227 1481q215 -20 311.5 -90t96.5 -199q0 -80 -55.5 -231.5t-55.5 -198.5q0 -111 219 -111h66l-37 -145h-57q-170 0 -240 -68q-49 -49 -71.5 -138t-26.5 -173t-34 -179t-87 -153q-135 -137 -473 -119l33 136q176 2 237 63q47 49 69.5 166t53.5 242t98 192q80 84 275 103 l4 12q-244 33 -244 192q0 61 46 206t46 196q0 66 -46 102.5t-162 56.5z" />
<glyph glyph-name="asciitilde" unicode="~" horiz-adv-x="796" d="M299 623q-55 0 -113 -121h-116q51 147 111.5 220t150.5 73q57 0 107 -28t87 -55.5t62 -27.5q31 0 55.5 26.5t56.5 94.5h117q-51 -147 -110.5 -220t-151.5 -73q-74 0 -152.5 55.5t-103.5 55.5z" />
<glyph glyph-name="exclamdown" unicode="&#xa1;" horiz-adv-x="589" d="M483 967q-29 -168 -62.5 -440.5t-47.5 -356.5q-14 -100 -52 -152.5t-114 -52.5q-66 0 -107 37t-41 98q0 14 2 28.5t7.5 36t10.5 39t17.5 50.5l21.5 58.5t28.5 75.5l33.5 89q113 287 193 512zM496 1399q59 0 99 -38t40 -101q0 -59 -43 -109.5t-111 -50.5q-59 0 -99 38 t-40 99t43 111.5t111 50.5z" />
<glyph glyph-name="cent" unicode="&#xa2;" horiz-adv-x="1024" d="M641 1141l129 -21l-39 -164q123 -18 191.5 -88.5t68.5 -158.5q0 -68 -38 -119t-101 -51q-55 0 -88 31.5t-33 80.5q0 84 78 140q-29 41 -115 53l-180 -719h16q162 0 293 194l88 -59q-158 -276 -432 -280l-47 -195l-129 20l47 187q-135 31 -208.5 128t-73.5 245 q0 227 153.5 403t376.5 195zM305 365q0 -164 94 -213l170 682q-125 -41 -194.5 -187.5t-69.5 -281.5z" />
<glyph glyph-name="sterling" unicode="&#xa3;" horiz-adv-x="1249" d="M997 567h-329q-6 -154 -113 -268l82 -31q184 -76 242 -75q61 0 98 37.5t80 146.5l106 -23q-53 -211 -126.5 -298t-198.5 -87q-100 0 -180 39t-179 117l-33 25q-55 -92 -114.5 -134.5t-136.5 -42.5q-88 0 -139.5 48.5t-51.5 125.5q0 86 76 147.5t196 61.5q68 0 156 -18 q12 49 12 88q0 43 -20 141h-295l37 144h225q-10 57 -10 112q0 223 151.5 365.5t368.5 142.5q176 0 275.5 -76.5t99.5 -185.5q0 -80 -47 -136t-123 -56q-61 0 -99 33.5t-38 93.5q0 100 96 143q-55 59 -156 59q-264 0 -264 -352q0 -72 10 -143h379zM215 86q78 0 154 113 q-66 35 -127 34q-47 0 -75 -23.5t-28 -57.5q0 -66 76 -66z" />
<glyph glyph-name="yen" unicode="&#xa5;" horiz-adv-x="1318" d="M223 682h303l-155 465h-162l39 151h592l-39 -151h-166l135 -455l363 455h-156l39 151h467l-37 -151h-146l-389 -465h289l-33 -139h-368l-27 -113h369l-35 -139h-371l-35 -141h224l-35 -150h-682l37 150h223l35 141h-375l37 139h373l28 113h-377z" />
<glyph glyph-name="section" unicode="&#xa7;" horiz-adv-x="1052" d="M985 586q0 -119 -83 -195t-220 -96q137 -94 137 -221q0 -141 -124 -231.5t-281 -90.5q-166 0 -294 71t-128 185q0 66 41 112t102 46q55 0 88 -31t33 -74q0 -88 -61 -127q76 -72 221 -71q84 0 131 40t47 107q0 63 -50 106.5t-171 108.5q-68 37 -104 59.5t-80 60.5t-62 80 t-18 95q0 115 85 190.5t224 94.5q-125 92 -125 215q0 143 123 231t280 88q162 0 273.5 -66.5t111.5 -170.5q0 -63 -38.5 -108.5t-102.5 -45.5q-55 0 -89 33t-34 76q0 74 60 119q-59 53 -181 53q-82 0 -130 -39t-48 -105q0 -63 51.5 -108t165.5 -107q59 -33 95 -56t77 -58 t59.5 -77t18.5 -93zM592 700l-90 50q-170 -37 -170 -166q0 -39 26.5 -75t56 -56.5t79.5 -46.5l100 -56q168 39 168 166q0 53 -44 95t-126 89z" />
<glyph glyph-name="dieresis" unicode="&#xa8;" horiz-adv-x="714" d="M508 1286q0 -59 -45 -111.5t-113 -52.5q-49 0 -80.5 33t-31.5 86q0 63 42 114.5t109 51.5q53 0 86 -33t33 -88zM893 1286q0 -59 -45 -111.5t-113 -52.5q-49 0 -80.5 33t-31.5 86q0 63 42 114.5t109 51.5q53 0 86 -33t33 -88z" />
<glyph glyph-name="copyright" unicode="&#xa9;" horiz-adv-x="1611" d="M843.5 -68q-317.5 0 -531.5 212t-214 530q0 315 214 528t531.5 213t531.5 -213t214 -528q0 -317 -214 -529.5t-531.5 -212.5zM843.5 20q276.5 0 460 186.5t183.5 467.5q0 279 -183.5 466t-460 187t-459.5 -187.5t-183 -465.5q0 -281 183 -467.5t459.5 -186.5zM856 289 q-166 0 -272.5 111.5t-106.5 281.5q0 164 110.5 276.5t260.5 112.5q127 0 205 -88l20 86h94v-291h-94q-39 102 -89 152.5t-124 50.5q-201 0 -201 -291q0 -301 218 -301q178 0 206 219h103q-16 -150 -103.5 -234.5t-226.5 -84.5z" />
<glyph glyph-name="ordfeminine" unicode="&#xaa;" horiz-adv-x="858" d="M698 1331h172l-122 -450q-14 -51 -15 -84q0 -37 33 -37q49 0 100 145l70 -20q-80 -246 -227 -246q-55 0 -89 33t-34 92q0 18 2 35l-13 4q-84 -164 -223 -164q-90 0 -143 65.5t-53 165.5q0 106 40 202.5t101 158.5q111 111 231 110q57 0 94 -34.5t48 -87.5zM424 758 q80 0 143.5 133t63.5 237q0 117 -78 117q-88 0 -150.5 -126t-62.5 -232q0 -129 84 -129z" />
<glyph glyph-name="guillemotleft" unicode="&#xab;" horiz-adv-x="1042" d="M360 63l-260 328q-37 45 -37 76q0 37 74 92l412 303l61 -67l-321 -342l157 -336zM782 63l-260 328q-35 45 -35 76q0 37 74 92l410 303l61 -67l-321 -342l159 -336z" />
<glyph glyph-name="registered" unicode="&#xae;" horiz-adv-x="1048" d="M647.5 508q-194.5 0 -324.5 129t-130 324q0 197 130 324.5t324 127.5q197 0 327 -128t130 -324q0 -195 -131 -324t-325.5 -129zM647 573q172 0 275.5 106.5t103.5 281t-103.5 280t-275.5 105.5q-168 0 -271.5 -106.5t-103.5 -279t103.5 -280t271.5 -107.5zM598 934v-143 h68v-56h-238v56h68v350h-68v57h248q96 0 139 -35t43 -86q0 -98 -135 -114v-5q57 -8 81.5 -31.5t31.5 -68.5l2 -35q6 -35 20 -35q16 0 31 39l37 -14q-25 -88 -97 -88q-98 0 -98 106v33q0 37 -14.5 53.5t-54.5 16.5h-64zM598 987h64q84 0 83 82q0 39 -17 55.5t-62 16.5h-68 v-154z" />
<glyph glyph-name="macron" unicode="&#xaf;" horiz-adv-x="694" d="M240 1118l43 172h557l-45 -172h-555z" />
<glyph glyph-name="degree" unicode="&#xb0;" horiz-adv-x="813" d="M520 842q92 0 143.5 81t51.5 175q0 76 -39 116.5t-109 40.5q-92 0 -142 -80.5t-50 -175.5q0 -76 38.5 -116.5t106.5 -40.5zM885 1096q0 -160 -106.5 -268.5t-266.5 -108.5q-147 0 -228 82t-81 198q0 162 105.5 270.5t266.5 108.5q147 0 228.5 -81.5t81.5 -200.5z" />
<glyph glyph-name="plusminus" unicode="&#xb1;" horiz-adv-x="1101" d="M446 330l82 327h-319l31 129h319l82 322h141l-82 -322h318l-31 -129h-317l-82 -327h-142zM836 57h-777l33 131h776z" />
<glyph glyph-name="acute" unicode="&#xb4;" horiz-adv-x="514" d="M565 1245l-190 -151h-121l170 274q51 80 84 114t80 34q45 0 74.5 -33t29.5 -72q0 -41 -25.5 -72t-101.5 -94z" />
<glyph glyph-name="paragraph" unicode="&#xb6;" horiz-adv-x="1320" d="M449 -219l139 559q-201 16 -321 122.5t-120 274.5q0 72 19.5 140.5t69 140.5t125 124t198.5 86t281 34h610l-37 -152h-178l-332 -1329h-155l333 1331h-143l-334 -1331h-155z" />
<glyph glyph-name="periodcentered" unicode="&#xb7;" horiz-adv-x="497" d="M285 496q-59 0 -98.5 39.5t-39.5 105.5t44.5 119t113.5 53q59 0 98 -40t39 -105.5t-43.5 -118.5t-113.5 -53z" />
<glyph glyph-name="cedilla" unicode="&#xb8;" horiz-adv-x="626" d="M-123 -336q84 -57 170 -57q41 0 67.5 20.5t26.5 53.5q0 45 -50 64t-130 13l-27 64l234 190h139l-166 -141v-8q80 -14 127 -57.5t47 -108.5q0 -84 -66.5 -142.5t-187.5 -58.5q-143 0 -247 86z" />
<glyph glyph-name="ordmasculine" unicode="&#xba;" horiz-adv-x="772" d="M553 1341q125 0 200.5 -78.5t75.5 -203.5q0 -170 -115.5 -295t-271.5 -125q-125 0 -201.5 79t-76.5 206q0 168 116.5 292.5t272.5 124.5zM653 1124q0 133 -96 133q-66 0 -118 -72.5t-75.5 -162.5t-23.5 -168q0 -133 98 -133q66 0 117 73.5t74.5 163.5t23.5 166z" />
<glyph glyph-name="guillemotright" unicode="&#xbb;" horiz-adv-x="1042" d="M678 860l260 -328q37 -45 37 -75q0 -37 -74 -92l-412 -304l-61 68l322 342l-158 336zM256 860l260 -328q35 -45 35 -75q0 -37 -74 -92l-409 -304l-62 68l322 342l-160 336z" />
<glyph glyph-name="questiondown" unicode="&#xbf;" horiz-adv-x="950" d="M303 842q113 152 295 151q100 0 170 -55t70 -156q0 -106 -77 -170.5t-231 -124.5q-96 -37 -147 -61.5t-93 -71.5t-42 -108q0 -72 49 -114t141 -42q98 0 158 43q-39 53 -39 107q0 61 42 108t112 47q59 0 98 -40t39 -101q0 -119 -119 -204t-303 -85q-199 0 -305.5 93.5 t-106.5 230.5q0 143 97.5 219t283.5 135q129 43 184.5 76t55.5 88q0 66 -80 65q-86 0 -184 -96zM717 1399q61 0 100 -39t39 -103q0 -59 -43 -108t-111 -49q-61 0 -100 38t-39 103q0 59 43 108.5t111 49.5z" />
<glyph glyph-name="Agrave" unicode="&#xc0;" d="M707 154h194l-24 301h-453l-176 -301h170l-37 -154h-502l39 154h141l727 1202h252l123 -1202h180l-38 -154h-633zM502 592h364l-43 541h-8zM952 1733l41 -226h-108l-101 154q-70 104 -69 164q0 39 29.5 70.5t72.5 31.5q45 0 73 -27.5t38 -62t24 -104.5z" />
<glyph glyph-name="Aacute" unicode="&#xc1;" d="M707 154h194l-24 301h-453l-176 -301h170l-37 -154h-502l39 154h141l727 1202h252l123 -1202h180l-38 -154h-633zM502 592h364l-43 541h-8zM1147 1659l-191 -152h-120l170 275q51 80 83.5 113.5t79.5 33.5q45 0 75 -32.5t30 -71.5q0 -41 -25.5 -72t-101.5 -94z" />
<glyph glyph-name="Acircumflex" unicode="&#xc2;" d="M707 154h194l-24 301h-453l-176 -301h170l-37 -154h-502l39 154h141l727 1202h252l123 -1202h180l-38 -154h-633zM502 592h364l-43 541h-8zM635 1509l334 387h118l142 -387h-125l-111 185l-221 -185h-137z" />
<glyph glyph-name="Atilde" unicode="&#xc3;" d="M707 154h194l-24 301h-453l-176 -301h170l-37 -154h-502l39 154h141l727 1202h252l123 -1202h180l-38 -154h-633zM502 592h364l-43 541h-8zM836 1628q-31 0 -55.5 -26.5t-57.5 -92.5h-117q49 147 109.5 220t152.5 73q57 0 109.5 -27.5t91.5 -55t66 -27.5q31 0 55 26.5 t57 91.5h117q-49 -145 -109.5 -218.5t-152.5 -73.5q-57 0 -109.5 27.5t-91 55t-65.5 27.5z" />
<glyph glyph-name="Adieresis" unicode="&#xc4;" d="M707 154h194l-24 301h-453l-176 -301h170l-37 -154h-502l39 154h141l727 1202h252l123 -1202h180l-38 -154h-633zM502 592h364l-43 541h-8zM932 1700q0 -59 -45 -111.5t-113 -52.5q-49 0 -80.5 33t-31.5 86q0 63 41.5 114.5t109.5 51.5q53 0 86 -33t33 -88zM1317 1700 q0 -59 -45 -111.5t-113 -52.5q-49 0 -80.5 33t-31.5 86q0 63 41.5 114.5t109.5 51.5q53 0 86 -33t33 -88z" />
<glyph glyph-name="Aring" unicode="&#xc5;" d="M1180 1567q0 -72 -38 -132.5t-102 -91.5l121 -1189h180l-38 -154h-633l37 154h194l-24 301h-455l-176 -301h172l-37 -154h-502l39 154h141l732 1206q-74 53 -74 151q0 104 69.5 177t180.5 73q98 0 155.5 -56t57.5 -138zM500 592h366l-43 543h-8zM838 1509 q0 -47 25.5 -75.5t72.5 -28.5q55 0 88 53t33 115q0 47 -25.5 74.5t-70.5 27.5q-57 0 -90 -52.5t-33 -113.5z" />
<glyph glyph-name="AE" unicode="&#xc6;" horiz-adv-x="2072" d="M676 154h205l82 321h-449l-270 -323h170l-37 -152h-529l37 154h144l907 1040h-195l35 154h1389l-113 -457h-123q-4 195 -36.5 250t-155.5 55h-338l-109 -438h94q102 0 141.5 32.5t98.5 165.5h133l-135 -540h-127q12 133 -10.5 167.5t-120.5 34.5h-109l-116 -466h342 q133 0 190.5 60t167.5 290h135l-125 -502h-1210zM631 612h364l146 586h-17z" />
<glyph glyph-name="Ccedilla" unicode="&#xc7;" horiz-adv-x="1386" d="M332 -336q84 -57 170 -57q41 0 67.5 20.5t26.5 53.5q0 45 -50 64t-130 13l-27 64l189 153q-219 31 -335 182.5t-116 381.5q0 154 55.5 305t151.5 270t239.5 192.5t307.5 73.5q256 0 366 -166l84 160h158l-131 -532h-154q-27 389 -315 389q-127 0 -227.5 -78 t-153.5 -195.5t-80 -231.5t-27 -208q0 -195 87 -291t231 -96q154 0 258 104.5t188 301.5l146 -52q-82 -231 -230.5 -371.5t-371.5 -146.5l-113 -96v-8q80 -14 127 -57.5t47 -108.5q0 -84 -66.5 -142.5t-187.5 -58.5q-143 0 -248 86z" />
<glyph glyph-name="Egrave" unicode="&#xc8;" d="M276 1348h1197l-113 -457h-123q-4 195 -37 250t-156 55h-337l-109 -438h94q102 0 141 32.5t99 165.5h133l-135 -540h-129q14 133 -8.5 167.5t-120.5 34.5h-109l-117 -466h342q133 0 190.5 60t166.5 290h135l-125 -502h-1208l35 154h206l258 1040h-208zM967 1733l41 -226 h-109l-100 154q-70 104 -70 164q0 39 29.5 70.5t72.5 31.5q45 0 73 -27.5t38.5 -62t24.5 -104.5z" />
<glyph glyph-name="Eacute" unicode="&#xc9;" d="M1161 1659l-190 -152h-121l170 275q51 80 84 113.5t80 33.5q45 0 74.5 -32.5t29.5 -71.5q0 -41 -25.5 -72t-101.5 -94zM276 1348h1197l-113 -457h-123q-4 195 -37 250t-156 55h-337l-109 -438h94q102 0 141 32.5t99 165.5h133l-135 -540h-129q14 133 -8.5 167.5 t-120.5 34.5h-109l-117 -466h342q133 0 190.5 60t166.5 290h135l-125 -502h-1208l35 154h206l258 1040h-208z" />
<glyph glyph-name="Ecircumflex" unicode="&#xca;" d="M649 1509l334 387h119l141 -387h-125l-110 185l-222 -185h-137zM276 1348h1197l-113 -457h-123q-4 195 -37 250t-156 55h-337l-109 -438h94q102 0 141 32.5t99 165.5h133l-135 -540h-129q14 133 -8.5 167.5t-120.5 34.5h-109l-117 -466h342q133 0 190.5 60t166.5 290h135 l-125 -502h-1208l35 154h206l258 1040h-208z" />
<glyph glyph-name="Edieresis" unicode="&#xcb;" d="M946 1700q0 -59 -45 -111.5t-113 -52.5q-49 0 -80.5 33t-31.5 86q0 63 42 114.5t109 51.5q53 0 86 -33t33 -88zM1331 1700q0 -59 -45 -111.5t-112 -52.5q-49 0 -81 33t-32 86q0 63 42 114.5t109 51.5q53 0 86 -33t33 -88zM276 1348h1197l-113 -457h-123q-4 195 -37 250 t-156 55h-337l-109 -438h94q102 0 141 32.5t99 165.5h133l-135 -540h-129q14 133 -8.5 167.5t-120.5 34.5h-109l-117 -466h342q133 0 190.5 60t166.5 290h135l-125 -502h-1208l35 154h206l258 1040h-208z" />
<glyph glyph-name="Igrave" unicode="&#xcc;" horiz-adv-x="823" d="M-39 0l35 154h207l258 1040h-209l39 154h674l-39 -154h-205l-260 -1040h209l-37 -154h-672zM674 1733l41 -226h-109l-100 154q-70 104 -70 164q0 39 30 70.5t73 31.5q45 0 72.5 -27.5t38 -62t24.5 -104.5z" />
<glyph glyph-name="Iacute" unicode="&#xcd;" horiz-adv-x="823" d="M-39 0l35 154h207l258 1040h-209l39 154h674l-39 -154h-205l-260 -1040h209l-37 -154h-672zM868 1659l-190 -152h-121l170 275q51 80 84 113.5t80 33.5q45 0 74.5 -32.5t29.5 -71.5q0 -41 -25.5 -72t-101.5 -94z" />
<glyph glyph-name="Icircumflex" unicode="&#xce;" horiz-adv-x="823" d="M-39 0l35 154h207l258 1040h-209l39 154h674l-39 -154h-205l-260 -1040h209l-37 -154h-672zM356 1509l334 387h119l141 -387h-125l-110 185l-221 -185h-138z" />
<glyph glyph-name="Idieresis" unicode="&#xcf;" horiz-adv-x="823" d="M-39 0l35 154h207l258 1040h-209l39 154h674l-39 -154h-205l-260 -1040h209l-37 -154h-672zM655 1700q0 -59 -45 -111.5t-112 -52.5q-49 0 -81 33t-32 86q0 63 42 114.5t110 51.5q53 0 85.5 -33t32.5 -88zM1040 1700q0 -59 -45 -111.5t-112 -52.5q-49 0 -81 33t-32 86 q0 63 42 114.5t110 51.5q53 0 85.5 -33t32.5 -88z" />
<glyph glyph-name="Eth" unicode="&#xd0;" horiz-adv-x="1470" d="M-53 0l35 154h206l117 471h-207l39 155h207l102 414h-208l38 154h543q311 0 481 -145.5t170 -381.5q0 -152 -61 -305.5t-176 -265.5q-246 -250 -694 -250h-592zM446 152h115q272 0 418 145q90 90 149.5 255t59.5 314q0 330 -371 330h-110l-105 -416h260l-37 -155h-262z " />
<glyph glyph-name="Ntilde" unicode="&#xd1;" horiz-adv-x="1585" d="M1026 -27l-430 1092h-18l-228 -911h199l-37 -154h-553l37 154h190l258 1040h-192l37 154h469l385 -971h18l203 817h-197l37 154h555l-39 -154h-190l-305 -1221h-199zM932 1628q-31 0 -55.5 -26.5t-57.5 -92.5h-117q49 147 109.5 220t153.5 73q57 0 109 -27.5t91 -55 t66 -27.5q31 0 55.5 26.5t56.5 91.5h117q-49 -145 -109.5 -218.5t-152.5 -73.5q-57 0 -109.5 27.5t-91 55t-65.5 27.5z" />
<glyph glyph-name="Ograve" unicode="&#xd2;" horiz-adv-x="1474" d="M127 559q0 201 91 387.5t267.5 310t395.5 123.5q252 0 411.5 -163.5t159.5 -428.5q0 -201 -91 -387t-267 -310t-394 -124q-252 0 -412.5 164t-160.5 428zM870 1231q-119 0 -214 -81t-147 -203t-80 -247t-28 -231q0 -174 81 -263t229 -89q119 0 213 81t147 202.5t81 246.5 t28 232q0 174 -82.5 263t-227.5 89zM989 1733l41 -226h-108l-101 154q-70 104 -69 164q0 39 29.5 70.5t72.5 31.5q45 0 72.5 -27.5t38 -62t24.5 -104.5z" />
<glyph glyph-name="Oacute" unicode="&#xd3;" horiz-adv-x="1474" d="M1184 1659l-191 -152h-121l170 275q51 80 84 113.5t80 33.5q45 0 75 -32.5t30 -71.5q0 -41 -25.5 -72t-101.5 -94zM127 559q0 201 91 387.5t267.5 310t395.5 123.5q252 0 411.5 -163.5t159.5 -428.5q0 -201 -91 -387t-267 -310t-394 -124q-252 0 -412.5 164t-160.5 428z M870 1231q-119 0 -214 -81t-147 -203t-80 -247t-28 -231q0 -174 81 -263t229 -89q119 0 213 81t147 202.5t81 246.5t28 232q0 174 -82.5 263t-227.5 89z" />
<glyph glyph-name="Ocircumflex" unicode="&#xd4;" horiz-adv-x="1474" d="M674 1509l334 387h118l142 -387h-125l-111 185l-221 -185h-137zM127 559q0 201 91 387.5t267.5 310t395.5 123.5q252 0 411.5 -163.5t159.5 -428.5q0 -201 -91 -387t-267 -310t-394 -124q-252 0 -412.5 164t-160.5 428zM870 1231q-119 0 -214 -81t-147 -203t-80 -247 t-28 -231q0 -174 81 -263t229 -89q119 0 213 81t147 202.5t81 246.5t28 232q0 174 -82.5 263t-227.5 89z" />
<glyph glyph-name="Otilde" unicode="&#xd5;" horiz-adv-x="1474" d="M127 559q0 201 91 387.5t267.5 310t395.5 123.5q252 0 411.5 -163.5t159.5 -428.5q0 -201 -91 -387t-267 -310t-394 -124q-252 0 -412.5 164t-160.5 428zM870 1231q-119 0 -214 -81t-147 -203t-80 -247t-28 -231q0 -174 81 -263t229 -89q119 0 213 81t147 202.5t81 246.5 t28 232q0 174 -82.5 263t-227.5 89zM872 1628q-31 0 -55 -26.5t-57 -92.5h-117q49 147 109.5 220t152.5 73q57 0 109.5 -27.5t91.5 -55t65 -27.5q31 0 55.5 26.5t57.5 91.5h117q-49 -145 -109.5 -218.5t-152.5 -73.5q-57 0 -109.5 27.5t-91.5 55t-66 27.5z" />
<glyph glyph-name="Odieresis" unicode="&#xd6;" horiz-adv-x="1474" d="M971 1700q0 -59 -45 -111.5t-113 -52.5q-49 0 -81 33t-32 86q0 63 42 114.5t110 51.5q53 0 86 -33t33 -88zM1356 1700q0 -59 -45 -111.5t-113 -52.5q-49 0 -81 33t-32 86q0 63 42 114.5t110 51.5q53 0 86 -33t33 -88zM127 559q0 201 91 387.5t267.5 310t395.5 123.5 q252 0 411.5 -163.5t159.5 -428.5q0 -201 -91 -387t-267 -310t-394 -124q-252 0 -412.5 164t-160.5 428zM870 1231q-119 0 -214 -81t-147 -203t-80 -247t-28 -231q0 -174 81 -263t229 -89q119 0 213 81t147 202.5t81 246.5t28 232q0 174 -82.5 263t-227.5 89z" />
<glyph glyph-name="multiply" unicode="&#xd7;" horiz-adv-x="1064" d="M668 573l215 -294l-123 -99l-209 295l-352 -293l-84 113l358 291l-215 295l123 96l207 -293l352 291l84 -111z" />
<glyph glyph-name="Oslash" unicode="&#xd8;" horiz-adv-x="1474" d="M127 559q0 201 91 387.5t267.5 310t395.5 123.5q217 0 372 -129l195 211l104 -92l-209 -217q109 -150 109 -365q0 -201 -91 -387t-267 -310t-394 -124q-223 0 -374 127l-193 -209l-104 92l207 218q-109 149 -109 364zM870 1231q-119 0 -214 -81t-147 -203t-80 -247 t-28 -231q0 -68 9 -111l710 756q-80 117 -250 117zM1180 879q0 53 -11 110l-708 -756q76 -117 250 -116q119 0 213 81t147 202.5t81 247t28 231.5z" />
<glyph glyph-name="Ugrave" unicode="&#xd9;" horiz-adv-x="1505" d="M719 -35q-242 0 -374 105.5t-132 271.5q0 84 25 182l168 670h-189l39 154h633l-39 -154h-186l-170 -682q-18 -80 -19 -145q0 -113 79 -172.5t208 -59.5q147 0 235 88q78 78 119 236l182 735h-192l39 154h538l-36 -154h-181l-196 -788q-47 -190 -154 -297 q-143 -144 -397 -144zM1047 1733l40 -226h-108l-100 154q-70 104 -70 164q0 39 29.5 70.5t72.5 31.5q45 0 73 -27.5t38.5 -62t24.5 -104.5z" />
<glyph glyph-name="Uacute" unicode="&#xda;" horiz-adv-x="1505" d="M1241 1659l-190 -152h-121l170 275q51 80 84 113.5t80 33.5q45 0 74.5 -32.5t29.5 -71.5q0 -41 -25.5 -72t-101.5 -94zM719 -35q-242 0 -374 105.5t-132 271.5q0 84 25 182l168 670h-189l39 154h633l-39 -154h-186l-170 -682q-18 -80 -19 -145q0 -113 79 -172.5 t208 -59.5q147 0 235 88q78 78 119 236l182 735h-192l39 154h538l-36 -154h-181l-196 -788q-47 -190 -154 -297q-143 -144 -397 -144z" />
<glyph glyph-name="Ucircumflex" unicode="&#xdb;" horiz-adv-x="1505" d="M729 1509l334 387h119l141 -387h-125l-111 185l-221 -185h-137zM719 -35q-242 0 -374 105.5t-132 271.5q0 84 25 182l168 670h-189l39 154h633l-39 -154h-186l-170 -682q-18 -80 -19 -145q0 -113 79 -172.5t208 -59.5q147 0 235 88q78 78 119 236l182 735h-192l39 154 h538l-36 -154h-181l-196 -788q-47 -190 -154 -297q-143 -144 -397 -144z" />
<glyph glyph-name="Udieresis" unicode="&#xdc;" horiz-adv-x="1505" d="M1026 1700q0 -59 -45 -111.5t-113 -52.5q-49 0 -80.5 33t-31.5 86q0 63 42 114.5t109 51.5q53 0 86 -33t33 -88zM1411 1700q0 -59 -45 -111.5t-113 -52.5q-49 0 -80.5 33t-31.5 86q0 63 42 114.5t109 51.5q53 0 86 -33t33 -88zM719 -35q-242 0 -374 105.5t-132 271.5 q0 84 25 182l168 670h-189l39 154h633l-39 -154h-186l-170 -682q-18 -80 -19 -145q0 -113 79 -172.5t208 -59.5q147 0 235 88q78 78 119 236l182 735h-192l39 154h538l-36 -154h-181l-196 -788q-47 -190 -154 -297q-143 -144 -397 -144z" />
<glyph glyph-name="Yacute" unicode="&#xdd;" horiz-adv-x="1306" d="M780 702l400 494h-164l37 152h485l-39 -154h-143l-543 -643l-98 -397h198l-36 -154h-652l37 154h195l104 413l-207 627h-161l38 154h617l-39 -152h-176zM1128 1659l-190 -152h-121l170 275q51 80 84 113.5t80 33.5q45 0 74.5 -32.5t29.5 -71.5q0 -41 -25.5 -72 t-101.5 -94z" />
<glyph glyph-name="Thorn" unicode="&#xde;" horiz-adv-x="1290" d="M-53 0l37 154h204l258 1040h-206l39 154h663l-37 -154h-198l-31 -121h110q514 0 514 -338q0 -72 -29.5 -139.5t-96 -135t-197.5 -108.5t-309 -41h-183l-39 -157h203l-37 -154h-665zM741 926h-102l-117 -467h150q176 0 257 81t81 195q0 98 -62 144.5t-207 46.5z" />
<glyph glyph-name="germandbls" unicode="&#xdf;" horiz-adv-x="1204" d="M846 731q0 -29 18.5 -56.5t34.5 -43t80 -70.5q80 -66 123 -125t43 -143q0 -141 -104.5 -227t-249.5 -86q-139 0 -219 54t-80 138q0 57 37.5 100t99.5 43q49 0 80.5 -32.5t31.5 -81.5q0 -63 -45 -99q29 -23 92 -22q61 0 102.5 38t41.5 105q0 51 -34 93t-107 102 q-55 47 -81 71.5t-50.5 66.5t-24.5 87q0 74 36 123t132 125q86 70 127 127t41 145q0 70 -39 111t-107 41q-113 0 -176 -81t-100 -261l-174 -830q-55 -260 -172 -376.5t-260 -116.5q-90 0 -138.5 42t-48.5 105q0 57 38 100.5t97 43.5q49 0 77 -31t28 -74q0 -61 -29 -90 q55 0 84 53.5t68 239.5l157 758h-190l33 125h182q53 242 190.5 371.5t339.5 129.5q172 0 269.5 -70.5t97.5 -178.5q0 -96 -50 -153.5t-153 -121.5q-82 -49 -115.5 -85t-33.5 -83z" />
<glyph glyph-name="agrave" unicode="&#xe0;" horiz-adv-x="1155" d="M1047 950l-168 -635q-23 -74 -23 -116q0 -53 47 -54q66 0 137 207l99 -30q-109 -342 -316 -342q-76 0 -122 47t-46 133q0 25 2 45l-14 6q-57 -113 -139 -172t-172 -59q-127 0 -200 92t-73 233q0 152 54.5 286t140.5 218q152 156 319 156q82 0 133.5 -49.5t65.5 -122.5 l41 157h234zM426 143q113 0 204 188.5t91 336.5q0 164 -111 163q-84 0 -157.5 -93t-109.5 -207.5t-36 -204.5q0 -183 119 -183zM698 1319l41 -225h-108l-101 153q-70 104 -69 164q0 39 29.5 70.5t72.5 31.5q45 0 73 -27.5t38 -62t24 -104.5z" />
<glyph glyph-name="aacute" unicode="&#xe1;" horiz-adv-x="1155" d="M1047 950l-168 -635q-23 -74 -23 -116q0 -53 47 -54q66 0 137 207l99 -30q-109 -342 -316 -342q-76 0 -122 47t-46 133q0 25 2 45l-14 6q-57 -113 -139 -172t-172 -59q-127 0 -200 92t-73 233q0 152 54.5 286t140.5 218q152 156 319 156q82 0 133.5 -49.5t65.5 -122.5 l41 157h234zM426 143q113 0 204 188.5t91 336.5q0 164 -111 163q-84 0 -157.5 -93t-109.5 -207.5t-36 -204.5q0 -183 119 -183zM893 1245l-191 -151h-120l170 274q51 80 83.5 114t79.5 34q45 0 75 -33t30 -72q0 -41 -25.5 -72t-101.5 -94z" />
<glyph glyph-name="acircumflex" unicode="&#xe2;" horiz-adv-x="1155" d="M1047 950l-168 -635q-23 -74 -23 -116q0 -53 47 -54q66 0 137 207l99 -30q-109 -342 -316 -342q-76 0 -122 47t-46 133q0 25 2 45l-14 6q-57 -113 -139 -172t-172 -59q-127 0 -200 92t-73 233q0 152 54.5 286t140.5 218q152 156 319 156q82 0 133.5 -49.5t65.5 -122.5 l41 157h234zM426 143q113 0 204 188.5t91 336.5q0 164 -111 163q-84 0 -157.5 -93t-109.5 -207.5t-36 -204.5q0 -183 119 -183zM379 1096l334 387h118l142 -387h-125l-111 184l-221 -184h-137z" />
<glyph glyph-name="atilde" unicode="&#xe3;" horiz-adv-x="1155" d="M1047 950l-168 -635q-23 -74 -23 -116q0 -53 47 -54q66 0 137 207l99 -30q-109 -342 -316 -342q-76 0 -122 47t-46 133q0 25 2 45l-14 6q-57 -113 -139 -172t-172 -59q-127 0 -200 92t-73 233q0 152 54.5 286t140.5 218q152 156 319 156q82 0 133.5 -49.5t65.5 -122.5 l41 157h234zM426 143q113 0 204 188.5t91 336.5q0 164 -111 163q-84 0 -157.5 -93t-109.5 -207.5t-36 -204.5q0 -183 119 -183zM580 1214q-31 0 -55.5 -26.5t-57.5 -91.5h-117q49 147 109.5 220t152.5 73q57 0 109.5 -28t91.5 -55.5t66 -27.5q31 0 55 26.5t57 92.5h117 q-49 -145 -109.5 -219t-152.5 -74q-57 0 -109.5 27.5t-91 55t-65.5 27.5z" />
<glyph glyph-name="adieresis" unicode="&#xe4;" horiz-adv-x="1155" d="M1047 950l-168 -635q-23 -74 -23 -116q0 -53 47 -54q66 0 137 207l99 -30q-109 -342 -316 -342q-76 0 -122 47t-46 133q0 25 2 45l-14 6q-57 -113 -139 -172t-172 -59q-127 0 -200 92t-73 233q0 152 54.5 286t140.5 218q152 156 319 156q82 0 133.5 -49.5t65.5 -122.5 l41 157h234zM426 143q113 0 204 188.5t91 336.5q0 164 -111 163q-84 0 -157.5 -93t-109.5 -207.5t-36 -204.5q0 -183 119 -183zM678 1286q0 -59 -45 -111.5t-113 -52.5q-49 0 -80.5 33t-31.5 86q0 63 42 114.5t109 51.5q53 0 86 -33t33 -88zM1063 1286q0 -59 -45 -111.5 t-113 -52.5q-49 0 -80.5 33t-31.5 86q0 63 42 114.5t109 51.5q53 0 86 -33t33 -88z" />
<glyph glyph-name="aring" unicode="&#xe5;" horiz-adv-x="1155" d="M1047 950l-168 -635q-23 -74 -23 -116q0 -53 47 -54q66 0 137 207l99 -30q-109 -342 -316 -342q-76 0 -122 47t-46 133q0 25 2 45l-14 6q-57 -113 -139 -172t-172 -59q-127 0 -200 92t-73 233q0 152 54.5 286t140.5 218q152 156 319 156q82 0 133.5 -49.5t65.5 -122.5 l41 157h234zM426 143q113 0 204 188.5t91 336.5q0 164 -111 163q-84 0 -157.5 -93t-109.5 -207.5t-36 -204.5q0 -183 119 -183zM977 1329q0 -102 -70.5 -175t-181.5 -73q-98 0 -155.5 56.5t-57.5 136.5q0 104 70.5 177t181.5 73q98 0 155.5 -56.5t57.5 -138.5zM635 1272 q0 -47 25.5 -76t70.5 -29q57 0 90 53.5t33 114.5q0 47 -25.5 75t-70.5 28q-57 0 -90 -52.5t-33 -113.5z" />
<glyph glyph-name="ae" unicode="&#xe6;" horiz-adv-x="1488" d="M1178 965q129 0 201.5 -58.5t72.5 -154.5q0 -147 -157.5 -249t-467.5 -120q-2 -16 -2 -45q0 -223 193 -223q154 0 287 188l86 -61q-182 -262 -435 -262q-119 0 -200.5 52t-118.5 144q-137 -188 -361 -188q-125 0 -190.5 61.5t-65.5 157.5q0 154 161 242t464 100 q35 111 35 153q0 143 -176 144q-57 0 -113 -19q33 -29 33 -79q0 -57 -38 -96.5t-103 -39.5q-55 0 -87 34t-32 87q0 96 101.5 164t281.5 68q215 0 293 -125q150 125 338 125zM1141 852q-98 0 -178 -111.5t-117 -259.5q203 23 296 94.5t93 174.5q0 45 -24.5 73.5t-69.5 28.5z M608 332q0 66 13 127q-182 -23 -269.5 -75t-87.5 -146q0 -45 31 -77t82 -32q119 0 235 141q-4 37 -4 62z" />
<glyph glyph-name="ccedilla" unicode="&#xe7;" horiz-adv-x="960" d="M109 -336q84 -57 170 -57q41 0 67.5 20.5t26.5 53.5q0 45 -50.5 64t-129.5 13l-27 64l199 164q-139 20 -223.5 120.5t-84.5 249.5q0 240 173 424.5t395 184.5q131 0 214 -67t83 -175q0 -70 -40 -123t-104 -53q-53 0 -87 31.5t-34 78.5q0 80 84 140q-29 51 -112 51 q-96 0 -174 -87t-115 -197.5t-37 -207.5q0 -121 53.5 -176t132.5 -55q141 0 267 194l88 -59q-139 -242 -336 -274l-135 -115v-8q80 -14 127 -57.5t47 -108.5q0 -84 -66.5 -142.5t-187.5 -58.5q-143 0 -248 86z" />
<glyph glyph-name="egrave" unicode="&#xe8;" horiz-adv-x="964" d="M926 752q0 -147 -158 -248t-465 -119q-2 -16 -2 -47q0 -223 191 -223q154 0 286 188l86 -61q-88 -125 -192.5 -193.5t-255.5 -68.5q-160 0 -259.5 102t-99.5 270q0 240 178.5 426.5t415.5 186.5q129 0 202 -58.5t73 -154.5zM616 852q-100 0 -179 -111.5t-115 -259.5 q203 23 296 94.5t93 174.5q0 45 -25 73.5t-70 28.5zM662 1319l40 -225h-108l-100 153q-70 104 -70 164q0 39 29.5 70.5t72.5 31.5q45 0 73 -27.5t38.5 -62t24.5 -104.5z" />
<glyph glyph-name="eacute" unicode="&#xe9;" horiz-adv-x="964" d="M926 752q0 -147 -158 -248t-465 -119q-2 -16 -2 -47q0 -223 191 -223q154 0 286 188l86 -61q-88 -125 -192.5 -193.5t-255.5 -68.5q-160 0 -259.5 102t-99.5 270q0 240 178.5 426.5t415.5 186.5q129 0 202 -58.5t73 -154.5zM616 852q-100 0 -179 -111.5t-115 -259.5 q203 23 296 94.5t93 174.5q0 45 -25 73.5t-70 28.5zM856 1245l-190 -151h-121l170 274q51 80 83.5 114t80.5 34q45 0 74.5 -33t29.5 -72q0 -41 -25.5 -72t-101.5 -94z" />
<glyph glyph-name="ecircumflex" unicode="&#xea;" horiz-adv-x="964" d="M926 752q0 -147 -158 -248t-465 -119q-2 -16 -2 -47q0 -223 191 -223q154 0 286 188l86 -61q-88 -125 -192.5 -193.5t-255.5 -68.5q-160 0 -259.5 102t-99.5 270q0 240 178.5 426.5t415.5 186.5q129 0 202 -58.5t73 -154.5zM342 1096l334 387h119l141 -387h-125l-111 184 l-221 -184h-137zM616 852q-100 0 -179 -111.5t-115 -259.5q203 23 296 94.5t93 174.5q0 45 -25 73.5t-70 28.5z" />
<glyph glyph-name="edieresis" unicode="&#xeb;" horiz-adv-x="964" d="M926 752q0 -147 -158 -248t-465 -119q-2 -16 -2 -47q0 -223 191 -223q154 0 286 188l86 -61q-88 -125 -192.5 -193.5t-255.5 -68.5q-160 0 -259.5 102t-99.5 270q0 240 178.5 426.5t415.5 186.5q129 0 202 -58.5t73 -154.5zM616 852q-100 0 -179 -111.5t-115 -259.5 q203 23 296 94.5t93 174.5q0 45 -25 73.5t-70 28.5zM1026 1286q0 -59 -45 -111.5t-113 -52.5q-49 0 -80.5 33t-31.5 86q0 63 42 114.5t109 51.5q53 0 86 -33t33 -88zM641 1286q0 -59 -45 -111.5t-113 -52.5q-49 0 -80.5 33t-31.5 86q0 63 42 114.5t109 51.5q53 0 86 -33 t33 -88z" />
<glyph glyph-name="igrave" unicode="&#xec;" horiz-adv-x="706" d="M557 758q0 -86 -83 -297t-83 -266q0 -49 41 -50q61 0 146 207l96 -30q-113 -342 -326 -342q-82 0 -133 51t-51 141q0 106 85 323.5t85 272.5q0 45 -31 45q-70 0 -166 -215l-98 41q139 326 336 326q82 0 132 -55.5t50 -151.5zM414 1319l41 -225h-109l-100 153 q-70 104 -70 164q0 39 30 70.5t73 31.5q45 0 72.5 -27.5t38 -62t24.5 -104.5z" />
<glyph glyph-name="iacute" unicode="&#xed;" horiz-adv-x="706" d="M606 1245l-190 -151h-121l170 274q51 80 84 114t80 34q45 0 74.5 -33t29.5 -72q0 -41 -25.5 -72t-101.5 -94zM557 758q0 -86 -83 -297t-83 -266q0 -49 41 -50q61 0 146 207l96 -30q-113 -342 -326 -342q-82 0 -133 51t-51 141q0 106 85 323.5t85 272.5q0 45 -31 45 q-70 0 -166 -215l-98 41q139 326 336 326q82 0 132 -55.5t50 -151.5z" />
<glyph glyph-name="icircumflex" unicode="&#xee;" horiz-adv-x="706" d="M94 1096l334 387h119l141 -387h-125l-110 184l-222 -184h-137zM557 758q0 -86 -83 -297t-83 -266q0 -49 41 -50q61 0 146 207l96 -30q-113 -342 -326 -342q-82 0 -133 51t-51 141q0 106 85 323.5t85 272.5q0 45 -31 45q-70 0 -166 -215l-98 41q139 326 336 326 q82 0 132 -55.5t50 -151.5z" />
<glyph glyph-name="idieresis" unicode="&#xef;" horiz-adv-x="706" d="M393 1286q0 -59 -45 -111.5t-112 -52.5q-49 0 -81 33t-32 86q0 63 42 114.5t109 51.5q53 0 86 -33t33 -88zM778 1286q0 -59 -45 -111.5t-112 -52.5q-49 0 -81 33t-32 86q0 63 42 114.5t109 51.5q53 0 86 -33t33 -88zM557 758q0 -86 -83 -297t-83 -266q0 -49 41 -50 q61 0 146 207l96 -30q-113 -342 -326 -342q-82 0 -133 51t-51 141q0 106 85 323.5t85 272.5q0 45 -31 45q-70 0 -166 -215l-98 41q139 326 336 326q82 0 132 -55.5t50 -151.5z" />
<glyph glyph-name="eth" unicode="&#xf0;" horiz-adv-x="1062" d="M1100 1251l-195 -65q106 -217 107 -475q0 -317 -158 -524t-410 -207q-174 0 -281.5 110.5t-107.5 286.5q0 236 153.5 399.5t346.5 163.5q168 0 236 -115q-6 141 -70 299l-244 -82l-39 113l232 78q-39 74 -82 143l162 47q53 -70 94 -133l219 74zM745 633q0 178 -151 178 q-88 0 -158.5 -92t-103.5 -211t-33 -227q0 -186 143 -187q90 0 163 96.5t106.5 217.5t33.5 225z" />
<glyph glyph-name="ntilde" unicode="&#xf1;" horiz-adv-x="1232" d="M934 190q0 -45 35 -45q59 0 141 207l96 -30q-113 -342 -313 -342q-84 0 -133 51t-49 139q0 111 67.5 298t67.5 249q0 68 -55 67q-39 0 -86.5 -35.5t-104.5 -117.5t-121.5 -245t-122.5 -386h-245l176 664q23 88 19.5 118.5t-32.5 30.5q-59 0 -159 -215l-97 41 q139 324 328 324q68 0 109 -49.5t41 -141.5q0 -96 -43 -227l14 -6q199 426 432 426q84 0 135 -59.5t51 -153.5q0 -92 -75.5 -299.5t-75.5 -262.5zM649 1214q-31 0 -55.5 -26.5t-56.5 -91.5h-117q49 147 109.5 220t152.5 73q57 0 109.5 -28t91.5 -55.5t65 -27.5 q31 0 55.5 26.5t57.5 92.5h117q-49 -145 -109.5 -219t-153.5 -74q-57 0 -109 27.5t-91 55t-66 27.5z" />
<glyph glyph-name="ograve" unicode="&#xf2;" horiz-adv-x="1044" d="M598 965q176 0 282.5 -111t106.5 -285q0 -238 -162.5 -413.5t-378.5 -175.5q-174 0 -281.5 110.5t-107.5 286.5q0 238 163 413t378 175zM743 666q0 186 -143 186q-88 0 -159.5 -103.5t-105.5 -231.5t-34 -236q0 -186 143 -187q88 0 160 103.5t105.5 231.5t33.5 237z M664 1319l41 -225h-109l-100 153q-70 104 -70 164q0 39 29.5 70.5t72.5 31.5q45 0 73 -27.5t38.5 -62t24.5 -104.5z" />
<glyph glyph-name="oacute" unicode="&#xf3;" horiz-adv-x="1044" d="M858 1245l-190 -151h-121l170 274q51 80 84 114t80 34q45 0 74.5 -33t29.5 -72q0 -41 -25.5 -72t-101.5 -94zM598 965q176 0 282.5 -111t106.5 -285q0 -238 -162.5 -413.5t-378.5 -175.5q-174 0 -281.5 110.5t-107.5 286.5q0 238 163 413t378 175zM743 666 q0 186 -143 186q-88 0 -159.5 -103.5t-105.5 -231.5t-34 -236q0 -186 143 -187q88 0 160 103.5t105.5 231.5t33.5 237z" />
<glyph glyph-name="ocircumflex" unicode="&#xf4;" horiz-adv-x="1044" d="M344 1096l334 387h119l141 -387h-125l-111 184l-221 -184h-137zM598 965q176 0 282.5 -111t106.5 -285q0 -238 -162.5 -413.5t-378.5 -175.5q-174 0 -281.5 110.5t-107.5 286.5q0 238 163 413t378 175zM743 666q0 186 -143 186q-88 0 -159.5 -103.5t-105.5 -231.5 t-34 -236q0 -186 143 -187q88 0 160 103.5t105.5 231.5t33.5 237z" />
<glyph glyph-name="otilde" unicode="&#xf5;" horiz-adv-x="1044" d="M598 965q176 0 282.5 -111t106.5 -285q0 -238 -162.5 -413.5t-378.5 -175.5q-174 0 -281.5 110.5t-107.5 286.5q0 238 163 413t378 175zM743 666q0 186 -143 186q-88 0 -159.5 -103.5t-105.5 -231.5t-34 -236q0 -186 143 -187q88 0 160 103.5t105.5 231.5t33.5 237z M547 1214q-31 0 -55.5 -26.5t-57.5 -91.5h-117q49 147 109.5 220t153.5 73q57 0 109 -28t91 -55.5t66 -27.5q31 0 55.5 26.5t56.5 92.5h117q-49 -145 -109.5 -219t-152.5 -74q-57 0 -109.5 27.5t-91 55t-65.5 27.5z" />
<glyph glyph-name="odieresis" unicode="&#xf6;" horiz-adv-x="1044" d="M643 1286q0 -59 -45 -111.5t-113 -52.5q-49 0 -80.5 33t-31.5 86q0 63 42 114.5t109 51.5q53 0 86 -33t33 -88zM1028 1286q0 -59 -45 -111.5t-113 -52.5q-49 0 -80.5 33t-31.5 86q0 63 42 114.5t109 51.5q53 0 86 -33t33 -88zM598 965q176 0 282.5 -111t106.5 -285 q0 -238 -162.5 -413.5t-378.5 -175.5q-174 0 -281.5 110.5t-107.5 286.5q0 238 163 413t378 175zM743 666q0 186 -143 186q-88 0 -159.5 -103.5t-105.5 -231.5t-34 -236q0 -186 143 -187q88 0 160 103.5t105.5 231.5t33.5 237z" />
<glyph glyph-name="divide" unicode="&#xf7;" horiz-adv-x="1064" d="M987 508h-887l33 141h889zM471 109q-55 0 -91 35.5t-36 95.5q0 57 41 105t102 48q55 0 91 -35.5t36 -95.5q0 -57 -41 -105t-102 -48zM633 764q-53 0 -89 36t-36 95q0 57 41 105.5t102 48.5q53 0 89 -36t36 -95q0 -57 -41 -105.5t-102 -48.5z" />
<glyph glyph-name="oslash" unicode="&#xf8;" horiz-adv-x="1044" d="M78 -96l-82 78l135 147q-74 106 -74 248q0 238 163 413t378 175q137 0 231 -70l138 147l82 -77l-138 -150q76 -100 76 -246q0 -238 -162.5 -413.5t-378.5 -175.5q-137 0 -233 67zM446 94q88 0 159 98.5t104.5 223.5t38.5 239l-435 -491q31 -70 133 -70zM598 852 q-88 0 -159.5 -98.5t-105.5 -222t-38 -238.5l434 489q-31 70 -131 70z" />
<glyph glyph-name="ugrave" unicode="&#xf9;" horiz-adv-x="1228" d="M911 -20q-174 0 -174 192q0 90 45 234l-14 6q-197 -432 -426 -432q-84 0 -135 59t-51 156q0 92 72.5 301t72.5 260q0 43 -31 43q-33 0 -64.5 -42t-86.5 -157l-96 41q133 324 333 324q82 0 127 -49.5t45 -137.5q0 -102 -67.5 -291.5t-67.5 -246.5q0 -80 58 -80 q39 0 84 35.5t101 117.5t120.5 246t124.5 391h245l-168 -635q-23 -76 -22 -116q0 -53 47 -54q66 0 137 207l99 -30q-109 -342 -308 -342zM715 1319l41 -225h-109l-100 153q-70 104 -70 164q0 39 30 70.5t73 31.5q45 0 72.5 -27.5t38 -62t24.5 -104.5z" />
<glyph glyph-name="uacute" unicode="&#xfa;" horiz-adv-x="1228" d="M909 1245l-190 -151h-121l170 274q51 80 84 114t80 34q45 0 74.5 -33t29.5 -72q0 -41 -25.5 -72t-101.5 -94zM911 -20q-174 0 -174 192q0 90 45 234l-14 6q-197 -432 -426 -432q-84 0 -135 59t-51 156q0 92 72.5 301t72.5 260q0 43 -31 43q-33 0 -64.5 -42t-86.5 -157 l-96 41q133 324 333 324q82 0 127 -49.5t45 -137.5q0 -102 -67.5 -291.5t-67.5 -246.5q0 -80 58 -80q39 0 84 35.5t101 117.5t120.5 246t124.5 391h245l-168 -635q-23 -76 -22 -116q0 -53 47 -54q66 0 137 207l99 -30q-109 -342 -308 -342z" />
<glyph glyph-name="ucircumflex" unicode="&#xfb;" horiz-adv-x="1228" d="M397 1096l334 387h119l141 -387h-125l-110 184l-221 -184h-138zM911 -20q-174 0 -174 192q0 90 45 234l-14 6q-197 -432 -426 -432q-84 0 -135 59t-51 156q0 92 72.5 301t72.5 260q0 43 -31 43q-33 0 -64.5 -42t-86.5 -157l-96 41q133 324 333 324q82 0 127 -49.5 t45 -137.5q0 -102 -67.5 -291.5t-67.5 -246.5q0 -80 58 -80q39 0 84 35.5t101 117.5t120.5 246t124.5 391h245l-168 -635q-23 -76 -22 -116q0 -53 47 -54q66 0 137 207l99 -30q-109 -342 -308 -342z" />
<glyph glyph-name="udieresis" unicode="&#xfc;" horiz-adv-x="1228" d="M694 1286q0 -59 -45 -111.5t-112 -52.5q-49 0 -81 33t-32 86q0 63 42 114.5t109 51.5q53 0 86 -33t33 -88zM1079 1286q0 -59 -45 -111.5t-112 -52.5q-49 0 -81 33t-32 86q0 63 42 114.5t110 51.5q53 0 85.5 -33t32.5 -88zM911 -20q-174 0 -174 192q0 90 45 234l-14 6 q-197 -432 -426 -432q-84 0 -135 59t-51 156q0 92 72.5 301t72.5 260q0 43 -31 43q-33 0 -64.5 -42t-86.5 -157l-96 41q133 324 333 324q82 0 127 -49.5t45 -137.5q0 -102 -67.5 -291.5t-67.5 -246.5q0 -80 58 -80q39 0 84 35.5t101 117.5t120.5 246t124.5 391h245 l-168 -635q-23 -76 -22 -116q0 -53 47 -54q66 0 137 207l99 -30q-109 -342 -308 -342z" />
<glyph glyph-name="yacute" unicode="&#xfd;" horiz-adv-x="1132" d="M360 965q78 0 123 -48.5t45 -130.5q0 -102 -59 -271t-59 -220q0 -72 67 -72q223 0 410 727h229l-188 -790q-119 -508 -551 -508q-129 0 -222.5 44t-93.5 146q0 55 39 101.5t103 46.5q59 0 91 -36t27.5 -89t-40.5 -88q43 -14 94 -15q238 0 338 414l41 162l-13 6 q-162 -297 -364 -297q-98 0 -150.5 59.5t-52.5 153.5q0 84 65.5 263t65.5 233q0 43 -31 43q-61 0 -155 -201l-96 41q142 326 337 326zM918 1245l-191 -151h-121l170 274q51 80 84 114t80 34q45 0 74.5 -33t29.5 -72q0 -41 -25 -72t-101 -94z" />
<glyph glyph-name="thorn" unicode="&#xfe;" horiz-adv-x="1069" d="M651 805q-115 0 -210 -175t-95 -335q0 -78 34 -124t99 -46q84 0 152.5 95t100.5 209t32 204q0 172 -113 172zM625 1411l-185 -633l17 -6q55 92 130 142.5t152 50.5q127 0 200 -92.5t73 -239.5q0 -246 -146.5 -439.5t-335.5 -193.5q-166 0 -231 133l-76 -303h191l-41 -152 h-568l41 152h142l360 1421h-170l41 160h406z" />
<glyph glyph-name="ydieresis" unicode="&#xff;" horiz-adv-x="1132" d="M360 965q78 0 123 -48.5t45 -130.5q0 -102 -59 -271t-59 -220q0 -72 67 -72q223 0 410 727h229l-188 -790q-119 -508 -551 -508q-129 0 -222.5 44t-93.5 146q0 55 39 101.5t103 46.5q59 0 91 -36t27.5 -89t-40.5 -88q43 -14 94 -15q238 0 338 414l41 162l-13 6 q-162 -297 -364 -297q-98 0 -150.5 59.5t-52.5 153.5q0 84 65.5 263t65.5 233q0 43 -31 43q-61 0 -155 -201l-96 41q142 326 337 326zM700 1286q0 -59 -45 -111.5t-112 -52.5q-49 0 -81 33t-32 86q0 63 42 114.5t110 51.5q53 0 85.5 -33t32.5 -88zM1085 1286 q0 -59 -45 -111.5t-112 -52.5q-49 0 -81 33t-32 86q0 63 42 114.5t110 51.5q53 0 85.5 -33t32.5 -88z" />
<glyph glyph-name="Amacron" unicode="&#x100;" d="M707 154h194l-24 301h-453l-176 -301h170l-37 -154h-502l39 154h141l727 1202h252l123 -1202h180l-38 -154h-633zM502 592h364l-43 541h-8zM674 1532l43 172h557l-45 -172h-555z" />
<glyph glyph-name="amacron" unicode="&#x101;" horiz-adv-x="1155" d="M1047 950l-168 -635q-23 -74 -23 -116q0 -53 47 -54q66 0 137 207l99 -30q-109 -342 -316 -342q-76 0 -122 47t-46 133q0 25 2 45l-14 6q-57 -113 -139 -172t-172 -59q-127 0 -200 92t-73 233q0 152 54.5 286t140.5 218q152 156 319 156q82 0 133.5 -49.5t65.5 -122.5 l41 157h234zM426 143q113 0 204 188.5t91 336.5q0 164 -111 163q-84 0 -157.5 -93t-109.5 -207.5t-36 -204.5q0 -183 119 -183zM420 1118l43 172h557l-45 -172h-555z" />
<glyph glyph-name="Abreve" unicode="&#x102;" d="M707 154h194l-24 301h-453l-176 -301h170l-37 -154h-502l39 154h141l727 1202h252l123 -1202h180l-38 -154h-633zM502 592h364l-43 541h-8zM948 1513q-139 0 -205.5 90.5t-29.5 254.5h104q0 -176 158 -177q139 0 223 177h111q-39 -164 -135.5 -254.5t-225.5 -90.5z" />
<glyph glyph-name="abreve" unicode="&#x103;" horiz-adv-x="1155" d="M1047 950l-168 -635q-23 -74 -23 -116q0 -53 47 -54q66 0 137 207l99 -30q-109 -342 -316 -342q-76 0 -122 47t-46 133q0 25 2 45l-14 6q-57 -113 -139 -172t-172 -59q-127 0 -200 92t-73 233q0 152 54.5 286t140.5 218q152 156 319 156q82 0 133.5 -49.5t65.5 -122.5 l41 157h234zM426 143q113 0 204 188.5t91 336.5q0 164 -111 163q-84 0 -157.5 -93t-109.5 -207.5t-36 -204.5q0 -183 119 -183zM694 1100q-139 0 -205.5 90t-29.5 254h104q0 -176 158 -176q139 0 223 176h111q-39 -164 -135.5 -254t-225.5 -90z" />
<glyph glyph-name="Aogonek" unicode="&#x104;" d="M1143 -428q-113 -76 -228 -76q-100 0 -164.5 48t-64.5 137q0 84 63.5 153.5t217.5 165.5h-297l37 154h194l-24 301h-453l-176 -301h170l-37 -154h-502l39 154h141l727 1202h252l123 -1202h180l-38 -154h-185l-10 -8q-139 -109 -186.5 -168.5t-47.5 -112.5q0 -37 26 -63.5 t79 -26.5q57 0 123 41zM502 592h364l-43 541h-8z" />
<glyph glyph-name="aogonek" unicode="&#x105;" horiz-adv-x="1155" d="M772 793l41 157h234l-168 -635q-23 -74 -23 -116q0 -53 47 -54q66 0 137 207l99 -30q-41 -121 -85 -193t-130 -139q-133 -104 -180.5 -166t-47.5 -113q0 -39 27 -64.5t80 -25.5q55 0 123 41l41 -90q-115 -76 -228 -76q-102 0 -166.5 48t-64.5 137q0 80 60.5 148.5 t201.5 158.5q-47 12 -81 55t-34 117q0 25 2 45l-14 6q-57 -113 -139 -172t-172 -59q-127 0 -200 92t-73 233q0 152 54.5 286t140.5 218q152 156 319 156q82 0 133.5 -49t65.5 -123zM426 143q113 0 204 188.5t91 336.5q0 164 -111 163q-84 0 -157.5 -93t-109.5 -207.5 t-36 -204.5q0 -183 119 -183z" />
<glyph glyph-name="Cacute" unicode="&#x106;" horiz-adv-x="1386" d="M1149 1659l-191 -152h-120l170 275q51 80 83.5 113.5t79.5 33.5q45 0 75 -32.5t30 -71.5q0 -41 -25.5 -72t-101.5 -94zM690 -33q-274 0 -418.5 157t-144.5 415q0 154 55.5 305t151.5 270t239.5 192.5t307.5 73.5q256 0 366 -166l84 160h158l-131 -532h-154 q-27 389 -315 389q-127 0 -227.5 -78t-153.5 -195.5t-80 -231.5t-27 -208q0 -195 87 -291t231 -96q154 0 258 104.5t188 301.5l146 -52q-84 -236 -237 -377t-384 -141z" />
<glyph glyph-name="cacute" unicode="&#x107;" horiz-adv-x="960" d="M858 1245l-190 -151h-121l170 274q51 80 84 114t80 34q45 0 74.5 -33t29.5 -72q0 -41 -25.5 -72t-101.5 -94zM625 965q131 0 214 -67t83 -175q0 -70 -40 -123t-104 -53q-53 0 -87 31.5t-34 78.5q0 80 84 140q-29 51 -112 51q-96 0 -174 -87t-115 -197.5t-37 -207.5 q0 -121 53.5 -176t132.5 -55q141 0 267 194l88 -59q-162 -281 -410 -280q-168 0 -272.5 104t-104.5 272q0 240 173.5 424.5t394.5 184.5z" />
<glyph glyph-name="Cdotaccent" unicode="&#x10a;" horiz-adv-x="1386" d="M690 -33q-274 0 -418.5 157t-144.5 415q0 154 55.5 305t151.5 270t239.5 192.5t307.5 73.5q256 0 366 -166l84 160h158l-131 -532h-154q-27 389 -315 389q-127 0 -227.5 -78t-153.5 -195.5t-80 -231.5t-27 -208q0 -195 87 -291t231 -96q154 0 258 104.5t188 301.5 l146 -52q-84 -236 -237 -377t-384 -141zM1130 1677q0 -61 -47 -114.5t-120 -53.5q-51 0 -85 33t-34 90q0 66 45 119t117 53q55 0 89.5 -34t34.5 -93z" />
<glyph glyph-name="cdotaccent" unicode="&#x10b;" horiz-adv-x="960" d="M625 965q131 0 214 -67t83 -175q0 -70 -40 -123t-104 -53q-53 0 -87 31.5t-34 78.5q0 80 84 140q-29 51 -112 51q-96 0 -174 -87t-115 -197.5t-37 -207.5q0 -121 53.5 -176t132.5 -55q141 0 267 194l88 -59q-162 -281 -410 -280q-168 0 -272.5 104t-104.5 272 q0 240 173.5 424.5t394.5 184.5zM838 1264q0 -61 -47.5 -114.5t-120.5 -53.5q-51 0 -85 32.5t-34 90.5q0 66 45 119t117 53q55 0 90 -34t35 -93z" />
<glyph glyph-name="Ccaron" unicode="&#x10c;" horiz-adv-x="1386" d="M1315 1909l-336 -387h-119l-141 387h127l110 -185l220 185h139zM690 -33q-274 0 -418.5 157t-144.5 415q0 154 55.5 305t151.5 270t239.5 192.5t307.5 73.5q256 0 366 -166l84 160h158l-131 -532h-154q-27 389 -315 389q-127 0 -227.5 -78t-153.5 -195.5t-80 -231.5 t-27 -208q0 -195 87 -291t231 -96q154 0 258 104.5t188 301.5l146 -52q-84 -236 -237 -377t-384 -141z" />
<glyph glyph-name="ccaron" unicode="&#x10d;" horiz-adv-x="960" d="M1022 1495l-336 -387h-119l-141 387h127l111 -184l219 184h139zM625 965q131 0 214 -67t83 -175q0 -70 -40 -123t-104 -53q-53 0 -87 31.5t-34 78.5q0 80 84 140q-29 51 -112 51q-96 0 -174 -87t-115 -197.5t-37 -207.5q0 -121 53.5 -176t132.5 -55q141 0 267 194l88 -59 q-162 -281 -410 -280q-168 0 -272.5 104t-104.5 272q0 240 173.5 424.5t394.5 184.5z" />
<glyph glyph-name="Dcaron" unicode="&#x10e;" horiz-adv-x="1466" d="M1348 1909l-336 -387h-119l-141 387h127l110 -185l219 185h140zM-55 0l35 154h206l258 1040h-208l38 154h543q311 0 481 -145.5t170 -381.5q0 -152 -61 -305.5t-176 -265.5q-246 -250 -694 -250h-592zM444 152h115q272 0 418 145q90 90 149.5 255t59.5 314 q0 330 -371 330h-110z" />
<glyph glyph-name="dcaron" unicode="&#x10f;" horiz-adv-x="1155" d="M1462 1300l-129 -213h-96l70 328q16 86 46.5 124t84.5 38q43 0 72.5 -29.5t29.5 -70.5q0 -49 -66 -158q-8 -13 -12 -19zM426 143q78 0 149.5 97.5t110.5 222.5t39 221q0 147 -111 147q-90 0 -163.5 -94t-108.5 -207.5t-35 -203.5q0 -183 119 -183zM1040 352l99 -30 q-109 -342 -316 -342q-74 0 -121 47t-47 133q0 25 2 45l-14 6q-57 -113 -139 -172t-172 -59q-127 0 -200 92t-73 233q0 152 54.5 286t140.5 218q152 156 319 156q156 0 203 -154l117 440h-170l41 160h405l-290 -1096q-23 -74 -23 -116q0 -53 47 -54q65 0 137 207z" />
<glyph glyph-name="Dcroat" unicode="&#x110;" horiz-adv-x="1470" d="M-53 0l35 154h206l117 471h-207l39 155h207l102 414h-208l38 154h543q311 0 481 -145.5t170 -381.5q0 -152 -61 -305.5t-176 -265.5q-246 -250 -694 -250h-592zM446 152h115q272 0 418 145q90 90 149.5 255t59.5 314q0 330 -371 330h-110l-105 -416h260l-37 -155h-262z " />
<glyph glyph-name="dcroat" unicode="&#x111;" horiz-adv-x="1155" d="M764 1411h405l-69 -258h143l-33 -121h-141l-190 -717q-23 -74 -23 -116q0 -53 47 -54q66 0 137 207l99 -30q-109 -342 -316 -342q-74 0 -121 47t-47 133q0 25 2 45l-14 6q-57 -113 -139 -172t-172 -59q-127 0 -200 92t-73 233q0 150 53.5 281t139.5 217q156 156 321 155 q154 0 201 -153l60 227h-252l32 121h252l29 104h-170zM426 143q78 0 149.5 96.5t109.5 219.5t38 219q0 147 -111 147q-90 0 -162.5 -93t-107.5 -205.5t-35 -200.5q0 -183 119 -183z" />
<glyph glyph-name="Emacron" unicode="&#x112;" d="M276 1348h1197l-113 -457h-123q-4 195 -37 250t-156 55h-337l-109 -438h94q102 0 141 32.5t99 165.5h133l-135 -540h-129q14 133 -8.5 167.5t-120.5 34.5h-109l-117 -466h342q133 0 190.5 60t166.5 290h135l-125 -502h-1208l35 154h206l258 1040h-208zM688 1532l43 172 h557l-45 -172h-555z" />
<glyph glyph-name="emacron" unicode="&#x113;" horiz-adv-x="964" d="M926 752q0 -147 -158 -248t-465 -119q-2 -16 -2 -47q0 -223 191 -223q154 0 286 188l86 -61q-88 -125 -192.5 -193.5t-255.5 -68.5q-160 0 -259.5 102t-99.5 270q0 240 178.5 426.5t415.5 186.5q129 0 202 -58.5t73 -154.5zM383 1118l43 172h557l-45 -172h-555zM616 852 q-100 0 -179 -111.5t-115 -259.5q203 23 296 94.5t93 174.5q0 45 -25 73.5t-70 28.5z" />
<glyph glyph-name="Ebreve" unicode="&#x114;" d="M276 1348h1197l-113 -457h-123q-4 195 -37 250t-156 55h-337l-109 -438h94q102 0 141 32.5t99 165.5h133l-135 -540h-129q14 133 -8.5 167.5t-120.5 34.5h-109l-117 -466h342q133 0 190.5 60t166.5 290h135l-125 -502h-1208l35 154h206l258 1040h-208zM963 1513 q-139 0 -206 90.5t-30 254.5h104q0 -176 158 -177q139 0 223 177h111q-39 -164 -135 -254.5t-225 -90.5z" />
<glyph glyph-name="ebreve" unicode="&#x115;" horiz-adv-x="964" d="M926 752q0 -147 -158 -248t-465 -119q-2 -16 -2 -47q0 -223 191 -223q154 0 286 188l86 -61q-88 -125 -192.5 -193.5t-255.5 -68.5q-160 0 -259.5 102t-99.5 270q0 240 178.5 426.5t415.5 186.5q129 0 202 -58.5t73 -154.5zM657 1100q-139 0 -205.5 90t-29.5 254h104 q0 -176 158 -176q139 0 223 176h111q-39 -164 -135.5 -254t-225.5 -90zM616 852q-100 0 -179 -111.5t-115 -259.5q203 23 296 94.5t93 174.5q0 45 -25 73.5t-70 28.5z" />
<glyph glyph-name="Edotaccent" unicode="&#x116;" d="M276 1348h1197l-113 -457h-123q-4 195 -37 250t-156 55h-337l-109 -438h94q102 0 141 32.5t99 165.5h133l-135 -540h-129q14 133 -8.5 167.5t-120.5 34.5h-109l-117 -466h342q133 0 190.5 60t166.5 290h135l-125 -502h-1208l35 154h206l258 1040h-208zM1143 1677 q0 -61 -47 -114.5t-121 -53.5q-51 0 -85 33t-34 90q0 66 45 119t117 53q55 0 90 -34t35 -93z" />
<glyph glyph-name="edotaccent" unicode="&#x117;" horiz-adv-x="964" d="M926 752q0 -147 -158 -248t-465 -119q-2 -16 -2 -47q0 -223 191 -223q154 0 286 188l86 -61q-88 -125 -192.5 -193.5t-255.5 -68.5q-160 0 -259.5 102t-99.5 270q0 240 178.5 426.5t415.5 186.5q129 0 202 -58.5t73 -154.5zM616 852q-100 0 -179 -111.5t-115 -259.5 q203 23 296 94.5t93 174.5q0 45 -25 73.5t-70 28.5zM838 1264q0 -61 -47.5 -114.5t-120.5 -53.5q-51 0 -85 32.5t-34 90.5q0 66 45 119t117 53q55 0 90 -34t35 -93z" />
<glyph glyph-name="Eogonek" unicode="&#x118;" d="M276 1348h1197l-113 -457h-123q-4 195 -37 250t-156 55h-337l-109 -438h94q102 0 141 32.5t99 165.5h133l-135 -540h-129q14 133 -8.5 167.5t-120.5 34.5h-109l-117 -466h342q133 0 190.5 60t166.5 290h135l-125 -502h-108l-11 -8q-139 -109 -186 -168.5t-47 -112.5 q0 -37 25.5 -63.5t78.5 -26.5q57 0 123 41l41 -90q-113 -76 -227 -76q-100 0 -165 48t-65 137q0 84 63.5 153.5t217.5 165.5h-948l35 154h206l258 1040h-208z" />
<glyph glyph-name="eogonek" unicode="&#x119;" horiz-adv-x="964" d="M778 303l86 -61q-80 -111 -174 -185l-86 -63q-139 -109 -188 -169.5t-49 -113.5q0 -37 25.5 -63.5t78.5 -26.5q55 0 123 41l41 -90q-113 -76 -227 -76q-102 0 -166 48t-64 137q0 76 54.5 142t195.5 157h-12q-160 0 -259.5 102t-99.5 270q0 240 178.5 426.5t415.5 186.5 q129 0 202 -58.5t73 -154.5q0 -147 -158 -248t-465 -119q-2 -16 -2 -47q0 -223 191 -223q153 0 286 188zM616 852q-100 0 -179 -111.5t-115 -259.5q203 23 296 94.5t93 174.5q0 45 -25 73.5t-70 28.5z" />
<glyph glyph-name="Ecaron" unicode="&#x11a;" d="M1327 1909l-336 -387h-119l-141 387h127l111 -185l219 185h139zM276 1348h1197l-113 -457h-123q-4 195 -37 250t-156 55h-337l-109 -438h94q102 0 141 32.5t99 165.5h133l-135 -540h-129q14 133 -8.5 167.5t-120.5 34.5h-109l-117 -466h342q133 0 190.5 60t166.5 290h135 l-125 -502h-1208l35 154h206l258 1040h-208z" />
<glyph glyph-name="ecaron" unicode="&#x11b;" horiz-adv-x="964" d="M926 752q0 -147 -158 -248t-465 -119q-2 -16 -2 -47q0 -223 191 -223q154 0 286 188l86 -61q-88 -125 -192.5 -193.5t-255.5 -68.5q-160 0 -259.5 102t-99.5 270q0 240 178.5 426.5t415.5 186.5q129 0 202 -58.5t73 -154.5zM1022 1495l-336 -387h-119l-141 387h127 l111 -184l219 184h139zM616 852q-100 0 -179 -111.5t-115 -259.5q203 23 296 94.5t93 174.5q0 45 -25 73.5t-70 28.5z" />
<glyph glyph-name="Gbreve" unicode="&#x11e;" horiz-adv-x="1464" d="M678 129q131 0 223 97.5t133 256.5l13 49h-242l39 154h663l-37 -154h-167l-142 -546h-151l-17 180q-139 -199 -375 -199q-229 0 -360 159t-131 404q0 213 92 405.5t268.5 318.5t393.5 126q256 0 366 -166l84 160h158l-129 -524h-164q-29 381 -307 381q-127 0 -227.5 -79 t-153.5 -196.5t-80 -231.5t-27 -208q0 -201 80 -294t197 -93zM961 1513q-139 0 -206 90.5t-30 254.5h104q0 -176 158 -177q139 0 223 177h111q-39 -164 -135 -254.5t-225 -90.5z" />
<glyph glyph-name="gbreve" unicode="&#x11f;" horiz-adv-x="1062" d="M188 -217q45 -20 119 -21q111 0 182 74q84 84 146 346l-14 6q-106 -143 -275 -143q-131 0 -205.5 90t-74.5 223q0 283 188 471q135 135 297 136q84 0 143.5 -47.5t77.5 -120.5l39 153h233l-186 -792q-63 -268 -200.5 -387t-346.5 -119q-59 0 -113.5 9t-107.5 29.5 t-86 62.5t-33 99.5t38 104.5t102 47q59 0 89.5 -33.5t30.5 -85.5q0 -59 -43 -102zM438 197q113 0 199 147.5t86 312.5q0 78 -38 126t-95 48q-80 0 -145.5 -77.5t-98.5 -183t-33 -203.5q0 -170 125 -170zM692 1100q-139 0 -205.5 90t-29.5 254h104q0 -176 158 -176 q139 0 223 176h111q-39 -164 -135.5 -254t-225.5 -90z" />
<glyph glyph-name="Gdotaccent" unicode="&#x120;" horiz-adv-x="1464" d="M678 129q131 0 223 97.5t133 256.5l13 49h-242l39 154h663l-37 -154h-167l-142 -546h-151l-17 180q-139 -199 -375 -199q-229 0 -360 159t-131 404q0 213 92 405.5t268.5 318.5t393.5 126q256 0 366 -166l84 160h158l-129 -524h-164q-29 381 -307 381q-127 0 -227.5 -79 t-153.5 -196.5t-80 -231.5t-27 -208q0 -201 80 -294t197 -93zM1141 1677q0 -61 -47 -114.5t-121 -53.5q-51 0 -85 33t-34 90q0 66 45 119t117 53q55 0 90 -34t35 -93z" />
<glyph glyph-name="gdotaccent" unicode="&#x121;" horiz-adv-x="1062" d="M188 -217q45 -20 119 -21q111 0 182 74q84 84 146 346l-14 6q-106 -143 -275 -143q-131 0 -205.5 90t-74.5 223q0 283 188 471q135 135 297 136q84 0 143.5 -47.5t77.5 -120.5l39 153h233l-186 -792q-63 -268 -200.5 -387t-346.5 -119q-59 0 -113.5 9t-107.5 29.5 t-86 62.5t-33 99.5t38 104.5t102 47q59 0 89.5 -33.5t30.5 -85.5q0 -59 -43 -102zM438 197q113 0 199 147.5t86 312.5q0 78 -38 126t-95 48q-80 0 -145.5 -77.5t-98.5 -183t-33 -203.5q0 -170 125 -170zM872 1264q0 -61 -47 -114.5t-120 -53.5q-51 0 -85 32.5t-34 90.5 q0 66 45 119t117 53q55 0 89.5 -34t34.5 -93z" />
<glyph glyph-name="Gcommaaccent" unicode="&#x122;" horiz-adv-x="1464" d="M334 -690l-31 84q205 74 248 188l-10 8q-20 -10 -45 -10q-47 0 -78 31t-31 82q0 61 43 111.5t111 50.5q74 0 114.5 -50.5t40.5 -126.5q0 -119 -93 -217t-269 -151zM678 129q131 0 223 97.5t133 256.5l13 49h-242l39 154h663l-37 -154h-167l-142 -546h-151l-17 180 q-139 -199 -375 -199q-229 0 -360 159t-131 404q0 213 92 405.5t268.5 318.5t393.5 126q256 0 366 -166l84 160h158l-129 -524h-164q-29 381 -307 381q-127 0 -227.5 -79t-153.5 -196.5t-80 -231.5t-27 -208q0 -201 80 -294t197 -93z" />
<glyph glyph-name="gcommaaccent" unicode="&#x123;" horiz-adv-x="1062" d="M897 1638l31 -84q-205 -74 -248 -188l10 -8q20 10 45 10q47 0 78 -30.5t31 -82.5q0 -61 -43 -111t-111 -50q-74 0 -114.5 50t-40.5 126q0 119 93 217t269 151zM188 -217q45 -20 119 -21q111 0 182 74q84 84 146 346l-14 6q-106 -143 -275 -143q-131 0 -205.5 90 t-74.5 223q0 283 188 471q135 135 297 136q84 0 143.5 -47.5t77.5 -120.5l39 153h233l-186 -792q-63 -268 -200.5 -387t-346.5 -119q-59 0 -113.5 9t-107.5 29.5t-86 62.5t-33 99.5t38 104.5t102 47q59 0 89.5 -33.5t30.5 -85.5q0 -59 -43 -102zM438 197q113 0 199 147.5 t86 312.5q0 78 -38 126t-95 48q-80 0 -145.5 -77.5t-98.5 -183t-33 -203.5q0 -170 125 -170z" />
<glyph glyph-name="Hbar" unicode="&#x126;" horiz-adv-x="1605" d="M166 899l33 139h209l38 156h-208l38 154h648l-37 -154h-180l-41 -164h551l40 164h-182l37 154h647l-37 -154h-206l-39 -156h209l-35 -139h-209l-185 -745h209l-36 -154h-648l37 154h180l113 448h-553l-113 -448h185l-37 -154h-647l35 154h206l185 745h-207zM594 743h553 l39 162h-553z" />
<glyph glyph-name="hbar" unicode="&#x127;" horiz-adv-x="1163" d="M823 -20q-84 0 -133 51t-49 139q0 109 66.5 294t66.5 247q0 68 -55 67q-39 0 -87 -35.5t-108.5 -115.5t-128 -242t-127.5 -385h-245l274 1032h-143l30 121h144l28 104h-170l39 154h408l-78 -258h254l-31 -121h-258l-147 -493l14 -7q96 211 212 318.5t228 107.5 q84 0 135.5 -59t51.5 -154q0 -92 -75 -295.5t-75 -259.5q0 -45 35 -45q59 0 141 207l97 -30q-113 -342 -314 -342z" />
<glyph glyph-name="Imacron" unicode="&#x12a;" horiz-adv-x="823" d="M-39 0l35 154h207l258 1040h-209l39 154h674l-39 -154h-205l-260 -1040h209l-37 -154h-672zM395 1532l43 172h557l-45 -172h-555z" />
<glyph glyph-name="imacron" unicode="&#x12b;" horiz-adv-x="706" d="M557 758q0 -86 -83 -297t-83 -266q0 -49 41 -50q61 0 146 207l96 -30q-113 -342 -326 -342q-82 0 -133 51t-51 141q0 106 85 323.5t85 272.5q0 45 -31 45q-70 0 -166 -215l-98 41q139 326 336 326q82 0 132 -55.5t50 -151.5zM135 1118l43 172h557l-45 -172h-555z" />
<glyph glyph-name="Ibreve" unicode="&#x12c;" horiz-adv-x="823" d="M-39 0l35 154h207l258 1040h-209l39 154h674l-39 -154h-205l-260 -1040h209l-37 -154h-672zM670 1513q-139 0 -206 90.5t-30 254.5h105q0 -176 157 -177q139 0 224 177h110q-39 -164 -135 -254.5t-225 -90.5z" />
<glyph glyph-name="ibreve" unicode="&#x12d;" horiz-adv-x="706" d="M557 758q0 -86 -83 -297t-83 -266q0 -49 41 -50q61 0 146 207l96 -30q-113 -342 -326 -342q-82 0 -133 51t-51 141q0 106 85 323.5t85 272.5q0 45 -31 45q-70 0 -166 -215l-98 41q139 326 336 326q82 0 132 -55.5t50 -151.5zM410 1100q-139 0 -206 90t-30 254h105 q0 -176 157 -176q139 0 223 176h111q-39 -164 -135 -254t-225 -90z" />
<glyph glyph-name="Iogonek" unicode="&#x12e;" horiz-adv-x="823" d="M-39 0l35 154h207l258 1040h-209l39 154h674l-39 -154h-205l-260 -1040h209l-37 -154h-223l-11 -8q-139 -109 -186 -168.5t-47 -112.5q0 -37 25.5 -63.5t78.5 -26.5q57 0 123 41l41 -90q-113 -76 -227 -76q-100 0 -165 48t-65 137q0 84 63.5 153.5t217.5 165.5h-297z" />
<glyph glyph-name="iogonek" unicode="&#x12f;" horiz-adv-x="706" d="M575 352l99 -30q-39 -113 -86 -188t-129 -138q-141 -111 -184.5 -171.5t-43.5 -113.5q0 -37 26 -63.5t79 -26.5q55 0 123 41l41 -90q-113 -76 -228 -76q-102 0 -165.5 48t-63.5 137q0 80 59.5 149.5t194.5 155.5q-59 14 -97 60t-38 126q0 106 85 323.5t85 272.5 q0 45 -31 45q-39 0 -77 -53t-89 -162l-98 41q143 326 338 326q82 0 131 -55.5t49 -151.5q0 -86 -83 -297t-83 -266q0 -49 41 -50q63 0 145 207zM664 1288q0 -68 -49.5 -124t-127.5 -56q-55 0 -91 36t-36 95q0 68 48.5 124t123.5 56q59 0 95.5 -35t36.5 -96z" />
<glyph glyph-name="Idotaccent" unicode="&#x130;" horiz-adv-x="823" d="M-39 0l35 154h207l258 1040h-209l39 154h674l-39 -154h-205l-260 -1040h209l-37 -154h-672zM850 1677q0 -61 -47 -114.5t-121 -53.5q-51 0 -85 33t-34 90q0 66 45 119t117 53q55 0 90 -34t35 -93z" />
<glyph glyph-name="dotlessi" unicode="&#x131;" horiz-adv-x="706" d="M557 758q0 -86 -83 -297t-83 -266q0 -49 41 -50q61 0 146 207l96 -30q-113 -342 -326 -342q-82 0 -133 51t-51 141q0 106 85 323.5t85 272.5q0 45 -31 45q-70 0 -166 -215l-98 41q139 326 336 326q82 0 132 -55.5t50 -151.5z" />
<glyph glyph-name="Kcommaaccent" unicode="&#x136;" horiz-adv-x="1464" d="M383 -690l-31 84q205 74 248 188l-10 8q-20 -10 -45 -10q-47 0 -78 31t-31 82q0 61 43 111.5t111 50.5q74 0 114.5 -50.5t40.5 -126.5q0 -119 -93 -217t-269 -151zM1430 1194l-506 -410l297 -630h176l-37 -154h-623l37 152h162l-209 475l-203 -166l-78 -309h179l-37 -152 h-641l35 154h206l258 1040h-208l38 154h646l-39 -152h-176l-134 -532l629 532h-166l39 152h549l-37 -154h-157z" />
<glyph glyph-name="kcommaaccent" unicode="&#x137;" horiz-adv-x="1083" d="M764 201q0 -55 39 -56q59 0 137 207l96 -30q-106 -342 -303 -342q-88 0 -139 55t-51 153q0 31 11 97.5t11 87.5q0 57 -35.5 75.5t-146.5 18.5h-4l-125 -467h-231l331 1251h-170l41 160h408l-230 -852h11q76 0 123 44t120 167q59 96 115.5 145.5t140.5 49.5q72 0 112 -41 t40 -108.5t-39 -120t-100.5 -52.5t-90 46t-6.5 110q-39 -8 -106 -119q-59 -113 -135 -152q104 -8 148 -52t44 -120q0 -33 -8 -86t-8 -69zM162 -688l-31 84q205 74 248 188l-10 8q-20 -10 -45 -10q-47 0 -78 31t-31 82q0 61 43 111.5t111 50.5q74 0 114.5 -50.5t40.5 -125.5 q0 -119 -93 -217.5t-269 -151.5z" />
<glyph glyph-name="Lacute" unicode="&#x139;" horiz-adv-x="1234" d="M854 1659l-190 -152h-121l170 275q51 80 83.5 113.5t80.5 33.5q45 0 74.5 -32.5t29.5 -71.5q0 -41 -25.5 -72t-101.5 -94zM276 1348h682l-36 -152h-215l-261 -1044h242q137 0 198.5 64.5t170.5 293.5h127l-127 -510h-1110l35 154h206l258 1040h-208z" />
<glyph glyph-name="lacute" unicode="&#x13a;" horiz-adv-x="624" d="M698 1704l-190 -152h-121l170 275q51 80 84 113.5t80 33.5q45 0 74.5 -32.5t29.5 -71.5q0 -41 -25.5 -72t-101.5 -94zM82 172q0 76 55 281l217 798h-172l41 160h408l-291 -1067q-31 -111 -31 -149q0 -49 41 -50q68 0 146 207l96 -30q-113 -342 -320 -342q-90 0 -140 51 t-50 141z" />
<glyph glyph-name="Lcommaaccent" unicode="&#x13b;" horiz-adv-x="1234" d="M289 -690l-31 84q205 74 248 188l-10 8q-20 -10 -45 -10q-47 0 -78 31t-31 82q0 61 43 111.5t111 50.5q74 0 114.5 -50.5t40.5 -126.5q0 -119 -93 -217t-269 -151zM276 1348h682l-36 -152h-215l-261 -1044h242q137 0 198.5 64.5t170.5 293.5h127l-127 -510h-1110l35 154 h206l258 1040h-208z" />
<glyph glyph-name="lcommaaccent" unicode="&#x13c;" horiz-adv-x="624" d="M-8 -690l-31 84q205 74 248 188l-10 8q-20 -10 -45 -10q-47 0 -78 31t-31 82q0 61 43 111.5t111 50.5q74 0 114.5 -50.5t40.5 -126.5q0 -119 -93 -217t-269 -151zM82 172q0 76 55 281l217 798h-172l41 160h408l-291 -1067q-31 -111 -31 -149q0 -49 41 -50q68 0 146 207 l96 -30q-113 -342 -320 -342q-90 0 -140 51t-50 141z" />
<glyph glyph-name="Lcaron" unicode="&#x13d;" horiz-adv-x="1234" d="M1241 1227l-129 -213h-96l69 327q16 86 47 124t85 38q43 0 72.5 -29.5t29.5 -70.5q0 -49 -66 -157q-8 -13 -12 -19zM276 1348h682l-36 -152h-215l-261 -1044h242q137 0 198.5 64.5t170.5 293.5h127l-127 -510h-1110l35 154h206l258 1040h-208z" />
<glyph glyph-name="lcaron" unicode="&#x13e;" horiz-adv-x="624" d="M924 1300l-129 -213h-97l70 328q16 86 47 124t84 38q43 0 72.5 -29.5t29.5 -70.5q0 -49 -66 -158q-7 -13 -11 -19zM82 172q0 76 55 281l217 798h-172l41 160h408l-291 -1067q-31 -111 -31 -149q0 -49 41 -50q68 0 146 207l96 -30q-113 -342 -320 -342q-90 0 -140 51 t-50 141z" />
<glyph glyph-name="Ldot" unicode="&#x13f;" horiz-adv-x="1234" d="M276 1348h682l-36 -152h-215l-261 -1044h242q137 0 197.5 61t165.5 270h127l-121 -483h-1110l35 154h206l258 1040h-208zM1008 618q-51 0 -86 33t-35 88q0 63 45 115.5t117 52.5q55 0 90 -33.5t35 -89.5q0 -61 -46 -113.5t-120 -52.5z" />
<glyph glyph-name="ldot" unicode="&#x140;" horiz-adv-x="765" d="M846 733q0 -61 -45 -112.5t-117 -51.5q-51 0 -83 32t-32 87q0 61 43 113.5t115 52.5q53 0 86 -33t33 -88zM82 172q0 76 55 281l217 798h-172l41 160h408l-291 -1067q-31 -111 -31 -149q0 -49 41 -50q68 0 146 207l96 -30q-113 -342 -320 -342q-90 0 -140 51t-50 141z" />
<glyph glyph-name="Lslash" unicode="&#x141;" horiz-adv-x="1239" d="M279 1348h682l-37 -152h-215l-103 -414l373 117l-35 -149l-377 -119l-118 -479h241q137 0 198.5 64.5t170.5 293.5h127l-127 -510h-1110l35 154h206l97 389l-187 -58l37 152l189 57l123 500h-209z" />
<glyph glyph-name="lslash" unicode="&#x142;" horiz-adv-x="690" d="M115 172q0 76 55 281l43 159l-197 -59l33 135l201 62l137 501h-172l41 160h408l-160 -586l215 66l-35 -133l-217 -68l-94 -346q-31 -111 -31 -149q0 -49 41 -50q68 0 145 207l97 -30q-113 -342 -320 -342q-90 0 -140 51t-50 141z" />
<glyph glyph-name="Nacute" unicode="&#x143;" horiz-adv-x="1585" d="M1243 1659l-190 -152h-121l170 275q51 80 84 113.5t80 33.5q45 0 74.5 -32.5t29.5 -71.5q0 -41 -25.5 -72t-101.5 -94zM1026 -27l-430 1092h-18l-228 -911h199l-37 -154h-553l37 154h190l258 1040h-192l37 154h469l385 -971h18l203 817h-197l37 154h555l-39 -154h-190 l-305 -1221h-199z" />
<glyph glyph-name="nacute" unicode="&#x144;" horiz-adv-x="1232" d="M961 1245l-191 -151h-121l170 274q51 80 84 114t80 34q45 0 74.5 -33t29.5 -72q0 -41 -25 -72t-101 -94zM934 190q0 -45 35 -45q59 0 141 207l96 -30q-113 -342 -313 -342q-84 0 -133 51t-49 139q0 111 67.5 298t67.5 249q0 68 -55 67q-39 0 -86.5 -35.5t-104.5 -117.5 t-121.5 -245t-122.5 -386h-245l176 664q23 88 19.5 118.5t-32.5 30.5q-59 0 -159 -215l-97 41q139 324 328 324q68 0 109 -49.5t41 -141.5q0 -96 -43 -227l14 -6q199 426 432 426q84 0 135 -59.5t51 -153.5q0 -92 -75.5 -299.5t-75.5 -262.5z" />
<glyph glyph-name="Ncommaaccent" unicode="&#x145;" horiz-adv-x="1585" d="M428 -690l-31 84q205 74 248 188l-10 8q-20 -10 -45 -10q-47 0 -78 31t-31 82q0 61 43 111.5t111 50.5q74 0 115 -50.5t41 -126.5q0 -119 -93.5 -217t-269.5 -151zM1026 -27l-430 1092h-18l-228 -911h199l-37 -154h-553l37 154h190l258 1040h-192l37 154h469l385 -971h18 l203 817h-197l37 154h555l-39 -154h-190l-305 -1221h-199z" />
<glyph glyph-name="ncommaaccent" unicode="&#x146;" horiz-adv-x="1232" d="M289 -684l-31 84q205 74 248 188l-10 9q-20 -10 -45 -11q-47 0 -78 31t-31 82q0 61 43 111.5t111 50.5q74 0 114.5 -50.5t40.5 -125.5q0 -119 -93 -217.5t-269 -151.5zM934 190q0 -45 35 -45q59 0 141 207l96 -30q-113 -342 -313 -342q-84 0 -133 51t-49 139 q0 111 67.5 298t67.5 249q0 68 -55 67q-39 0 -86.5 -35.5t-104.5 -117.5t-121.5 -245t-122.5 -386h-245l176 664q23 88 19.5 118.5t-32.5 30.5q-59 0 -159 -215l-97 41q139 324 328 324q68 0 109 -49.5t41 -141.5q0 -96 -43 -227l14 -6q199 426 432 426q84 0 135 -59.5 t51 -153.5q0 -92 -75.5 -299.5t-75.5 -262.5z" />
<glyph glyph-name="Ncaron" unicode="&#x147;" horiz-adv-x="1585" d="M1409 1909l-336 -387h-119l-141 387h127l111 -185l219 185h139zM1026 -27l-430 1092h-18l-228 -911h199l-37 -154h-553l37 154h190l258 1040h-192l37 154h469l385 -971h18l203 817h-197l37 154h555l-39 -154h-190l-305 -1221h-199z" />
<glyph glyph-name="ncaron" unicode="&#x148;" horiz-adv-x="1232" d="M1126 1495l-335 -387h-119l-142 387h127l111 -184l219 184h139zM934 190q0 -45 35 -45q59 0 141 207l96 -30q-113 -342 -313 -342q-84 0 -133 51t-49 139q0 111 67.5 298t67.5 249q0 68 -55 67q-39 0 -86.5 -35.5t-104.5 -117.5t-121.5 -245t-122.5 -386h-245l176 664 q23 88 19.5 118.5t-32.5 30.5q-59 0 -159 -215l-97 41q139 324 328 324q68 0 109 -49.5t41 -141.5q0 -96 -43 -227l14 -6q199 426 432 426q84 0 135 -59.5t51 -153.5q0 -92 -75.5 -299.5t-75.5 -262.5z" />
<glyph glyph-name="Omacron" unicode="&#x14c;" horiz-adv-x="1474" d="M713 1532l43 172h557l-45 -172h-555zM127 559q0 201 91 387.5t267.5 310t395.5 123.5q252 0 411.5 -163.5t159.5 -428.5q0 -201 -91 -387t-267 -310t-394 -124q-252 0 -412.5 164t-160.5 428zM870 1231q-119 0 -214 -81t-147 -203t-80 -247t-28 -231q0 -174 81 -263 t229 -89q119 0 213 81t147 202.5t81 246.5t28 232q0 174 -82.5 263t-227.5 89z" />
<glyph glyph-name="omacron" unicode="&#x14d;" horiz-adv-x="1044" d="M385 1118l43 172h557l-45 -172h-555zM598 965q176 0 282.5 -111t106.5 -285q0 -238 -162.5 -413.5t-378.5 -175.5q-174 0 -281.5 110.5t-107.5 286.5q0 238 163 413t378 175zM743 666q0 186 -143 186q-88 0 -159.5 -103.5t-105.5 -231.5t-34 -236q0 -186 143 -187 q88 0 160 103.5t105.5 231.5t33.5 237z" />
<glyph glyph-name="Obreve" unicode="&#x14e;" horiz-adv-x="1474" d="M127 559q0 201 91 387.5t267.5 310t395.5 123.5q252 0 411.5 -163.5t159.5 -428.5q0 -201 -91 -387t-267 -310t-394 -124q-252 0 -412.5 164t-160.5 428zM870 1231q-119 0 -214 -81t-147 -203t-80 -247t-28 -231q0 -174 81 -263t229 -89q119 0 213 81t147 202.5t81 246.5 t28 232q0 174 -82.5 263t-227.5 89zM987 1513q-139 0 -205.5 90.5t-29.5 254.5h104q0 -176 158 -177q139 0 223 177h111q-39 -164 -135.5 -254.5t-225.5 -90.5z" />
<glyph glyph-name="obreve" unicode="&#x14f;" horiz-adv-x="1044" d="M598 965q176 0 282.5 -111t106.5 -285q0 -238 -162.5 -413.5t-378.5 -175.5q-174 0 -281.5 110.5t-107.5 286.5q0 238 163 413t378 175zM743 666q0 186 -143 186q-88 0 -159.5 -103.5t-105.5 -231.5t-34 -236q0 -186 143 -187q88 0 160 103.5t105.5 231.5t33.5 237z M659 1100q-139 0 -205.5 90t-29.5 254h104q0 -176 158 -176q139 0 223 176h111q-39 -164 -135.5 -254t-225.5 -90z" />
<glyph glyph-name="Ohungarumlaut" unicode="&#x150;" horiz-adv-x="1474" d="M1016 1659l-178 -152h-119l155 275q43 80 76 113.5t78 33.5t76 -32.5t31 -71.5q0 -43 -23.5 -74t-95.5 -92zM1364 1659l-186 -152h-119l168 275q45 76 80.5 111.5t81 35.5t73 -31.5t27.5 -70.5q0 -43 -25.5 -75t-99.5 -93zM127 559q0 201 91 387.5t267.5 310t395.5 123.5 q252 0 411.5 -163.5t159.5 -428.5q0 -201 -91 -387t-267 -310t-394 -124q-252 0 -412.5 164t-160.5 428zM870 1231q-119 0 -214 -81t-147 -203t-80 -247t-28 -231q0 -174 81 -263t229 -89q119 0 213 81t147 202.5t81 246.5t28 232q0 174 -82.5 263t-227.5 89z" />
<glyph glyph-name="ohungarumlaut" unicode="&#x151;" horiz-adv-x="1044" d="M690 1245l-178 -151h-119l156 274q43 80 75.5 114t78 34t76 -33t30.5 -72q0 -43 -23.5 -74t-95.5 -92zM1038 1245l-186 -151h-119l168 274q45 76 81 112t81 36t72.5 -32t27.5 -71q0 -43 -25.5 -75t-99.5 -93zM598 965q176 0 282.5 -111t106.5 -285q0 -238 -162.5 -413.5 t-378.5 -175.5q-174 0 -281.5 110.5t-107.5 286.5q0 238 163 413t378 175zM743 666q0 186 -143 186q-88 0 -159.5 -103.5t-105.5 -231.5t-34 -236q0 -186 143 -187q88 0 160 103.5t105.5 231.5t33.5 237z" />
<glyph glyph-name="OE" unicode="&#x152;" horiz-adv-x="2056" d="M1034 1348h1116l-114 -457h-123q-4 195 -37 250t-156 55h-338l-108 -438h94q102 0 142 32.5t98 165.5h133l-135 -540h-127q12 133 -10.5 167.5t-118.5 34.5h-111l-117 -466h342q49 0 82 5t64.5 24.5t52 38t49.5 67.5t49.5 89l61.5 126h135l-125 -502h-1081 q-311 0 -481.5 145.5t-170.5 380.5q0 152 61.5 305.5t176.5 266.5q250 250 696 250zM1124 1196h-114q-272 0 -418 -145q-90 -90 -149.5 -255t-59.5 -315q0 -330 371 -329h110z" />
<glyph glyph-name="oe" unicode="&#x153;" horiz-adv-x="1605" d="M1419 303l88 -61q-182 -262 -434 -262q-213 0 -295 165q-139 -166 -338 -165q-170 0 -276.5 111.5t-106.5 285.5q0 238 163 413t378 175q223 0 313 -183q160 182 385 183q129 0 201 -58.5t72 -154.5q0 -147 -158 -248t-467 -119q-2 -16 -2 -47q0 -223 193 -223 q153 0 284 188zM743 666q0 186 -143 186q-88 0 -159.5 -103.5t-105.5 -231.5t-34 -236q0 -186 143 -187q88 0 160 103.5t105.5 231.5t33.5 237zM1257 852q-98 0 -178 -111.5t-116 -259.5q203 23 296 94.5t93 174.5q0 45 -25 73.5t-70 28.5z" />
<glyph glyph-name="Racute" unicode="&#x154;" horiz-adv-x="1409" d="M1145 1659l-191 -152h-120l170 275q51 80 83.5 113.5t79.5 33.5q45 0 75 -32.5t30 -71.5q0 -41 -25.5 -72t-101.5 -94zM-53 0l35 154h206l258 1040h-208l38 154h660q238 0 343 -87t105 -217q0 -152 -111.5 -256t-338.5 -124l-6 -17q131 -27 185 -83t54 -152 q0 -35 -10 -104.5t-10 -98.5q0 -41 17.5 -56.5t54.5 -15.5q51 0 110 58l55 -80q-113 -139 -274 -140q-111 0 -172 48.5t-61 142.5q0 43 20.5 147.5t20.5 155.5q0 59 -42 90t-143 31h-178l-109 -436h205l-37 -154h-667zM592 733h168q176 0 258 82q82 78 82 221 q-4 160 -213 160h-180z" />
<glyph glyph-name="racute" unicode="&#x155;" horiz-adv-x="962" d="M825 1245l-190 -151h-121l170 274q51 80 84 114t80 34q45 0 74.5 -33t29.5 -72q0 -41 -25.5 -72t-101.5 -94zM111 0l176 664q23 88 19.5 118.5t-32.5 30.5q-59 0 -159 -215l-97 41q139 324 328 324q68 0 109 -49.5t41 -141.5t-41 -221l16 -6q96 217 177 318.5t183 101.5 q66 0 108 -42t42 -114q0 -76 -43 -130t-104 -54q-55 0 -90 35.5t-33 97.5q-27 -10 -62 -52t-82 -124t-103 -233.5t-108 -348.5h-245z" />
<glyph glyph-name="Rcommaaccent" unicode="&#x156;" horiz-adv-x="1409" d="M395 -690l-30 84q205 74 247 188l-10 8q-20 -10 -45 -10q-47 0 -77.5 31t-30.5 82q0 61 43 111.5t110 50.5q74 0 115 -50.5t41 -126.5q0 -119 -93.5 -217t-269.5 -151zM-53 0l35 154h206l258 1040h-208l38 154h660q238 0 343 -87t105 -217q0 -152 -111.5 -256 t-338.5 -124l-6 -17q131 -27 185 -83t54 -152q0 -35 -10 -104.5t-10 -98.5q0 -41 17.5 -56.5t54.5 -15.5q51 0 110 58l55 -80q-113 -139 -274 -140q-111 0 -172 48.5t-61 142.5q0 43 20.5 147.5t20.5 155.5q0 59 -42 90t-143 31h-178l-109 -436h205l-37 -154h-667zM592 733 h168q176 0 258 82q82 78 82 221q-4 160 -213 160h-180z" />
<glyph glyph-name="rcommaaccent" unicode="&#x157;" horiz-adv-x="962" d="M-18 -690l-31 84q205 74 248 188l-11 8q-20 -10 -45 -10q-47 0 -77.5 31t-30.5 82q0 61 43 111.5t110 50.5q74 0 115 -50.5t41 -126.5q0 -119 -93 -217t-269 -151zM111 0l176 664q23 88 19.5 118.5t-32.5 30.5q-59 0 -159 -215l-97 41q139 324 328 324q68 0 109 -49.5 t41 -141.5t-41 -221l16 -6q96 217 177 318.5t183 101.5q66 0 108 -42t42 -114q0 -76 -43 -130t-104 -54q-55 0 -90 35.5t-33 97.5q-27 -10 -62 -52t-82 -124t-103 -233.5t-108 -348.5h-245z" />
<glyph glyph-name="Rcaron" unicode="&#x158;" horiz-adv-x="1409" d="M1309 1909l-336 -387h-119l-141 387h127l110 -185l219 185h140zM-53 0l35 154h206l258 1040h-208l38 154h660q238 0 343 -87t105 -217q0 -152 -111.5 -256t-338.5 -124l-6 -17q131 -27 185 -83t54 -152q0 -35 -10 -104.5t-10 -98.5q0 -41 17.5 -56.5t54.5 -15.5 q51 0 110 58l55 -80q-113 -139 -274 -140q-111 0 -172 48.5t-61 142.5q0 43 20.5 147.5t20.5 155.5q0 59 -42 90t-143 31h-178l-109 -436h205l-37 -154h-667zM592 733h168q176 0 258 82q82 78 82 221q-4 160 -213 160h-180z" />
<glyph glyph-name="rcaron" unicode="&#x159;" horiz-adv-x="962" d="M989 1495l-336 -387h-118l-142 387h127l111 -184l219 184h139zM111 0l176 664q23 88 19.5 118.5t-32.5 30.5q-59 0 -159 -215l-97 41q139 324 328 324q68 0 109 -49.5t41 -141.5t-41 -221l16 -6q96 217 177 318.5t183 101.5q66 0 108 -42t42 -114q0 -76 -43 -130 t-104 -54q-55 0 -90 35.5t-33 97.5q-27 -10 -62 -52t-82 -124t-103 -233.5t-108 -348.5h-245z" />
<glyph glyph-name="Sacute" unicode="&#x15a;" horiz-adv-x="1202" d="M1063 1659l-191 -152h-120l170 275q51 80 83.5 113.5t79.5 33.5q45 0 75 -32.5t30 -71.5q0 -41 -25.5 -72t-101.5 -94zM-18 -27l122 506h146q29 -180 126 -273t236 -93q117 0 186.5 62.5t69.5 146.5q0 97 -139 173q-32 18 -141 68q-82 37 -130 63.5t-108.5 72.5 t-89.5 107.5t-29 139.5q0 174 139.5 304t340.5 130q109 0 203 -42t145 -113l84 149h153l-120 -485h-144q-31 186 -108.5 267t-212.5 81q-98 0 -163 -60.5t-65 -142.5t66.5 -132t199.5 -109q14 -7 21 -9q80 -35 128 -60.5t106.5 -70.5t86 -105.5t27.5 -135.5 q0 -188 -146.5 -316.5t-357.5 -128.5q-260 0 -389 164l-90 -158h-153z" />
<glyph glyph-name="sacute" unicode="&#x15b;" horiz-adv-x="905" d="M819 1245l-190 -151h-121l170 274q51 80 84 114t80 34q45 0 74.5 -33t29.5 -72q0 -41 -25.5 -72t-101.5 -94zM797 301q0 -152 -113 -236.5t-274 -84.5q-156 0 -274 63t-118 174q0 61 38 104.5t98 43.5q57 0 88.5 -34t31.5 -79q0 -72 -49 -113q59 -53 176 -53q80 0 125 38 t45 107q0 37 -28.5 68t-61 48.5t-98.5 47.5q-57 27 -90 45.5t-73 49t-58.5 70.5t-18.5 89q0 150 118 233t267 83q156 0 254.5 -61.5t98.5 -153.5q0 -61 -37 -104.5t-94 -43.5q-55 0 -88 33t-33 80q0 66 49 108q-43 39 -141 39q-76 0 -123 -37t-47 -100q0 -55 46 -90t158 -86 q51 -23 83 -40t69 -48t55.5 -70t18.5 -90z" />
<glyph glyph-name="Scedilla" unicode="&#x15e;" horiz-adv-x="1202" d="M266 -336q84 -57 170 -57q41 0 67.5 20.5t26.5 53.5q0 45 -50 64t-130 13l-26 64l186 153q-186 31 -285 156l-90 -158h-153l122 506h146q29 -180 126 -273t236 -93q117 0 186.5 62.5t69.5 146.5q0 97 -139 173q-32 18 -141 68q-82 37 -130 63.5t-108.5 72.5t-89.5 107.5 t-29 139.5q0 174 139.5 304t340.5 130q109 0 203 -42t145 -113l84 149h153l-120 -485h-144q-31 186 -108.5 267t-212.5 81q-98 0 -163 -60.5t-65 -142.5t66.5 -132t199.5 -109q14 -7 21 -9q80 -35 128 -60.5t106.5 -70.5t86 -105.5t27.5 -135.5q0 -180 -137 -307.5 t-338 -137.5l-113 -96v-8q80 -14 127.5 -57.5t47.5 -108.5q0 -84 -67 -142.5t-187 -58.5q-143 0 -248 86z" />
<glyph glyph-name="scedilla" unicode="&#x15f;" horiz-adv-x="905" d="M84 -336q84 -57 170 -57q41 0 67.5 20.5t26.5 53.5q0 45 -50 64t-130 13l-27 64l197 162q-133 12 -226.5 73.5t-93.5 159.5q0 61 38 104.5t98 43.5q57 0 88.5 -34t31.5 -79q0 -72 -49 -113q59 -53 176 -53q80 0 125 38t45 107q0 37 -28.5 68t-61 48.5t-98.5 47.5 q-57 27 -90 45.5t-73 49t-58.5 70.5t-18.5 89q0 150 118 233t267 83q156 0 254.5 -61.5t98.5 -153.5q0 -61 -37 -104.5t-94 -43.5q-55 0 -88 33t-33 80q0 66 49 108q-43 39 -141 39q-76 0 -123 -37t-47 -100q0 -55 46 -90t158 -86q51 -23 83 -40t69 -48t55.5 -70t18.5 -90 q0 -135 -89.5 -217t-226.5 -98l-133 -115v-8q80 -14 127 -57.5t47 -108.5q0 -84 -66.5 -142.5t-187.5 -58.5q-143 0 -248 86z" />
<glyph glyph-name="Scaron" unicode="&#x160;" horiz-adv-x="1202" d="M1229 1909l-336 -387h-119l-141 387h127l110 -185l220 185h139zM-18 -27l122 506h146q29 -180 126 -273t236 -93q117 0 186.5 62.5t69.5 146.5q0 97 -139 173q-32 18 -141 68q-82 37 -130 63.5t-108.5 72.5t-89.5 107.5t-29 139.5q0 174 139.5 304t340.5 130 q109 0 203 -42t145 -113l84 149h153l-120 -485h-144q-31 186 -108.5 267t-212.5 81q-98 0 -163 -60.5t-65 -142.5t66.5 -132t199.5 -109q14 -7 21 -9q80 -35 128 -60.5t106.5 -70.5t86 -105.5t27.5 -135.5q0 -188 -146.5 -316.5t-357.5 -128.5q-260 0 -389 164l-90 -158 h-153z" />
<glyph glyph-name="scaron" unicode="&#x161;" horiz-adv-x="905" d="M983 1495l-336 -387h-119l-141 387h127l111 -184l219 184h139zM797 301q0 -152 -113 -236.5t-274 -84.5q-156 0 -274 63t-118 174q0 61 38 104.5t98 43.5q57 0 88.5 -34t31.5 -79q0 -72 -49 -113q59 -53 176 -53q80 0 125 38t45 107q0 37 -28.5 68t-61 48.5t-98.5 47.5 q-57 27 -90 45.5t-73 49t-58.5 70.5t-18.5 89q0 150 118 233t267 83q156 0 254.5 -61.5t98.5 -153.5q0 -61 -37 -104.5t-94 -43.5q-55 0 -88 33t-33 80q0 66 49 108q-43 39 -141 39q-76 0 -123 -37t-47 -100q0 -55 46 -90t158 -86q51 -23 83 -40t69 -48t55.5 -70t18.5 -90z " />
<glyph glyph-name="Tcommaaccent" unicode="&#x162;" horiz-adv-x="1384" d="M303 -690l-31 84q205 74 248 188l-10 8q-20 -10 -45 -10q-47 0 -78 31t-31 82q0 61 43 111.5t111 50.5q74 0 115 -50.5t41 -126.5q0 -119 -93.5 -217t-269.5 -151zM217 0l37 154h221l264 1063h-71q-121 0 -184.5 -65t-196.5 -310h-127l129 506h1229l-127 -506h-117 q-8 240 -42 307.5t-157 67.5h-71l-265 -1063h226l-37 -154h-711z" />
<glyph glyph-name="tcommaaccent" unicode="&#x163;" horiz-adv-x="794" d="M74 -690l-31 84q205 74 248 188l-10 8q-20 -10 -45 -10q-47 0 -78 31t-31 82q0 61 43 111.5t111 50.5q74 0 114.5 -50.5t40.5 -126.5q0 -119 -93 -217t-269 -151zM797 797h-291l-123 -449q-25 -88 -25 -123q0 -74 72 -73q96 0 193 221l98 -33q-68 -197 -168 -278.5 t-201 -81.5q-104 0 -167.5 53t-63.5 153q0 55 37 203l110 408h-180l33 125h180l68 245l243 27l-73 -272h290z" />
<glyph glyph-name="Tcaron" unicode="&#x164;" horiz-adv-x="1384" d="M1311 1909l-336 -387h-119l-141 387h127l110 -185l219 185h140zM217 0l37 154h221l264 1063h-71q-121 0 -184.5 -65t-196.5 -310h-127l129 506h1229l-127 -506h-117q-8 240 -42 307.5t-157 67.5h-71l-265 -1063h226l-37 -154h-711z" />
<glyph glyph-name="tcaron" unicode="&#x165;" horiz-adv-x="794" d="M930 1300l-129 -213h-96l69 328q16 86 47 124t84 38q43 0 73 -29.5t30 -70.5q0 -49 -67 -158q-7 -13 -11 -19zM797 797h-291l-123 -449q-25 -88 -25 -123q0 -74 72 -73q96 0 193 221l98 -33q-68 -197 -168 -278.5t-201 -81.5q-104 0 -167.5 53t-63.5 153q0 55 37 203 l110 408h-180l33 125h180l68 245l243 27l-73 -272h290z" />
<glyph glyph-name="Umacron" unicode="&#x16a;" horiz-adv-x="1505" d="M719 -35q-242 0 -374 105.5t-132 271.5q0 84 25 182l168 670h-189l39 154h633l-39 -154h-186l-170 -682q-18 -80 -19 -145q0 -113 79 -172.5t208 -59.5q147 0 235 88q78 78 119 236l182 735h-192l39 154h538l-36 -154h-181l-196 -788q-47 -190 -154 -297 q-143 -144 -397 -144zM768 1532l43 172h557l-45 -172h-555z" />
<glyph glyph-name="umacron" unicode="&#x16b;" horiz-adv-x="1228" d="M911 -20q-174 0 -174 192q0 90 45 234l-14 6q-197 -432 -426 -432q-84 0 -135 59t-51 156q0 92 72.5 301t72.5 260q0 43 -31 43q-33 0 -64.5 -42t-86.5 -157l-96 41q133 324 333 324q82 0 127 -49.5t45 -137.5q0 -102 -67.5 -291.5t-67.5 -246.5q0 -80 58 -80 q39 0 84 35.5t101 117.5t120.5 246t124.5 391h245l-168 -635q-23 -76 -22 -116q0 -53 47 -54q66 0 137 207l99 -30q-109 -342 -308 -342zM436 1118l43 172h557l-45 -172h-555z" />
<glyph glyph-name="Ubreve" unicode="&#x16c;" horiz-adv-x="1505" d="M719 -35q-242 0 -374 105.5t-132 271.5q0 84 25 182l168 670h-189l39 154h633l-39 -154h-186l-170 -682q-18 -80 -19 -145q0 -113 79 -172.5t208 -59.5q147 0 235 88q78 78 119 236l182 735h-192l39 154h538l-36 -154h-181l-196 -788q-47 -190 -154 -297 q-143 -144 -397 -144zM1042 1513q-139 0 -205.5 90.5t-29.5 254.5h104q0 -176 158 -177q139 0 223 177h111q-39 -164 -135.5 -254.5t-225.5 -90.5z" />
<glyph glyph-name="ubreve" unicode="&#x16d;" horiz-adv-x="1228" d="M911 -20q-174 0 -174 192q0 90 45 234l-14 6q-197 -432 -426 -432q-84 0 -135 59t-51 156q0 92 72.5 301t72.5 260q0 43 -31 43q-33 0 -64.5 -42t-86.5 -157l-96 41q133 324 333 324q82 0 127 -49.5t45 -137.5q0 -102 -67.5 -291.5t-67.5 -246.5q0 -80 58 -80 q39 0 84 35.5t101 117.5t120.5 246t124.5 391h245l-168 -635q-23 -76 -22 -116q0 -53 47 -54q66 0 137 207l99 -30q-109 -342 -308 -342zM709 1094q-139 0 -206 90t-30 254h105q0 -176 157 -176q139 0 223 176h111q-39 -164 -135 -254t-225 -90z" />
<glyph glyph-name="Uring" unicode="&#x16e;" horiz-adv-x="1505" d="M1325 1743q0 -102 -70.5 -175t-181.5 -73q-98 0 -155.5 56.5t-57.5 136.5q0 104 70.5 176.5t181.5 72.5q98 0 155.5 -56t57.5 -138zM983 1686q0 -47 25.5 -76t70.5 -29q57 0 90 53.5t33 114.5q0 47 -25.5 74.5t-70.5 27.5q-57 0 -90 -52t-33 -113zM719 -35 q-242 0 -374 105.5t-132 271.5q0 84 25 182l168 670h-189l39 154h633l-39 -154h-186l-170 -682q-18 -80 -19 -145q0 -113 79 -172.5t208 -59.5q147 0 235 88q78 78 119 236l182 735h-192l39 154h538l-36 -154h-181l-196 -788q-47 -190 -154 -297q-143 -144 -397 -144z" />
<glyph glyph-name="uring" unicode="&#x16f;" horiz-adv-x="1228" d="M995 1329q0 -102 -70.5 -175t-181.5 -73q-98 0 -155.5 56.5t-57.5 136.5q0 104 71 177t181 73q98 0 155.5 -56.5t57.5 -138.5zM653 1272q0 -47 26 -76t71 -29q57 0 89.5 53.5t32.5 114.5q0 47 -25.5 75t-70.5 28q-57 0 -90 -52.5t-33 -113.5zM911 -20q-174 0 -174 192 q0 90 45 234l-14 6q-197 -432 -426 -432q-84 0 -135 59t-51 156q0 92 72.5 301t72.5 260q0 43 -31 43q-33 0 -64.5 -42t-86.5 -157l-96 41q133 324 333 324q82 0 127 -49.5t45 -137.5q0 -102 -67.5 -291.5t-67.5 -246.5q0 -80 58 -80q39 0 84 35.5t101 117.5t120.5 246 t124.5 391h245l-168 -635q-23 -76 -22 -116q0 -53 47 -54q66 0 137 207l99 -30q-109 -342 -308 -342z" />
<glyph glyph-name="Uhungarumlaut" unicode="&#x170;" horiz-adv-x="1505" d="M719 -35q-242 0 -374 105.5t-132 271.5q0 84 25 182l168 670h-189l39 154h633l-39 -154h-186l-170 -682q-18 -80 -19 -145q0 -113 79 -172.5t208 -59.5q147 0 235 88q78 78 119 236l182 735h-192l39 154h538l-36 -154h-181l-196 -788q-47 -190 -154 -297 q-143 -144 -397 -144zM1073 1659l-178 -152h-119l156 275q43 80 75.5 113.5t77.5 33.5t76 -32.5t31 -71.5q0 -43 -23.5 -74t-95.5 -92zM1421 1659l-186 -152h-119l168 275q45 76 81 111.5t81 35.5t72.5 -31.5t27.5 -70.5q0 -43 -25.5 -75t-99.5 -93z" />
<glyph glyph-name="uhungarumlaut" unicode="&#x171;" horiz-adv-x="1228" d="M911 -20q-174 0 -174 192q0 90 45 234l-14 6q-197 -432 -426 -432q-84 0 -135 59t-51 156q0 92 72.5 301t72.5 260q0 43 -31 43q-33 0 -64.5 -42t-86.5 -157l-96 41q133 324 333 324q82 0 127 -49.5t45 -137.5q0 -102 -67.5 -291.5t-67.5 -246.5q0 -80 58 -80 q39 0 84 35.5t101 117.5t120.5 246t124.5 391h245l-168 -635q-23 -76 -22 -116q0 -53 47 -54q66 0 137 207l99 -30q-109 -342 -308 -342zM741 1245l-178 -151h-119l156 274q43 80 76 114t78 34t75.5 -33t30.5 -72q0 -43 -23.5 -74t-95.5 -92zM1090 1245l-187 -151h-119 l168 274q45 76 81 112t81 36t72.5 -32t27.5 -71q0 -43 -25 -75t-99 -93z" />
<glyph glyph-name="Uogonek" unicode="&#x172;" horiz-adv-x="1505" d="M813 -428q-113 -76 -227 -76q-100 0 -165 48t-65 137q0 78 55.5 143t184.5 149q-184 25 -283.5 125.5t-99.5 243.5q0 84 25 182l168 670h-189l39 154h633l-39 -154h-186l-170 -682q-18 -80 -19 -145q0 -113 79 -172.5t208 -59.5q147 0 235 88q78 78 119 236l182 735h-192 l39 154h538l-36 -154h-181l-196 -788q-47 -190 -154 -297q-135 -135 -373 -144q-117 -92 -157.5 -148.5t-40.5 -105.5q0 -37 25.5 -63.5t78.5 -26.5q57 0 123 41z" />
<glyph glyph-name="uogonek" unicode="&#x173;" horiz-adv-x="1228" d="M1120 352l99 -30q-41 -121 -85 -193t-130 -139q-133 -104 -180.5 -166t-47.5 -113q0 -39 25.5 -64.5t81 -25.5t123.5 41l41 -90q-115 -76 -228 -76q-102 0 -166.5 48t-64.5 137q0 80 60.5 148.5t201.5 158.5q-113 37 -113 184q0 90 45 234l-14 6q-197 -432 -426 -432 q-84 0 -135 59t-51 156q0 92 72.5 301t72.5 260q0 43 -31 43q-33 0 -64.5 -42t-86.5 -157l-96 41q133 324 333 324q82 0 127 -49.5t45 -137.5q0 -102 -67.5 -291.5t-67.5 -246.5q0 -80 58 -80q39 0 84 35.5t101 117.5t120.5 246t124.5 391h245l-168 -635q-23 -76 -22 -116 q0 -53 47 -54q65 0 137 207z" />
<glyph glyph-name="Wcircumflex" unicode="&#x174;" horiz-adv-x="2013" d="M971 1509l334 387h118l142 -387h-125l-111 185l-221 -185h-137zM1159 -8l-39 817l-473 -817h-235l-80 1202h-180l36 154h617l-37 -152h-176l43 -938h10l461 793l-6 145h-178l36 152h617l-37 -152h-188l30 -938h11l495 938h-174l37 152h502l-39 -154h-139l-674 -1202h-240 z" />
<glyph glyph-name="wcircumflex" unicode="&#x175;" horiz-adv-x="1527" d="M371 965q84 0 127 -48.5t43 -132.5q0 -111 -84 -302t-84 -253q0 -80 73 -79q57 0 117 68.5t134.5 254.5t140.5 477h221l-101 -420q-35 -145 -34 -243q0 -137 102 -137q86 0 162 89t120 210.5t50 238.5q-25 -12 -55 -12q-53 0 -87 34.5t-34 94.5q0 66 44 116t105 50 q76 0 120 -53.5t44 -155.5q0 -113 -37 -245t-102.5 -255t-172 -205t-227.5 -82q-109 0 -171 68t-60 203q0 35 4 61l-14 4q-129 -336 -346 -336q-100 0 -165 62.5t-65 171.5q0 100 88 295.5t88 251.5q0 43 -30 43q-37 0 -70 -44t-88 -157l-96 41q143 326 340 326zM625 1096 l333 387h119l142 -387h-125l-111 184l-221 -184h-137z" />
<glyph glyph-name="Ycircumflex" unicode="&#x176;" horiz-adv-x="1306" d="M780 702l400 494h-164l37 152h485l-39 -154h-143l-543 -643l-98 -397h198l-36 -154h-652l37 154h195l104 413l-207 627h-161l38 154h617l-39 -152h-176zM618 1509l334 387h119l141 -387h-125l-110 185l-221 -185h-138z" />
<glyph glyph-name="ycircumflex" unicode="&#x177;" horiz-adv-x="1132" d="M360 965q78 0 123 -48.5t45 -130.5q0 -102 -59 -271t-59 -220q0 -72 67 -72q223 0 410 727h229l-188 -790q-119 -508 -551 -508q-129 0 -222.5 44t-93.5 146q0 55 39 101.5t103 46.5q59 0 91 -36t27.5 -89t-40.5 -88q43 -14 94 -15q238 0 338 414l41 162l-13 6 q-162 -297 -364 -297q-98 0 -150.5 59.5t-52.5 153.5q0 84 65.5 263t65.5 233q0 43 -31 43q-61 0 -155 -201l-96 41q142 326 337 326zM403 1096l334 387h119l141 -387h-125l-110 184l-221 -184h-138z" />
<glyph glyph-name="Ydieresis" unicode="&#x178;" horiz-adv-x="1306" d="M780 702l400 494h-164l37 152h485l-39 -154h-143l-543 -643l-98 -397h198l-36 -154h-652l37 154h195l104 413l-207 627h-161l38 154h617l-39 -152h-176zM915 1700q0 -59 -45 -111.5t-112 -52.5q-49 0 -81 33t-32 86q0 63 42 114.5t110 51.5q53 0 85.5 -33t32.5 -88z M1300 1700q0 -59 -45 -111.5t-112 -52.5q-49 0 -81 33t-32 86q0 63 42 114.5t110 51.5q53 0 85.5 -33t32.5 -88z" />
<glyph glyph-name="Zacute" unicode="&#x179;" horiz-adv-x="1267" d="M1081 1659l-190 -152h-121l170 275q51 80 84 113.5t80 33.5q45 0 74.5 -32.5t29.5 -71.5q0 -41 -25.5 -72t-101.5 -94zM-41 0l33 129l1038 1067h-323q-88 0 -135.5 -21.5t-100.5 -93t-145 -243.5h-119l127 510h1065l-33 -129l-1036 -1067h366q123 0 186.5 61t196.5 311 h121l-131 -524h-1110z" />
<glyph glyph-name="zacute" unicode="&#x17a;" horiz-adv-x="952" d="M815 1245l-190 -151h-121l170 274q51 80 84 114t80 34q45 0 74.5 -33t29.5 -72q0 -41 -25.5 -72t-101.5 -94zM289 281q57 -6 160.5 -42t150.5 -36q72 0 108.5 38t96.5 162l90 -36q-70 -207 -145.5 -297t-208.5 -90q-160 0 -267 165l-45 68l-18 -4q-31 -229 -148 -229 q-47 0 -77.5 30.5t-30.5 73.5q0 125 203 184q102 125 239.5 232.5t257.5 163.5q-57 6 -156.5 41.5t-142.5 35.5q-70 0 -106.5 -37.5t-95.5 -160.5l-93 35q70 207 146 297t209 90q150 0 256 -166l43 -68l18 4q31 229 148 230q47 0 77.5 -30t30.5 -73q0 -129 -203 -186 q-102 -125 -238 -231.5t-259 -163.5z" />
<glyph glyph-name="Zdotaccent" unicode="&#x17b;" horiz-adv-x="1267" d="M-41 0l33 129l1038 1067h-323q-88 0 -135.5 -21.5t-100.5 -93t-145 -243.5h-119l127 510h1065l-33 -129l-1036 -1067h366q123 0 186.5 61t196.5 311h121l-131 -524h-1110zM1063 1677q0 -61 -47 -114.5t-121 -53.5q-51 0 -85 33t-34 90q0 66 45 119t117 53q55 0 90 -34 t35 -93z" />
<glyph glyph-name="zdotaccent" unicode="&#x17c;" horiz-adv-x="952" d="M289 281q57 -6 160.5 -42t150.5 -36q72 0 108.5 38t96.5 162l90 -36q-70 -207 -145.5 -297t-208.5 -90q-160 0 -267 165l-45 68l-18 -4q-31 -229 -148 -229q-47 0 -77.5 30.5t-30.5 73.5q0 125 203 184q102 125 239.5 232.5t257.5 163.5q-57 6 -156.5 41.5t-142.5 35.5 q-70 0 -106.5 -37.5t-95.5 -160.5l-93 35q70 207 146 297t209 90q150 0 256 -166l43 -68l18 4q31 229 148 230q47 0 77.5 -30t30.5 -73q0 -129 -203 -186q-102 -125 -238 -231.5t-259 -163.5zM795 1264q0 -61 -47.5 -114.5t-120.5 -53.5q-51 0 -85 32.5t-34 90.5 q0 66 45 119t117 53q55 0 90 -34t35 -93z" />
<glyph glyph-name="Zcaron" unicode="&#x17d;" horiz-adv-x="1267" d="M1247 1909l-336 -387h-118l-142 387h127l111 -185l219 185h139zM-41 0l33 129l1038 1067h-323q-88 0 -135.5 -21.5t-100.5 -93t-145 -243.5h-119l127 510h1065l-33 -129l-1036 -1067h366q123 0 186.5 61t196.5 311h121l-131 -524h-1110z" />
<glyph glyph-name="zcaron" unicode="&#x17e;" horiz-adv-x="952" d="M979 1495l-336 -387h-119l-141 387h127l111 -184l219 184h139zM289 281q57 -6 160.5 -42t150.5 -36q72 0 108.5 38t96.5 162l90 -36q-70 -207 -145.5 -297t-208.5 -90q-160 0 -267 165l-45 68l-18 -4q-31 -229 -148 -229q-47 0 -77.5 30.5t-30.5 73.5q0 125 203 184 q102 125 239.5 232.5t257.5 163.5q-57 6 -156.5 41.5t-142.5 35.5q-70 0 -106.5 -37.5t-95.5 -160.5l-93 35q70 207 146 297t209 90q150 0 256 -166l43 -68l18 4q31 229 148 230q47 0 77.5 -30t30.5 -73q0 -129 -203 -186q-102 -125 -238 -231.5t-259 -163.5z" />
<glyph glyph-name="Aringacute" unicode="&#x1fa;" d="M1243 1997l-190 -152h-121l170 275q51 80 84 113.5t80 33.5q45 0 74.5 -32.5t29.5 -71.5q0 -41 -25.5 -72t-101.5 -94zM1180 1567q0 -72 -38 -132.5t-102 -91.5l121 -1189h180l-38 -154h-633l37 154h194l-24 301h-455l-176 -301h172l-37 -154h-502l39 154h141l732 1206 q-74 53 -74 151q0 104 69.5 177t180.5 73q98 0 155.5 -56t57.5 -138zM500 592h366l-43 543h-8zM838 1509q0 -47 25.5 -75.5t72.5 -28.5q55 0 88 53t33 115q0 47 -25.5 74.5t-70.5 27.5q-57 0 -90 -52.5t-33 -113.5z" />
<glyph glyph-name="aringacute" unicode="&#x1fb;" horiz-adv-x="1155" d="M1047 950l-168 -635q-23 -74 -23 -116q0 -53 47 -54q66 0 137 207l99 -30q-109 -342 -316 -342q-76 0 -122 47t-46 133q0 25 2 45l-14 6q-57 -113 -139 -172t-172 -59q-127 0 -200 92t-73 233q0 152 54.5 286t140.5 218q152 156 319 156q82 0 133.5 -49.5t65.5 -122.5 l41 157h234zM426 143q113 0 204 188.5t91 336.5q0 164 -111 163q-84 0 -157.5 -93t-109.5 -207.5t-36 -204.5q0 -183 119 -183zM1018 1757l-191 -151h-120l170 274q51 80 83.5 114t79.5 34q45 0 75 -33t30 -72q0 -41 -25.5 -72t-101.5 -94zM973 1329q0 -102 -71 -175 t-181 -73q-98 0 -155.5 56.5t-57.5 136.5q0 104 70.5 177t181.5 73q98 0 155.5 -56.5t57.5 -138.5zM631 1272q0 -47 25.5 -76t70.5 -29q57 0 90 53.5t33 114.5q0 47 -25.5 75t-70.5 28q-57 0 -90 -52.5t-33 -113.5z" />
<glyph glyph-name="AEacute" unicode="&#x1fc;" horiz-adv-x="2072" d="M1614 1659l-191 -152h-120l170 275q51 80 83.5 113.5t79.5 33.5q45 0 75 -32.5t30 -71.5q0 -41 -25.5 -72t-101.5 -94zM676 154h205l82 321h-449l-270 -323h170l-37 -152h-529l37 154h144l907 1040h-195l35 154h1389l-113 -457h-123q-4 195 -36.5 250t-155.5 55h-338 l-109 -438h94q102 0 141.5 32.5t98.5 165.5h133l-135 -540h-127q12 133 -10.5 167.5t-120.5 34.5h-109l-116 -466h342q133 0 190.5 60t167.5 290h135l-125 -502h-1210zM631 612h364l146 586h-17z" />
<glyph glyph-name="aeacute" unicode="&#x1fd;" horiz-adv-x="1488" d="M1178 965q129 0 201.5 -58.5t72.5 -154.5q0 -147 -157.5 -249t-467.5 -120q-2 -16 -2 -45q0 -223 193 -223q154 0 287 188l86 -61q-182 -262 -435 -262q-119 0 -200.5 52t-118.5 144q-137 -188 -361 -188q-125 0 -190.5 61.5t-65.5 157.5q0 154 161 242t464 100 q35 111 35 153q0 143 -176 144q-57 0 -113 -19q33 -29 33 -79q0 -57 -38 -96.5t-103 -39.5q-55 0 -87 34t-32 87q0 96 101.5 164t281.5 68q215 0 293 -125q150 125 338 125zM1141 852q-98 0 -178 -111.5t-117 -259.5q203 23 296 94.5t93 174.5q0 45 -24.5 73.5t-69.5 28.5z M1139 1245l-191 -151h-121l170 274q51 80 84 114t80 34q45 0 75 -33t30 -72q0 -41 -25.5 -72t-101.5 -94zM608 332q0 66 13 127q-182 -23 -269.5 -75t-87.5 -146q0 -45 31 -77t82 -32q119 0 235 141q-4 37 -4 62z" />
<glyph glyph-name="Oslashacute" unicode="&#x1fe;" horiz-adv-x="1474" d="M127 559q0 201 91 387.5t267.5 310t395.5 123.5q217 0 372 -129l195 211l104 -92l-209 -217q109 -150 109 -365q0 -201 -91 -387t-267 -310t-394 -124q-223 0 -374 127l-193 -209l-104 92l207 218q-109 149 -109 364zM870 1231q-119 0 -214 -81t-147 -203t-80 -247 t-28 -231q0 -68 9 -111l710 756q-80 117 -250 117zM1180 879q0 53 -11 110l-708 -756q76 -117 250 -116q119 0 213 81t147 202.5t81 247t28 231.5zM1174 1659l-191 -152h-121l170 275q51 80 84 113.5t80 33.5q45 0 74.5 -32.5t29.5 -71.5q0 -41 -25 -72t-101 -94z" />
<glyph glyph-name="oslashacute" unicode="&#x1ff;" horiz-adv-x="1054" d="M82 -96l-82 78l135 147q-74 106 -74 248q0 238 163 413t378 175q137 0 232 -70l137 147l82 -77l-138 -150q76 -100 76 -246q0 -238 -162.5 -413.5t-377.5 -175.5q-137 0 -234 67zM451 94q88 0 158.5 98.5t104.5 223.5t38 239l-435 -491q32 -70 134 -70zM602 852 q-88 0 -159.5 -98.5t-105.5 -222t-38 -238.5l434 489q-31 70 -131 70zM858 1245l-190 -151h-121l170 274q51 80 84 114t80 34q45 0 74.5 -33t29.5 -72q0 -41 -25.5 -72t-101.5 -94z" />
<glyph glyph-name="Scommaaccent" unicode="&#x218;" horiz-adv-x="1202" d="M238 -690l-31 84q205 74 248 188l-11 8q-20 -10 -45 -10q-47 0 -77.5 31t-30.5 82q0 61 43 111.5t110 50.5q74 0 115 -50.5t41 -126.5q0 -119 -93 -217t-269 -151zM-18 -27l122 506h146q29 -180 126 -273t236 -93q117 0 186.5 62.5t69.5 146.5q0 97 -139 173 q-32 18 -141 68q-82 37 -130 63.5t-108.5 72.5t-89.5 107.5t-29 139.5q0 174 139.5 304t340.5 130q109 0 203 -42t145 -113l84 149h153l-120 -485h-144q-31 186 -108.5 267t-212.5 81q-98 0 -163 -60.5t-65 -142.5t66.5 -132t199.5 -109q14 -7 21 -9q80 -35 128 -60.5 t106.5 -70.5t86 -105.5t27.5 -135.5q0 -188 -146.5 -316.5t-357.5 -128.5q-260 0 -389 164l-90 -158h-153z" />
<glyph glyph-name="scommaaccent" unicode="&#x219;" horiz-adv-x="905" d="M80 -690l-31 84q205 74 248 188l-10 8q-20 -10 -45 -10q-47 0 -78 31t-31 82q0 61 43 111.5t111 50.5q74 0 114.5 -50.5t40.5 -126.5q0 -119 -93 -217t-269 -151zM797 301q0 -152 -113 -236.5t-274 -84.5q-156 0 -274 63t-118 174q0 61 38 104.5t98 43.5q57 0 88.5 -34 t31.5 -79q0 -72 -49 -113q59 -53 176 -53q80 0 125 38t45 107q0 37 -28.5 68t-61 48.5t-98.5 47.5q-57 27 -90 45.5t-73 49t-58.5 70.5t-18.5 89q0 150 118 233t267 83q156 0 254.5 -61.5t98.5 -153.5q0 -61 -37 -104.5t-94 -43.5q-55 0 -88 33t-33 80q0 66 49 108 q-43 39 -141 39q-76 0 -123 -37t-47 -100q0 -55 46 -90t158 -86q51 -23 83 -40t69 -48t55.5 -70t18.5 -90z" />
<glyph glyph-name="uni0259" unicode="&#x259;" horiz-adv-x="964" d="M37 193q0 145 156.5 246.5t465.5 119.5q2 16 3 47q0 223 -191 223q-154 0 -287 -188l-86 61q88 125 192.5 194t256.5 69q160 0 259 -102.5t99 -270.5q0 -240 -178 -426t-416 -186q-129 0 -201.5 58.5t-72.5 154.5zM346 92q98 0 178 111.5t117 257.5q-203 -23 -296 -93.5 t-93 -172.5q0 -45 24.5 -74t69.5 -29z" />
<glyph glyph-name="circumflex" unicode="&#x2c6;" horiz-adv-x="657" d="M197 1096l333 387h119l142 -387h-125l-111 184l-221 -184h-137z" />
<glyph glyph-name="caron" unicode="&#x2c7;" horiz-adv-x="657" d="M874 1495l-335 -387h-119l-141 387h127l110 -184l219 184h139z" />
<glyph glyph-name="breve" unicode="&#x2d8;" horiz-adv-x="708" d="M545 1100q-139 0 -206 90t-30 254h105q0 -176 157 -176q139 0 224 176h110q-39 -164 -135 -254t-225 -90z" />
<glyph glyph-name="dotaccent" unicode="&#x2d9;" horiz-adv-x="411" d="M553 1264q0 -61 -47 -114.5t-121 -53.5q-51 0 -85 32.5t-34 90.5q0 66 45 119t117 53q55 0 90 -34t35 -93z" />
<glyph glyph-name="ring" unicode="&#x2da;" horiz-adv-x="561" d="M727 1329q0 -102 -70.5 -175t-181.5 -73q-98 0 -155.5 56.5t-57.5 136.5q0 104 70.5 177t181.5 73q98 0 155.5 -56.5t57.5 -138.5zM385 1272q0 -47 25.5 -76t70.5 -29q57 0 90 53.5t33 114.5q0 47 -25.5 75t-70.5 28q-57 0 -90 -52.5t-33 -113.5z" />
<glyph glyph-name="ogonek" unicode="&#x2db;" horiz-adv-x="579" d="M299 -428q-113 -76 -227 -76q-100 0 -165 48t-65 137q0 84 65.5 155.5t223.5 167.5l43 27h145l-55 -39q-139 -109 -186 -168.5t-47 -112.5q0 -37 25.5 -63.5t78.5 -26.5q57 0 123 41z" />
<glyph glyph-name="tilde" unicode="&#x2dc;" horiz-adv-x="739" d="M422 1214q-31 0 -55.5 -26.5t-57.5 -91.5h-116q49 147 109 220t153 73q57 0 109 -28t91 -55.5t66 -27.5q31 0 55.5 26.5t57.5 92.5h116q-49 -145 -109.5 -219t-152.5 -74q-57 0 -109.5 27.5t-91 55t-65.5 27.5z" />
<glyph glyph-name="hungarumlaut" unicode="&#x2dd;" horiz-adv-x="630" d="M428 1245l-178 -151h-119l156 274q43 80 75.5 114t77.5 34t76 -33t31 -72q0 -43 -23.5 -74t-95.5 -92zM776 1245l-186 -151h-119l168 274q45 76 81 112t81 36t72.5 -32t27.5 -71q0 -43 -25.5 -75t-99.5 -93z" />
<glyph glyph-name="uni0326" unicode="&#x326;" horiz-adv-x="491" d="M-158 -690l-30 84q205 74 247 188l-10 8q-20 -10 -45 -10q-47 0 -77.5 31t-30.5 82q0 61 43 111.5t110 50.5q74 0 115 -50.5t41 -126.5q0 -119 -93.5 -217t-269.5 -151z" />
<glyph glyph-name="Wgrave" unicode="&#x1e80;" horiz-adv-x="2013" d="M1159 -8l-39 817l-473 -817h-235l-80 1202h-180l36 154h617l-37 -152h-176l43 -938h10l461 793l-6 145h-178l36 152h617l-37 -152h-188l30 -938h11l495 938h-174l37 152h502l-39 -154h-139l-674 -1202h-240zM1288 1733l41 -226h-108l-101 154q-70 104 -69 164 q0 39 29.5 70.5t72.5 31.5q45 0 72.5 -27.5t38 -62t24.5 -104.5z" />
<glyph glyph-name="wgrave" unicode="&#x1e81;" horiz-adv-x="1527" d="M371 965q84 0 127 -48.5t43 -132.5q0 -111 -84 -302t-84 -253q0 -80 73 -79q57 0 117 68.5t134.5 254.5t140.5 477h221l-101 -420q-35 -145 -34 -243q0 -137 102 -137q86 0 162 89t120 210.5t50 238.5q-25 -12 -55 -12q-53 0 -87 34.5t-34 94.5q0 66 44 116t105 50 q76 0 120 -53.5t44 -155.5q0 -113 -37 -245t-102.5 -255t-172 -205t-227.5 -82q-109 0 -171 68t-60 203q0 35 4 61l-14 4q-129 -336 -346 -336q-100 0 -165 62.5t-65 171.5q0 100 88 295.5t88 251.5q0 43 -30 43q-37 0 -70 -44t-88 -157l-96 41q143 326 340 326zM942 1319 l41 -225h-109l-100 153q-70 104 -69 164q0 39 29.5 70.5t72.5 31.5q45 0 72.5 -27.5t38 -62t24.5 -104.5z" />
<glyph glyph-name="Wacute" unicode="&#x1e82;" horiz-adv-x="2013" d="M1483 1659l-191 -152h-121l170 275q51 80 84 113.5t80 33.5q45 0 75 -32.5t30 -71.5q0 -41 -25.5 -72t-101.5 -94zM1159 -8l-39 817l-473 -817h-235l-80 1202h-180l36 154h617l-37 -152h-176l43 -938h10l461 793l-6 145h-178l36 152h617l-37 -152h-188l30 -938h11 l495 938h-174l37 152h502l-39 -154h-139l-674 -1202h-240z" />
<glyph glyph-name="wacute" unicode="&#x1e83;" horiz-adv-x="1527" d="M371 965q84 0 127 -48.5t43 -132.5q0 -111 -84 -302t-84 -253q0 -80 73 -79q57 0 117 68.5t134.5 254.5t140.5 477h221l-101 -420q-35 -145 -34 -243q0 -137 102 -137q86 0 162 89t120 210.5t50 238.5q-25 -12 -55 -12q-53 0 -87 34.5t-34 94.5q0 66 44 116t105 50 q76 0 120 -53.5t44 -155.5q0 -113 -37 -245t-102.5 -255t-172 -205t-227.5 -82q-109 0 -171 68t-60 203q0 35 4 61l-14 4q-129 -336 -346 -336q-100 0 -165 62.5t-65 171.5q0 100 88 295.5t88 251.5q0 43 -30 43q-37 0 -70 -44t-88 -157l-96 41q143 326 340 326zM1137 1245 l-191 -151h-121l170 274q51 80 84 114t80 34q45 0 75 -33t30 -72q0 -41 -25.5 -72t-101.5 -94z" />
<glyph glyph-name="Wdieresis" unicode="&#x1e84;" horiz-adv-x="2013" d="M1268 1700q0 -59 -45 -111.5t-113 -52.5q-49 0 -81 33t-32 86q0 63 42 114.5t110 51.5q53 0 86 -33t33 -88zM1653 1700q0 -59 -45 -111.5t-113 -52.5q-49 0 -81 33t-32 86q0 63 42 114.5t110 51.5q53 0 86 -33t33 -88zM1159 -8l-39 817l-473 -817h-235l-80 1202h-180 l36 154h617l-37 -152h-176l43 -938h10l461 793l-6 145h-178l36 152h617l-37 -152h-188l30 -938h11l495 938h-174l37 152h502l-39 -154h-139l-674 -1202h-240z" />
<glyph glyph-name="wdieresis" unicode="&#x1e85;" horiz-adv-x="1527" d="M371 965q84 0 127 -48.5t43 -132.5q0 -111 -84 -302t-84 -253q0 -80 73 -79q57 0 117 68.5t134.5 254.5t140.5 477h221l-101 -420q-35 -145 -34 -243q0 -137 102 -137q86 0 162 89t120 210.5t50 238.5q-25 -12 -55 -12q-53 0 -87 34.5t-34 94.5q0 66 44 116t105 50 q76 0 120 -53.5t44 -155.5q0 -113 -37 -245t-102.5 -255t-172 -205t-227.5 -82q-109 0 -171 68t-60 203q0 35 4 61l-14 4q-129 -336 -346 -336q-100 0 -165 62.5t-65 171.5q0 100 88 295.5t88 251.5q0 43 -30 43q-37 0 -70 -44t-88 -157l-96 41q143 326 340 326zM1307 1286 q0 -59 -45 -111.5t-113 -52.5q-49 0 -81 33t-32 86q0 63 42 114.5t110 51.5q53 0 86 -33t33 -88zM922 1286q0 -59 -45.5 -111.5t-112.5 -52.5q-49 0 -81 33t-32 86q0 63 42 114.5t110 51.5q53 0 86 -33t33 -88z" />
<glyph glyph-name="Ygrave" unicode="&#x1ef2;" horiz-adv-x="1306" d="M780 702l400 494h-164l37 152h485l-39 -154h-143l-543 -643l-98 -397h198l-36 -154h-652l37 154h195l104 413l-207 627h-161l38 154h617l-39 -152h-176zM934 1733l41 -226h-109l-100 154q-70 104 -70 164q0 39 30 70.5t73 31.5q45 0 72.5 -27.5t38 -62t24.5 -104.5z" />
<glyph glyph-name="ygrave" unicode="&#x1ef3;" horiz-adv-x="1132" d="M360 965q78 0 123 -48.5t45 -130.5q0 -102 -59 -271t-59 -220q0 -72 67 -72q223 0 410 727h229l-188 -790q-119 -508 -551 -508q-129 0 -222.5 44t-93.5 146q0 55 39 101.5t103 46.5q59 0 91 -36t27.5 -89t-40.5 -88q43 -14 94 -15q238 0 338 414l41 162l-13 6 q-162 -297 -364 -297q-98 0 -150.5 59.5t-52.5 153.5q0 84 65.5 263t65.5 233q0 43 -31 43q-61 0 -155 -201l-96 41q142 326 337 326zM721 1319l41 -225h-109l-100 153q-70 104 -70 164q0 39 30 70.5t73 31.5q45 0 72.5 -27.5t38 -62t24.5 -104.5z" />
<glyph glyph-name="endash" unicode="&#x2013;" horiz-adv-x="1095" d="M96 428l41 160h883l-39 -160h-885z" />
<glyph glyph-name="emdash" unicode="&#x2014;" horiz-adv-x="1607" d="M96 428l41 160h1395l-39 -160h-1397z" />
<glyph glyph-name="quoteleft" unicode="&#x2018;" horiz-adv-x="495" d="M614 1395l25 -90q-240 -72 -299 -213l12 -11q20 14 43 15q49 0 80 -33t31 -88q0 -68 -44 -120t-112 -52q-80 0 -123 51t-43 133q0 137 110.5 247t319.5 161z" />
<glyph glyph-name="quoteright" unicode="&#x2019;" horiz-adv-x="495" d="M180 786l-24 93q246 74 299 213l-11 10q-23 -14 -45 -15q-47 0 -78.5 34t-31.5 87q0 68 44 120t111 52q78 0 122 -52t44 -132q0 -139 -110.5 -249t-319.5 -161z" />
<glyph glyph-name="quotesinglbase" unicode="&#x201a;" horiz-adv-x="495" d="M-102 -315l-25 92q246 74 299 213l-10 10q-23 -14 -45 -14q-47 0 -79 33.5t-32 86.5q0 68 44 120.5t112 52.5q78 0 122 -52.5t44 -132.5q0 -139 -110.5 -248.5t-319.5 -160.5z" />
<glyph glyph-name="quotedblleft" unicode="&#x201c;" horiz-adv-x="925" d="M623 1395l24 -90q-244 -72 -299 -213l12 -11q18 14 43 15q47 0 79 -34t32 -87q0 -68 -44 -120t-112 -52q-80 0 -122.5 51t-42.5 133q0 137 110.5 247t319.5 161zM1044 1395l25 -90q-244 -72 -299 -213l12 -11q18 14 43 15q47 0 79 -34t32 -87q0 -68 -44 -120t-112 -52 q-80 0 -123 51t-43 133q0 137 110.5 247t319.5 161z" />
<glyph glyph-name="quotedblright" unicode="&#x201d;" horiz-adv-x="925" d="M180 786l-24 93q246 74 299 213l-11 10q-23 -14 -45 -15q-47 0 -78.5 34t-31.5 87q0 68 44 120t111 52q78 0 122 -52t44 -132q0 -139 -110.5 -249t-319.5 -161zM602 786l-24 93q246 72 299 213l-11 10q-23 -14 -43 -15q-49 0 -80.5 33t-31.5 88q0 68 44 120t111 52 q78 0 122 -52t44 -132q0 -139 -110.5 -249t-319.5 -161z" />
<glyph glyph-name="quotedblbase" unicode="&#x201e;" horiz-adv-x="917" d="M-102 -315l-25 92q246 74 299 213l-10 10q-23 -14 -45 -14q-47 0 -79 33.5t-32 86.5q0 68 44 120.5t112 52.5q78 0 122 -52.5t44 -132.5q0 -139 -110.5 -248.5t-319.5 -160.5zM319 -315l-24 92q246 72 299 213l-10 10q-23 -14 -43 -14q-49 0 -81 32.5t-32 87.5 q0 68 44 120.5t112 52.5q78 0 122 -52.5t44 -132.5q0 -139 -111 -248.5t-320 -160.5z" />
<glyph glyph-name="dagger" unicode="&#x2020;" horiz-adv-x="1079" d="M870 1282l-176 -362q156 -53 213 -54q14 0 19 2q-16 66 18.5 118t95.5 52q43 0 74 -29.5t31 -80.5q0 -63 -52.5 -113.5t-144.5 -50.5t-272 65l-86 -600l-74 -295q-14 -61 -66.5 -108t-74.5 -43q-25 4 -51.5 71.5t-10.5 129.5l74 295l209 577q-147 53 -213 53h-18 q16 -68 -19 -119t-96 -51q-43 0 -74 30t-31 79q0 63 53.5 114.5t143.5 51.5q43 0 87 -9.5t73.5 -18.5t115.5 -40l13 395l28 37q43 63 101 64q88 0 104 -115z" />
<glyph glyph-name="daggerdbl" unicode="&#x2021;" horiz-adv-x="1079" d="M557 360q152 -53 207 -53q16 0 20 2q-16 68 19 119t96 51q45 0 75 -28.5t30 -79.5q0 -66 -52.5 -116t-142.5 -50q-43 0 -86 8t-77 19.5l-114 39.5l-12 -391l-28 -39q-45 -61 -101 -61q-84 0 -104 115l-6 45l176 356q-162 55 -211 55q-16 0 -21 -2q14 -68 -20.5 -119 t-95.5 -51q-43 0 -74 30t-31 79q0 66 53.5 116t143.5 50t266 -64l14 248l111 223q-145 51 -203 51h-22q16 -68 -19 -119t-96 -51q-43 0 -74 30t-31 79q0 66 53.5 116t143.5 50q43 0 87 -9.5t74 -18.5t116 -40l10 391l28 37q43 63 101 64q88 0 104 -115l6 -45l-174 -358 q152 -53 211 -54q14 0 21 2q-16 68 18.5 119t95.5 51q43 0 74 -29.5t31 -78.5q0 -66 -53.5 -116t-143.5 -50t-268 63l-14 -249z" />
<glyph glyph-name="bullet" unicode="&#x2022;" horiz-adv-x="980" d="M514 352q-111 0 -185.5 76t-74.5 193q0 137 95 237t226 100q111 0 186 -75.5t75 -192.5q0 -137 -95.5 -237.5t-226.5 -100.5z" />
<glyph glyph-name="ellipsis" unicode="&#x2026;" horiz-adv-x="1449" d="M158 -33q-59 0 -98.5 40t-39.5 105.5t44.5 119t113.5 53.5q59 0 98 -40t39 -105.5t-43.5 -119t-113.5 -53.5zM635 -33q-59 0 -98 40t-39 105.5t44 119t113 53.5q59 0 98.5 -40t39.5 -105.5t-44 -119t-114 -53.5zM1114 -33q-59 0 -98 40t-39 105.5t44 119t114 53.5 q59 0 98 -40t39 -105.5t-44 -119t-114 -53.5z" />
<glyph glyph-name="guilsinglleft" unicode="&#x2039;" horiz-adv-x="624" d="M365 63l-265 328q-37 45 -37 76q0 37 74 92l416 303l61 -69l-323 -340l160 -334z" />
<glyph glyph-name="guilsinglright" unicode="&#x203a;" horiz-adv-x="624" d="M256 860l264 -328q37 -45 37 -75q0 -37 -74 -92l-415 -304l-62 70l324 340l-160 334z" />
<glyph glyph-name="Euro" unicode="&#x20ac;" horiz-adv-x="1333" d="M907 711h-379q-16 -84 -22 -150h366l-34 -135h-332q12 -150 86 -219.5t184 -69.5q207 0 344 279l121 -62q-70 -174 -202 -280.5t-314 -106.5q-205 0 -335 118t-144 341h-205l33 135h172q6 76 24 150h-159l32 135h170q90 219 266.5 352t385.5 133q190 0 296.5 -92 t106.5 -217q0 -80 -46 -137.5t-116 -57.5q-61 0 -98 38t-37 96q0 102 92 155q-53 76 -184 76q-279 0 -412 -348h375z" />
<glyph glyph-name="uni2117" unicode="&#x2117;" horiz-adv-x="1611" d="M843.5 -68q-317.5 0 -531.5 212t-214 530q0 315 214 528t531.5 213t531.5 -213t214 -528q0 -317 -214 -529.5t-531.5 -212.5zM843.5 20q276.5 0 460 186.5t183.5 467.5q0 279 -183.5 466t-460 187t-459.5 -187.5t-183 -465.5q0 -281 183 -467.5t459.5 -186.5zM537 301v90 h110v570h-110v92h354q166 0 244.5 -62.5t78.5 -165t-76.5 -169t-240.5 -66.5h-90v-199h121v-90h-391zM807 678h78q88 0 121.5 36t33.5 109q0 68 -35.5 105t-121.5 37h-76v-287z" />
<glyph glyph-name="uni2120" unicode="&#x2120;" horiz-adv-x="1638" d="M156 719l61 244h74q31 -170 172 -170q49 0 76.5 24.5t27.5 61.5q0 8 -2 15t-4 13t-7 12.5t-9 10.5t-12.5 10t-13.5 9t-16 8.5t-15.5 7.5l-18.5 8t-18 8q-111 53 -141 86q-37 41 -38 98q0 82 69 141.5t167 59.5q111 0 162 -74l41 70h77l-59 -229h-72q-31 156 -145 155 q-47 0 -74.5 -23.5t-27.5 -60.5q0 -8 2 -15l4 -13.5t7 -12.5t9 -10t13.5 -9t13.5 -8t15 -9.5t16.5 -8.5t18.5 -8t17 -8q110 -49 141 -82q38 -41 38 -100q0 -88 -69 -146.5t-173 -58.5q-117 0 -184 78l-46 -74h-77zM739 727l21 84h86l112 453h-86l23 84h305l29 -406h14 l219 406h316l-21 -84h-92l-113 -453h93l-23 -84h-309l20 84h72l108 426h-24l-289 -510h-88l-41 510h-29l-106 -426h76l-21 -84h-252z" />
<glyph glyph-name="trademark" unicode="&#x2122;" horiz-adv-x="1728" d="M831 727l21 84h86l111 453h-84l20 84h307l27 -406h14l219 406h318l-23 -84h-90l-112 -453h90l-21 -84h-309l20 84h72l109 426h-25l-291 -510h-86l-43 510h-26l-107 -426h76l-23 -84h-250zM262 727l23 84h110l117 461h-29q-59 0 -90 -30t-90 -144h-70l64 250h614l-61 -250 h-62q-4 113 -20 143.5t-74 30.5h-35l-114 -461h110l-20 -84h-373z" />
<glyph glyph-name="minus" unicode="&#x2212;" horiz-adv-x="1064" d="M932 502h-780l38 155h781z" />
<glyph glyph-name="registered.alt" horiz-adv-x="1611" d="M843.5 -68q-317.5 0 -531.5 212t-214 530q0 315 214 528t531.5 213t531.5 -213t214 -528q0 -317 -214 -529.5t-531.5 -212.5zM843.5 20q276.5 0 460 186.5t183.5 467.5q0 279 -183.5 466t-460 187t-459.5 -187.5t-183 -465.5q0 -281 183 -467.5t459.5 -186.5zM756 631 v-236h112v-90h-383v90h113v570h-113v90h394q158 0 228.5 -55.5t70.5 -139.5q0 -70 -51.5 -120t-163.5 -64v-10q94 -12 134 -52.5t44 -109.5l6 -60q2 -55 35 -55q25 0 47 60l59 -23q-39 -137 -153 -137q-156 0 -156 166v59q0 61 -24.5 89t-90.5 28h-108zM756 713h106 q76 0 109 31.5t33 101.5q0 63 -30 92t-104 29h-114v-254z" />
<glyph glyph-name="zero.osf" horiz-adv-x="1196" d="M92 461q0 172 75 333.5t216 268t311 106.5q209 0 330 -132t121 -361q0 -172 -75 -334t-216 -268.5t-311 -106.5q-209 0 -330 132.5t-121 361.5zM881 772q0 258 -193 258q-80 0 -146.5 -71.5t-105.5 -179t-59.5 -217t-20.5 -197.5q0 -258 193 -259q80 0 146.5 72 t105.5 179.5t59.5 217t20.5 197.5z" />
<glyph glyph-name="one.osf" horiz-adv-x="954" d="M4 0l35 152h272l181 712q-57 -25 -142 -24q-96 0 -151 22l30 125q123 -6 233.5 37t178.5 125h168l-250 -997h272l-34 -152h-793z" />
<glyph glyph-name="two.osf" horiz-adv-x="1101" d="M412 983q66 -37 65 -119q0 -66 -40 -110.5t-109 -44.5q-63 0 -103.5 39.5t-40.5 103.5q0 127 124 222t322.5 95t309.5 -91t111 -226q0 -162 -104.5 -244t-293.5 -131q-221 -63 -313 -117.5t-141 -134.5l6 -8q92 59 203 59q80 0 178 -39.5t137 -39.5q57 0 98 44t88 150 l105 -20q-55 -217 -140.5 -310.5t-216.5 -93.5q-63 0 -119.5 28t-89 61.5t-73.5 61t-78 27.5q-29 0 -51 -10q8 -23 8 -47q0 -53 -36 -87t-89 -34t-88 36t-35 99q0 82 38 152t108.5 124t132 89t145.5 74q82 35 121 54t96.5 52t83 61.5t45 70.5t19.5 93q0 76 -55.5 120 t-145.5 44q-114 0 -182 -53z" />
<glyph glyph-name="three.osf" horiz-adv-x="1087" d="M219 -14q66 -39 170 -39q139 0 213 85t74 214q0 178 -262 178h-47l34 137h48q182 0 262 80q86 86 86 219q0 178 -193 178q-90 0 -153 -43q43 -49 43 -106q0 -68 -40 -114t-110 -46q-63 0 -102 38t-39 101q0 133 134 217t300 84q203 0 313.5 -89t110.5 -222 q0 -141 -109.5 -246.5t-324.5 -122.5l-2 -6q158 -25 234.5 -94.5t76.5 -173.5q0 -174 -143.5 -284.5t-366.5 -110.5q-203 0 -318.5 77.5t-115.5 196.5q0 76 48 132.5t122 56.5q61 0 98 -41t37 -99q0 -98 -78 -157z" />
<glyph glyph-name="four.osf" horiz-adv-x="1144" d="M612 379l136 551h-9l-528 -551h401zM748 -14h174l-37 -146h-576l37 146h168l59 241h-581l35 144l766 788h245l-192 -780h254l-39 -152h-254z" />
<glyph glyph-name="five.osf" horiz-adv-x="1054" d="M440 920l-108 -338q102 68 243 67q174 0 271.5 -96t97.5 -246q0 -82 -32.5 -165t-94 -156.5t-168 -119.5t-237.5 -46q-174 0 -295 74.5t-121 199.5q0 76 46 131.5t120 55.5q57 0 94 -38t37 -100q0 -88 -82 -149q49 -43 162 -43q109 0 182.5 61.5t100 137t26.5 155.5 q0 104 -54.5 155.5t-142.5 51.5q-104 0 -229 -76l-100 41l204 651l48 35q164 -72 352 -71q160 0 315 65l37 -78q-162 -213 -399 -213q-146 1 -273 54z" />
<glyph glyph-name="six.osf" horiz-adv-x="1120" d="M803 1311q154 0 249 -70t95 -178q0 -72 -44 -126t-116 -54q-57 0 -92 36.5t-35 86.5q0 88 74 137q-43 39 -125 39q-145 0 -258 -137.5t-160 -374.5q119 137 297 137q156 0 252 -93t96 -241q0 -193 -135 -349.5t-362 -156.5q-203 0 -318 127t-115 352q0 213 88.5 410 t251 326t357.5 129zM532 100q106 0 175 120t69 259q0 94 -46 144.5t-126 50.5q-117 0 -188.5 -103.5t-71.5 -242.5q0 -109 49 -168.5t139 -59.5z" />
<glyph glyph-name="seven.osf" horiz-adv-x="1056" d="M438 -27q-29 -80 -65.5 -117.5t-94 -37.5t-97.5 39t-40 94q0 139 198 379.5t445 437.5l154 129l-8 10q-121 -66 -217 -65q-78 0 -156 39t-106 39q-49 0 -90.5 -52.5t-100.5 -203.5h-145l121 487h157l-28 -158h12q98 170 215 170q51 0 91 -29.5t62.5 -66.5t57.5 -66.5 t76 -29.5q18 0 34 6q-10 27 -10 61q0 61 35 100.5t94 39.5q53 0 87 -34t34 -83q0 -59 -36 -110.5t-124 -121.5q-182 -143 -314 -343t-241 -513z" />
<glyph glyph-name="eight.osf" horiz-adv-x="1101" d="M1092 997q0 -113 -76 -196.5t-209 -118.5q199 -113 199 -303q0 -170 -135.5 -291t-360.5 -121q-211 0 -332 94.5t-121 233.5q0 125 88 212t242 118q-170 106 -170 282q0 160 127 282t340 122q188 0 298 -90.5t110 -223.5zM489 569q-12 4 -16 9q-203 -86 -203 -267 q0 -92 63.5 -153.5t184.5 -61.5q115 0 182.5 60.5t67.5 150.5q0 45 -19.5 81t-67.5 68.5t-83 51t-111 55.5zM455 987q0 -45 18.5 -82t62.5 -68.5t79.5 -51t107.5 -54.5q168 86 168 262q0 84 -54.5 137.5t-154.5 53.5t-163.5 -58.5t-63.5 -138.5z" />
<glyph glyph-name="nine.osf" horiz-adv-x="1120" d="M633 1036q-109 0 -177.5 -121.5t-68.5 -267.5q0 -94 46 -145t124 -51q119 0 190.5 107.5t71.5 250.5q0 106 -49 166.5t-137 60.5zM770 457q-117 -137 -297 -138q-154 0 -250 93.5t-96 240.5q0 199 135 357.5t365 158.5q203 0 317.5 -127t114.5 -354q0 -213 -88 -410.5 t-252 -327.5t-361 -130q-150 0 -248 72.5t-98 185.5q0 74 44 127t118 53q57 0 91 -37t34 -88q0 -86 -72 -139q39 -43 127 -43q143 0 256 136.5t160 369.5z" />
<glyph glyph-name="dollar.osf" horiz-adv-x="1101" d="M700 1311l134 -21l-37 -145q139 -27 222 -101.5t83 -156.5q0 -72 -41 -121t-105 -49q-57 0 -91 31.5t-34 78.5q0 82 72 125q-35 55 -135 82l-90 -366q150 -61 228.5 -128t78.5 -180q0 -154 -121 -262t-334 -108h-22l-43 -178l-133 20l43 172q-147 29 -239.5 106.5 t-92.5 176.5q0 70 45 120t111 50q55 0 92 -36t37 -85q0 -39 -24.5 -76t-61.5 -53q37 -59 161 -92l93 377q-143 57 -220 123.5t-77 170.5q0 160 137 264.5t326 106.5zM770 270q0 96 -152 168l-83 -338q115 0 175 48t60 122zM426 870q0 -84 129 -149l82 323 q-96 -8 -153.5 -59.5t-57.5 -114.5z" />
<glyph glyph-name="sterling.osf" horiz-adv-x="1222" d="M930 494h-301q-10 -109 -92 -209q16 -6 42.5 -17.5t36.5 -15.5q182 -68 236 -68q61 0 98 37t76 141l107 -22q-53 -201 -126 -286t-196 -85q-96 0 -175 39t-171 113q-6 4 -15.5 12t-11.5 8q-109 -168 -256 -168q-88 0 -140 45t-52 117q0 86 74.5 146.5t197.5 60.5 q68 0 152 -18q8 33 8 61q0 55 -16 109h-302l35 141h217q-18 49 -18 108q0 182 148.5 304t355.5 122q176 0 282.5 -73.5t106.5 -175.5q0 -70 -46 -121t-118 -51q-59 0 -96 30.5t-37 87.5q0 39 24.5 76t61.5 53q-45 49 -162 49q-123 0 -188.5 -76.5t-65.5 -209.5 q0 -27 14 -123h347zM199 84q90 0 157 109q-66 31 -129 30q-47 0 -74.5 -23.5t-27.5 -56.5q0 -59 74 -59z" />
<glyph glyph-name="Euro.osf" horiz-adv-x="1300" d="M868 623h-370q-16 -63 -21 -131h361l-33 -130h-322q20 -119 92 -173t173 -54q211 0 350 264l121 -61q-74 -166 -205 -268.5t-316 -102.5q-190 0 -320 103.5t-155 289.5h-205l33 132h170q2 66 19 131h-158l31 131h174q86 186 256 300.5t368 114.5q188 0 296 -89t108 -210 q0 -74 -47 -131t-119 -57q-61 0 -97 36t-36 91q0 100 94 152q-53 72 -186 71q-258 0 -383 -280h360z" />
<glyph glyph-name="yen.osf" horiz-adv-x="1308" d="M221 672h234l-121 315h-166l37 150h592l-39 -148h-160l141 -407l346 407h-153l37 148h469l-39 -150h-146l-282 -315h219l-31 -129h-303l-86 -99l-8 -28h366l-32 -129h-367l-35 -140h219l-36 -147h-668l37 147h217l35 140h-371l33 129h370l11 35l-37 92h-314z" />
<glyph glyph-name="hfjslug" horiz-adv-x="1421" d="M1319 -410h-426l-16 29h-334l-17 -29h-424v621q29 0 47.5 19.5t18.5 46t-19.5 46t-46.5 19.5v1135h205l62 161h684l59 -161h207v-1887zM819 1153v-352h31v160h78v28h-78v135h88v29h-119zM377 1153v-352h31v162h96v-162h31v352h-31v-162h-96v162h-31zM942 807q16 -8 43 -8 q63 0 64 73v281h-33v-281q0 -45 -33 -45q-20 0 -41 13v-33zM715 897l-33 64q47 43 47 86q0 25 -14.5 44t-40.5 19q-25 0 -41.5 -19.5t-16.5 -43.5q0 -27 29 -80q-47 -37 -47 -93q0 -35 18.5 -57t45.5 -22q35 0 55 49h2l24 -49l23 16l-33 61q20 47 27 80l-27 6 q-4 -18 -18 -61zM1071 662v-95h16v27l15 14l33 -41h18l-39 54l37 41h-21l-43 -50v50h-16zM999 598l21 -31h18l-24 35q20 6 20 31q0 10 -9 19.5t-24 9.5h-43v-95h17v31h24zM872 565q23 0 36.5 14.5t13.5 34.5q0 18 -14.5 34t-35 16t-34 -15.5t-13.5 -34.5q0 -20 13.5 -34.5 t33.5 -14.5zM758 616l-27 46h-18l37 -60v-35h16v35l37 60h-19zM395 662v-95h68v15h-51v26h45v15h-45v24h51v15h-68zM270 662v-95h17v66l51 -66h14v95h-16v-66l-51 66h-15zM494 662l30 -97h17l20 70h2l23 -70h16l29 97h-17l-20 -72h-2l-21 72h-16l-23 -72h-2l-20 72h-16z M670 981q-25 45 -25 66q0 39 29 38q27 0 26 -38q1 -31 -30 -66zM700 866q-12 -43 -36 -43q-35 0 -35 56q0 37 30 67zM999 612h-24v35h22q20 0 21 -16q-1 -19 -19 -19zM872 580q-31 0 -30 34q0 12 9 23.5t21 11.5q14 0 23.5 -11t9.5 -24q0 -14 -9.5 -24t-23.5 -10z" />
<glyph glyph-name="i.dot" horiz-adv-x="706" d="M666 1288q0 -68 -50.5 -124t-126.5 -56q-55 0 -91 36t-36 95q0 68 48.5 124t124.5 56q59 0 95 -35t36 -96zM557 758q0 -86 -83 -297t-83 -266q0 -49 41 -50q61 0 146 207l96 -30q-113 -342 -326 -342q-82 0 -133 51t-51 141q0 106 85 323.5t85 272.5q0 45 -31 45 q-70 0 -166 -215l-98 41q139 326 336 326q82 0 132 -55.5t50 -151.5z" />
<glyph glyph-name="caron.alt" horiz-adv-x="487" d="M524 1288l-129 -213h-96l70 328q16 86 46.5 124t84.5 38q43 0 72.5 -30t29.5 -71q0 -49 -66 -157q-8 -13 -12 -19z" />
</font>
</defs>
</svg>
